SplineFontDB: 3.2
FontName: Skeleton
FullName: Skeleton
FamilyName: Skeleton
Weight: Book
Version: 1.0
ItalicAngle: 0
UnderlinePosition: -2
UnderlineWidth: 1
Ascent: 819
Descent: 205
InvalidEm: 0
sfntRevision: 0x00010000
LayerCount: 2
Layer: 0 1 "Back" 1
Layer: 1 1 "Fore" 0
XUID: [1021 902 755538880 4487948]
StyleMap: 0x0021
FSType: 0
OS2Version: 2
OS2_WeightWidthSlopeOnly: 0
OS2_UseTypoMetrics: 0
CreationTime: 1724533844
ModificationTime: 1724534470
PfmFamily: 81
TTFWeight: 400
TTFWidth: 5
LineGap: 0
VLineGap: 0
Panose: 0 0 0 0 0 0 0 0 0 0
OS2TypoAscent: 860
OS2TypoAOffset: 0
OS2TypoDescent: -276
OS2TypoDOffset: 0
OS2TypoLinegap: 100
OS2WinAscent: 860
OS2WinAOffset: 0
OS2WinDescent: 276
OS2WinDOffset: 0
HheadAscent: 860
HheadAOffset: 0
HheadDescent: -276
HheadDOffset: 0
OS2SubXSize: 40
OS2SubYSize: 40
OS2SubXOff: 40
OS2SubYOff: 40
OS2SupXSize: 40
OS2SupYSize: 40
OS2SupXOff: 40
OS2SupYOff: 40
OS2StrikeYSize: 40
OS2StrikeYPos: 200
OS2CapHeight: 860
OS2XHeight: 573
OS2Vendor: 'Bird'
OS2CodePages: 203f00ff.08010000
OS2UnicodeRanges: 00000001.00000000.00000000.00000000
Lookup: 265 0 0 "'kern' Horizontal Kerning lookup 0" { } [' RQD' ('DFLT' <'dflt' > ) 'kern' ('DFLT' <'dflt' > ) ]
DEI: 91125
ShortTable: maxp 16
  1
  0
  95
  16
  2
  0
  0
  1
  0
  0
  0
  0
  0
  0
  0
  0
EndShort
LangName: 1033 "" "" "Regular" "Skeleton" "" "Version 1.0" "" "" "" "Mikita Stankiewicz"
GaspTable: 1 65535 2 0
Encoding: UnicodeFull
UnicodeInterp: none
NameList: AGL For New Fonts
DisplaySize: -48
AntiAlias: 1
FitToEm: 0
WinInfo: 1216 16 10
BeginChars: 1114113 875

StartChar: .notdef
Encoding: 1114112 -1 0
Width: 543
GlyphClass: 1
Flags: W
LayerCount: 2
Fore
SplineSet
51 102 m 1,0,1
 154 102 154 102 358 102 c 1,2,3
 358 280 358 280 358 635 c 1,4,5
 256 635 256 635 51 635 c 1,6,7
 51 457 51 457 51 102 c 1,0,1
0 686 m 1,8,9
 137 686 137 686 410 686 c 1,10,11
 410 474 410 474 410 51 c 1,12,13
 273 51 273 51 0 51 c 1,14,15
 0 263 0 263 0 686 c 1,8,9
EndSplineSet
EndChar

StartChar: .null
Encoding: 0 0 1
Width: 574
GlyphClass: 1
Flags: W
LayerCount: 2
Fore
SplineSet
-1 574 m 1,0,1
 143 574 143 574 574 574 c 1,2,3
 574 430 574 430 574 -1 c 1,4,5
 430 -1 430 -1 -1 -1 c 1,6,7
 -1 142 -1 142 -1 574 c 1,0,1
EndSplineSet
EndChar

StartChar: space
Encoding: 32 32 3
Width: 574
GlyphClass: 1
Flags: W
LayerCount: 2
Fore
SplineSet
-1 574 m 1,0,1
 143 574 143 574 574 574 c 1,2,3
 574 430 574 430 574 -1 c 1,4,5
 430 -1 430 -1 -1 -1 c 1,6,7
 -1 142 -1 142 -1 574 c 1,0,1
EndSplineSet
EndChar

StartChar: exclam
Encoding: 33 33 4
Width: 574
GlyphClass: 1
Flags: W
LayerCount: 2
Fore
SplineSet
-1 574 m 1,0,1
 143 574 143 574 574 574 c 1,2,3
 574 430 574 430 574 -1 c 1,4,5
 430 -1 430 -1 -1 -1 c 1,6,7
 -1 142 -1 142 -1 574 c 1,0,1
EndSplineSet
EndChar

StartChar: quotedbl
Encoding: 34 34 5
Width: 574
GlyphClass: 1
Flags: W
LayerCount: 2
Fore
SplineSet
-1 574 m 1,0,1
 143 574 143 574 574 574 c 1,2,3
 574 430 574 430 574 -1 c 1,4,5
 430 -1 430 -1 -1 -1 c 1,6,7
 -1 142 -1 142 -1 574 c 1,0,1
EndSplineSet
EndChar

StartChar: numbersign
Encoding: 35 35 6
Width: 574
GlyphClass: 1
Flags: W
LayerCount: 2
Fore
SplineSet
-1 574 m 1,0,1
 143 574 143 574 574 574 c 1,2,3
 574 430 574 430 574 -1 c 1,4,5
 430 -1 430 -1 -1 -1 c 1,6,7
 -1 142 -1 142 -1 574 c 1,0,1
EndSplineSet
EndChar

StartChar: dollar
Encoding: 36 36 7
Width: 574
GlyphClass: 1
Flags: W
LayerCount: 2
Fore
SplineSet
-1 574 m 1,0,1
 143 574 143 574 574 574 c 1,2,3
 574 430 574 430 574 -1 c 1,4,5
 430 -1 430 -1 -1 -1 c 1,6,7
 -1 142 -1 142 -1 574 c 1,0,1
EndSplineSet
EndChar

StartChar: percent
Encoding: 37 37 8
Width: 574
GlyphClass: 1
Flags: W
LayerCount: 2
Fore
SplineSet
-1 574 m 1,0,1
 143 574 143 574 574 574 c 1,2,3
 574 430 574 430 574 -1 c 1,4,5
 430 -1 430 -1 -1 -1 c 1,6,7
 -1 142 -1 142 -1 574 c 1,0,1
EndSplineSet
EndChar

StartChar: ampersand
Encoding: 38 38 9
Width: 574
GlyphClass: 1
Flags: W
LayerCount: 2
Fore
SplineSet
-1 574 m 1,0,1
 143 574 143 574 574 574 c 1,2,3
 574 430 574 430 574 -1 c 1,4,5
 430 -1 430 -1 -1 -1 c 1,6,7
 -1 142 -1 142 -1 574 c 1,0,1
EndSplineSet
EndChar

StartChar: quotesingle
Encoding: 39 39 10
Width: 574
GlyphClass: 1
Flags: W
LayerCount: 2
Fore
SplineSet
-1 574 m 1,0,1
 143 574 143 574 574 574 c 1,2,3
 574 430 574 430 574 -1 c 1,4,5
 430 -1 430 -1 -1 -1 c 1,6,7
 -1 142 -1 142 -1 574 c 1,0,1
EndSplineSet
EndChar

StartChar: parenleft
Encoding: 40 40 11
Width: 574
GlyphClass: 1
Flags: W
LayerCount: 2
Fore
SplineSet
-1 574 m 1,0,1
 143 574 143 574 574 574 c 1,2,3
 574 430 574 430 574 -1 c 1,4,5
 430 -1 430 -1 -1 -1 c 1,6,7
 -1 142 -1 142 -1 574 c 1,0,1
EndSplineSet
EndChar

StartChar: parenright
Encoding: 41 41 12
Width: 574
GlyphClass: 1
Flags: W
LayerCount: 2
Fore
SplineSet
-1 574 m 1,0,1
 143 574 143 574 574 574 c 1,2,3
 574 430 574 430 574 -1 c 1,4,5
 430 -1 430 -1 -1 -1 c 1,6,7
 -1 142 -1 142 -1 574 c 1,0,1
EndSplineSet
EndChar

StartChar: asterisk
Encoding: 42 42 13
Width: 574
GlyphClass: 1
Flags: W
LayerCount: 2
Fore
SplineSet
-1 574 m 1,0,1
 143 574 143 574 574 574 c 1,2,3
 574 430 574 430 574 -1 c 1,4,5
 430 -1 430 -1 -1 -1 c 1,6,7
 -1 142 -1 142 -1 574 c 1,0,1
EndSplineSet
EndChar

StartChar: plus
Encoding: 43 43 14
Width: 574
GlyphClass: 1
Flags: W
LayerCount: 2
Fore
SplineSet
-1 574 m 1,0,1
 143 574 143 574 574 574 c 1,2,3
 574 430 574 430 574 -1 c 1,4,5
 430 -1 430 -1 -1 -1 c 1,6,7
 -1 142 -1 142 -1 574 c 1,0,1
EndSplineSet
EndChar

StartChar: comma
Encoding: 44 44 15
Width: 574
GlyphClass: 1
Flags: W
LayerCount: 2
Fore
SplineSet
-1 574 m 1,0,1
 143 574 143 574 574 574 c 1,2,3
 574 430 574 430 574 -1 c 1,4,5
 430 -1 430 -1 -1 -1 c 1,6,7
 -1 142 -1 142 -1 574 c 1,0,1
EndSplineSet
EndChar

StartChar: hyphen
Encoding: 45 45 16
Width: 574
GlyphClass: 1
Flags: W
LayerCount: 2
Fore
SplineSet
-1 574 m 1,0,1
 143 574 143 574 574 574 c 1,2,3
 574 430 574 430 574 -1 c 1,4,5
 430 -1 430 -1 -1 -1 c 1,6,7
 -1 142 -1 142 -1 574 c 1,0,1
EndSplineSet
EndChar

StartChar: period
Encoding: 46 46 17
Width: 574
GlyphClass: 1
Flags: W
LayerCount: 2
Fore
SplineSet
-1 574 m 1,0,1
 143 574 143 574 574 574 c 1,2,3
 574 430 574 430 574 -1 c 1,4,5
 430 -1 430 -1 -1 -1 c 1,6,7
 -1 142 -1 142 -1 574 c 1,0,1
EndSplineSet
EndChar

StartChar: slash
Encoding: 47 47 18
Width: 574
GlyphClass: 1
Flags: W
LayerCount: 2
Fore
SplineSet
-1 574 m 1,0,1
 143 574 143 574 574 574 c 1,2,3
 574 430 574 430 574 -1 c 1,4,5
 430 -1 430 -1 -1 -1 c 1,6,7
 -1 142 -1 142 -1 574 c 1,0,1
EndSplineSet
EndChar

StartChar: zero
Encoding: 48 48 19
Width: 574
GlyphClass: 1
Flags: W
LayerCount: 2
Fore
SplineSet
-1 574 m 1,0,1
 143 574 143 574 574 574 c 1,2,3
 574 430 574 430 574 -1 c 1,4,5
 430 -1 430 -1 -1 -1 c 1,6,7
 -1 142 -1 142 -1 574 c 1,0,1
EndSplineSet
EndChar

StartChar: one
Encoding: 49 49 20
Width: 574
GlyphClass: 1
Flags: W
LayerCount: 2
Fore
SplineSet
-1 574 m 1,0,1
 143 574 143 574 574 574 c 1,2,3
 574 430 574 430 574 -1 c 1,4,5
 430 -1 430 -1 -1 -1 c 1,6,7
 -1 142 -1 142 -1 574 c 1,0,1
EndSplineSet
EndChar

StartChar: two
Encoding: 50 50 21
Width: 574
GlyphClass: 1
Flags: W
LayerCount: 2
Fore
SplineSet
-1 574 m 1,0,1
 143 574 143 574 574 574 c 1,2,3
 574 430 574 430 574 -1 c 1,4,5
 430 -1 430 -1 -1 -1 c 1,6,7
 -1 142 -1 142 -1 574 c 1,0,1
EndSplineSet
EndChar

StartChar: three
Encoding: 51 51 22
Width: 574
GlyphClass: 1
Flags: W
LayerCount: 2
Fore
SplineSet
-1 574 m 1,0,1
 143 574 143 574 574 574 c 1,2,3
 574 430 574 430 574 -1 c 1,4,5
 430 -1 430 -1 -1 -1 c 1,6,7
 -1 142 -1 142 -1 574 c 1,0,1
EndSplineSet
EndChar

StartChar: four
Encoding: 52 52 23
Width: 574
GlyphClass: 1
Flags: W
LayerCount: 2
Fore
SplineSet
-1 574 m 1,0,1
 143 574 143 574 574 574 c 1,2,3
 574 430 574 430 574 -1 c 1,4,5
 430 -1 430 -1 -1 -1 c 1,6,7
 -1 142 -1 142 -1 574 c 1,0,1
EndSplineSet
EndChar

StartChar: five
Encoding: 53 53 24
Width: 574
GlyphClass: 1
Flags: W
LayerCount: 2
Fore
SplineSet
-1 574 m 1,0,1
 143 574 143 574 574 574 c 1,2,3
 574 430 574 430 574 -1 c 1,4,5
 430 -1 430 -1 -1 -1 c 1,6,7
 -1 142 -1 142 -1 574 c 1,0,1
EndSplineSet
EndChar

StartChar: six
Encoding: 54 54 25
Width: 574
GlyphClass: 1
Flags: W
LayerCount: 2
Fore
SplineSet
-1 574 m 1,0,1
 143 574 143 574 574 574 c 1,2,3
 574 430 574 430 574 -1 c 1,4,5
 430 -1 430 -1 -1 -1 c 1,6,7
 -1 142 -1 142 -1 574 c 1,0,1
EndSplineSet
EndChar

StartChar: seven
Encoding: 55 55 26
Width: 574
GlyphClass: 1
Flags: W
LayerCount: 2
Fore
SplineSet
-1 574 m 1,0,1
 143 574 143 574 574 574 c 1,2,3
 574 430 574 430 574 -1 c 1,4,5
 430 -1 430 -1 -1 -1 c 1,6,7
 -1 142 -1 142 -1 574 c 1,0,1
EndSplineSet
EndChar

StartChar: eight
Encoding: 56 56 27
Width: 574
GlyphClass: 1
Flags: W
LayerCount: 2
Fore
SplineSet
-1 574 m 1,0,1
 143 574 143 574 574 574 c 1,2,3
 574 430 574 430 574 -1 c 1,4,5
 430 -1 430 -1 -1 -1 c 1,6,7
 -1 142 -1 142 -1 574 c 1,0,1
EndSplineSet
EndChar

StartChar: nine
Encoding: 57 57 28
Width: 574
GlyphClass: 1
Flags: W
LayerCount: 2
Fore
SplineSet
-1 574 m 1,0,1
 143 574 143 574 574 574 c 1,2,3
 574 430 574 430 574 -1 c 1,4,5
 430 -1 430 -1 -1 -1 c 1,6,7
 -1 142 -1 142 -1 574 c 1,0,1
EndSplineSet
EndChar

StartChar: colon
Encoding: 58 58 29
Width: 574
GlyphClass: 1
Flags: W
LayerCount: 2
Fore
SplineSet
-1 574 m 1,0,1
 143 574 143 574 574 574 c 1,2,3
 574 430 574 430 574 -1 c 1,4,5
 430 -1 430 -1 -1 -1 c 1,6,7
 -1 142 -1 142 -1 574 c 1,0,1
EndSplineSet
EndChar

StartChar: semicolon
Encoding: 59 59 30
Width: 574
GlyphClass: 1
Flags: W
LayerCount: 2
Fore
SplineSet
-1 574 m 1,0,1
 143 574 143 574 574 574 c 1,2,3
 574 430 574 430 574 -1 c 1,4,5
 430 -1 430 -1 -1 -1 c 1,6,7
 -1 142 -1 142 -1 574 c 1,0,1
EndSplineSet
EndChar

StartChar: less
Encoding: 60 60 31
Width: 574
GlyphClass: 1
Flags: W
LayerCount: 2
Fore
SplineSet
-1 574 m 1,0,1
 143 574 143 574 574 574 c 1,2,3
 574 430 574 430 574 -1 c 1,4,5
 430 -1 430 -1 -1 -1 c 1,6,7
 -1 142 -1 142 -1 574 c 1,0,1
EndSplineSet
EndChar

StartChar: equal
Encoding: 61 61 32
Width: 574
GlyphClass: 1
Flags: W
LayerCount: 2
Fore
SplineSet
-1 574 m 1,0,1
 143 574 143 574 574 574 c 1,2,3
 574 430 574 430 574 -1 c 1,4,5
 430 -1 430 -1 -1 -1 c 1,6,7
 -1 142 -1 142 -1 574 c 1,0,1
EndSplineSet
EndChar

StartChar: greater
Encoding: 62 62 33
Width: 574
GlyphClass: 1
Flags: W
LayerCount: 2
Fore
SplineSet
-1 574 m 1,0,1
 143 574 143 574 574 574 c 1,2,3
 574 430 574 430 574 -1 c 1,4,5
 430 -1 430 -1 -1 -1 c 1,6,7
 -1 142 -1 142 -1 574 c 1,0,1
EndSplineSet
EndChar

StartChar: question
Encoding: 63 63 34
Width: 574
GlyphClass: 1
Flags: W
LayerCount: 2
Fore
SplineSet
-1 574 m 1,0,1
 143 574 143 574 574 574 c 1,2,3
 574 430 574 430 574 -1 c 1,4,5
 430 -1 430 -1 -1 -1 c 1,6,7
 -1 142 -1 142 -1 574 c 1,0,1
EndSplineSet
EndChar

StartChar: A
Encoding: 65 65 35
Width: 574
GlyphClass: 1
Flags: W
LayerCount: 2
Fore
SplineSet
-1 574 m 1,0,1
 143 574 143 574 574 574 c 1,2,3
 574 430 574 430 574 -1 c 1,4,5
 430 -1 430 -1 -1 -1 c 1,6,7
 -1 142 -1 142 -1 574 c 1,0,1
EndSplineSet
EndChar

StartChar: B
Encoding: 66 66 36
Width: 574
GlyphClass: 1
Flags: W
LayerCount: 2
Fore
SplineSet
-1 574 m 1,0,1
 143 574 143 574 574 574 c 1,2,3
 574 430 574 430 574 -1 c 1,4,5
 430 -1 430 -1 -1 -1 c 1,6,7
 -1 142 -1 142 -1 574 c 1,0,1
EndSplineSet
EndChar

StartChar: C
Encoding: 67 67 37
Width: 574
GlyphClass: 1
Flags: W
LayerCount: 2
Fore
SplineSet
-1 574 m 1,0,1
 143 574 143 574 574 574 c 1,2,3
 574 430 574 430 574 -1 c 1,4,5
 430 -1 430 -1 -1 -1 c 1,6,7
 -1 142 -1 142 -1 574 c 1,0,1
EndSplineSet
EndChar

StartChar: D
Encoding: 68 68 38
Width: 574
GlyphClass: 1
Flags: W
LayerCount: 2
Fore
SplineSet
-1 574 m 1,0,1
 143 574 143 574 574 574 c 1,2,3
 574 430 574 430 574 -1 c 1,4,5
 430 -1 430 -1 -1 -1 c 1,6,7
 -1 142 -1 142 -1 574 c 1,0,1
EndSplineSet
EndChar

StartChar: E
Encoding: 69 69 39
Width: 574
GlyphClass: 1
Flags: W
LayerCount: 2
Fore
SplineSet
-1 574 m 1,0,1
 143 574 143 574 574 574 c 1,2,3
 574 430 574 430 574 -1 c 1,4,5
 430 -1 430 -1 -1 -1 c 1,6,7
 -1 142 -1 142 -1 574 c 1,0,1
EndSplineSet
EndChar

StartChar: F
Encoding: 70 70 40
Width: 574
GlyphClass: 1
Flags: W
LayerCount: 2
Fore
SplineSet
-1 574 m 1,0,1
 143 574 143 574 574 574 c 1,2,3
 574 430 574 430 574 -1 c 1,4,5
 430 -1 430 -1 -1 -1 c 1,6,7
 -1 142 -1 142 -1 574 c 1,0,1
EndSplineSet
EndChar

StartChar: G
Encoding: 71 71 41
Width: 574
GlyphClass: 1
Flags: W
LayerCount: 2
Fore
SplineSet
-1 574 m 1,0,1
 143 574 143 574 574 574 c 1,2,3
 574 430 574 430 574 -1 c 1,4,5
 430 -1 430 -1 -1 -1 c 1,6,7
 -1 142 -1 142 -1 574 c 1,0,1
EndSplineSet
EndChar

StartChar: H
Encoding: 72 72 42
Width: 574
GlyphClass: 1
Flags: W
LayerCount: 2
Fore
SplineSet
-1 574 m 1,0,1
 143 574 143 574 574 574 c 1,2,3
 574 430 574 430 574 -1 c 1,4,5
 430 -1 430 -1 -1 -1 c 1,6,7
 -1 142 -1 142 -1 574 c 1,0,1
EndSplineSet
EndChar

StartChar: I
Encoding: 73 73 43
Width: 574
GlyphClass: 1
Flags: W
LayerCount: 2
Fore
SplineSet
-1 574 m 1,0,1
 143 574 143 574 574 574 c 1,2,3
 574 430 574 430 574 -1 c 1,4,5
 430 -1 430 -1 -1 -1 c 1,6,7
 -1 142 -1 142 -1 574 c 1,0,1
EndSplineSet
EndChar

StartChar: J
Encoding: 74 74 44
Width: 574
GlyphClass: 1
Flags: W
LayerCount: 2
Fore
SplineSet
-1 574 m 1,0,1
 143 574 143 574 574 574 c 1,2,3
 574 430 574 430 574 -1 c 1,4,5
 430 -1 430 -1 -1 -1 c 1,6,7
 -1 142 -1 142 -1 574 c 1,0,1
EndSplineSet
EndChar

StartChar: K
Encoding: 75 75 45
Width: 574
GlyphClass: 1
Flags: W
LayerCount: 2
Fore
SplineSet
-1 574 m 1,0,1
 143 574 143 574 574 574 c 1,2,3
 574 430 574 430 574 -1 c 1,4,5
 430 -1 430 -1 -1 -1 c 1,6,7
 -1 142 -1 142 -1 574 c 1,0,1
EndSplineSet
EndChar

StartChar: L
Encoding: 76 76 46
Width: 574
GlyphClass: 1
Flags: W
LayerCount: 2
Fore
SplineSet
-1 574 m 1,0,1
 143 574 143 574 574 574 c 1,2,3
 574 430 574 430 574 -1 c 1,4,5
 430 -1 430 -1 -1 -1 c 1,6,7
 -1 142 -1 142 -1 574 c 1,0,1
EndSplineSet
EndChar

StartChar: M
Encoding: 77 77 47
Width: 574
GlyphClass: 1
Flags: W
LayerCount: 2
Fore
SplineSet
-1 574 m 1,0,1
 143 574 143 574 574 574 c 1,2,3
 574 430 574 430 574 -1 c 1,4,5
 430 -1 430 -1 -1 -1 c 1,6,7
 -1 142 -1 142 -1 574 c 1,0,1
EndSplineSet
EndChar

StartChar: N
Encoding: 78 78 48
Width: 574
GlyphClass: 1
Flags: W
LayerCount: 2
Fore
SplineSet
-1 574 m 1,0,1
 143 574 143 574 574 574 c 1,2,3
 574 430 574 430 574 -1 c 1,4,5
 430 -1 430 -1 -1 -1 c 1,6,7
 -1 142 -1 142 -1 574 c 1,0,1
EndSplineSet
EndChar

StartChar: O
Encoding: 79 79 49
Width: 574
GlyphClass: 1
Flags: W
LayerCount: 2
Fore
SplineSet
-1 574 m 1,0,1
 143 574 143 574 574 574 c 1,2,3
 574 430 574 430 574 -1 c 1,4,5
 430 -1 430 -1 -1 -1 c 1,6,7
 -1 142 -1 142 -1 574 c 1,0,1
EndSplineSet
EndChar

StartChar: P
Encoding: 80 80 50
Width: 574
GlyphClass: 1
Flags: W
LayerCount: 2
Fore
SplineSet
-1 574 m 1,0,1
 143 574 143 574 574 574 c 1,2,3
 574 430 574 430 574 -1 c 1,4,5
 430 -1 430 -1 -1 -1 c 1,6,7
 -1 142 -1 142 -1 574 c 1,0,1
EndSplineSet
EndChar

StartChar: Q
Encoding: 81 81 51
Width: 574
GlyphClass: 1
Flags: W
LayerCount: 2
Fore
SplineSet
-1 574 m 1,0,1
 143 574 143 574 574 574 c 1,2,3
 574 430 574 430 574 -1 c 1,4,5
 430 -1 430 -1 -1 -1 c 1,6,7
 -1 142 -1 142 -1 574 c 1,0,1
EndSplineSet
EndChar

StartChar: R
Encoding: 82 82 52
Width: 574
GlyphClass: 1
Flags: W
LayerCount: 2
Fore
SplineSet
-1 574 m 1,0,1
 143 574 143 574 574 574 c 1,2,3
 574 430 574 430 574 -1 c 1,4,5
 430 -1 430 -1 -1 -1 c 1,6,7
 -1 142 -1 142 -1 574 c 1,0,1
EndSplineSet
EndChar

StartChar: S
Encoding: 83 83 53
Width: 574
GlyphClass: 1
Flags: W
LayerCount: 2
Fore
SplineSet
-1 574 m 1,0,1
 143 574 143 574 574 574 c 1,2,3
 574 430 574 430 574 -1 c 1,4,5
 430 -1 430 -1 -1 -1 c 1,6,7
 -1 142 -1 142 -1 574 c 1,0,1
EndSplineSet
EndChar

StartChar: T
Encoding: 84 84 54
Width: 574
GlyphClass: 1
Flags: W
LayerCount: 2
Fore
SplineSet
-1 574 m 1,0,1
 143 574 143 574 574 574 c 1,2,3
 574 430 574 430 574 -1 c 1,4,5
 430 -1 430 -1 -1 -1 c 1,6,7
 -1 142 -1 142 -1 574 c 1,0,1
EndSplineSet
EndChar

StartChar: U
Encoding: 85 85 55
Width: 574
GlyphClass: 1
Flags: W
LayerCount: 2
Fore
SplineSet
-1 574 m 1,0,1
 143 574 143 574 574 574 c 1,2,3
 574 430 574 430 574 -1 c 1,4,5
 430 -1 430 -1 -1 -1 c 1,6,7
 -1 142 -1 142 -1 574 c 1,0,1
EndSplineSet
EndChar

StartChar: V
Encoding: 86 86 56
Width: 574
GlyphClass: 1
Flags: W
LayerCount: 2
Fore
SplineSet
-1 574 m 1,0,1
 143 574 143 574 574 574 c 1,2,3
 574 430 574 430 574 -1 c 1,4,5
 430 -1 430 -1 -1 -1 c 1,6,7
 -1 142 -1 142 -1 574 c 1,0,1
EndSplineSet
EndChar

StartChar: W
Encoding: 87 87 57
Width: 574
GlyphClass: 1
Flags: W
LayerCount: 2
Fore
SplineSet
-1 574 m 1,0,1
 143 574 143 574 574 574 c 1,2,3
 574 430 574 430 574 -1 c 1,4,5
 430 -1 430 -1 -1 -1 c 1,6,7
 -1 142 -1 142 -1 574 c 1,0,1
EndSplineSet
EndChar

StartChar: X
Encoding: 88 88 58
Width: 574
GlyphClass: 1
Flags: W
LayerCount: 2
Fore
SplineSet
-1 574 m 1,0,1
 143 574 143 574 574 574 c 1,2,3
 574 430 574 430 574 -1 c 1,4,5
 430 -1 430 -1 -1 -1 c 1,6,7
 -1 142 -1 142 -1 574 c 1,0,1
EndSplineSet
EndChar

StartChar: Y
Encoding: 89 89 59
Width: 574
GlyphClass: 1
Flags: W
LayerCount: 2
Fore
SplineSet
-1 574 m 1,0,1
 143 574 143 574 574 574 c 1,2,3
 574 430 574 430 574 -1 c 1,4,5
 430 -1 430 -1 -1 -1 c 1,6,7
 -1 142 -1 142 -1 574 c 1,0,1
EndSplineSet
EndChar

StartChar: Z
Encoding: 90 90 60
Width: 574
GlyphClass: 1
Flags: W
LayerCount: 2
Fore
SplineSet
-1 574 m 1,0,1
 143 574 143 574 574 574 c 1,2,3
 574 430 574 430 574 -1 c 1,4,5
 430 -1 430 -1 -1 -1 c 1,6,7
 -1 142 -1 142 -1 574 c 1,0,1
EndSplineSet
EndChar

StartChar: a
Encoding: 97 97 61
Width: 574
GlyphClass: 1
Flags: W
LayerCount: 2
Fore
SplineSet
-1 574 m 1,0,1
 143 574 143 574 574 574 c 1,2,3
 574 430 574 430 574 -1 c 1,4,5
 430 -1 430 -1 -1 -1 c 1,6,7
 -1 142 -1 142 -1 574 c 1,0,1
EndSplineSet
EndChar

StartChar: b
Encoding: 98 98 62
Width: 574
GlyphClass: 1
Flags: W
LayerCount: 2
Fore
SplineSet
-1 574 m 1,0,1
 143 574 143 574 574 574 c 1,2,3
 574 430 574 430 574 -1 c 1,4,5
 430 -1 430 -1 -1 -1 c 1,6,7
 -1 142 -1 142 -1 574 c 1,0,1
EndSplineSet
EndChar

StartChar: c
Encoding: 99 99 63
Width: 574
GlyphClass: 1
Flags: W
LayerCount: 2
Fore
SplineSet
-1 574 m 1,0,1
 143 574 143 574 574 574 c 1,2,3
 574 430 574 430 574 -1 c 1,4,5
 430 -1 430 -1 -1 -1 c 1,6,7
 -1 142 -1 142 -1 574 c 1,0,1
EndSplineSet
EndChar

StartChar: d
Encoding: 100 100 64
Width: 574
GlyphClass: 1
Flags: W
LayerCount: 2
Fore
SplineSet
-1 574 m 1,0,1
 143 574 143 574 574 574 c 1,2,3
 574 430 574 430 574 -1 c 1,4,5
 430 -1 430 -1 -1 -1 c 1,6,7
 -1 142 -1 142 -1 574 c 1,0,1
EndSplineSet
EndChar

StartChar: e
Encoding: 101 101 65
Width: 574
GlyphClass: 1
Flags: W
LayerCount: 2
Fore
SplineSet
-1 574 m 1,0,1
 143 574 143 574 574 574 c 1,2,3
 574 430 574 430 574 -1 c 1,4,5
 430 -1 430 -1 -1 -1 c 1,6,7
 -1 142 -1 142 -1 574 c 1,0,1
EndSplineSet
EndChar

StartChar: f
Encoding: 102 102 66
Width: 574
GlyphClass: 1
Flags: W
LayerCount: 2
Fore
SplineSet
-1 574 m 1,0,1
 143 574 143 574 574 574 c 1,2,3
 574 430 574 430 574 -1 c 1,4,5
 430 -1 430 -1 -1 -1 c 1,6,7
 -1 142 -1 142 -1 574 c 1,0,1
EndSplineSet
EndChar

StartChar: g
Encoding: 103 103 67
Width: 574
GlyphClass: 1
Flags: W
LayerCount: 2
Fore
SplineSet
-1 574 m 1,0,1
 143 574 143 574 574 574 c 1,2,3
 574 430 574 430 574 -1 c 1,4,5
 430 -1 430 -1 -1 -1 c 1,6,7
 -1 142 -1 142 -1 574 c 1,0,1
EndSplineSet
EndChar

StartChar: h
Encoding: 104 104 68
Width: 574
GlyphClass: 1
Flags: W
LayerCount: 2
Fore
SplineSet
-1 574 m 1,0,1
 143 574 143 574 574 574 c 1,2,3
 574 430 574 430 574 -1 c 1,4,5
 430 -1 430 -1 -1 -1 c 1,6,7
 -1 142 -1 142 -1 574 c 1,0,1
EndSplineSet
EndChar

StartChar: i
Encoding: 105 105 69
Width: 574
GlyphClass: 1
Flags: W
LayerCount: 2
Fore
SplineSet
-1 574 m 1,0,1
 143 574 143 574 574 574 c 1,2,3
 574 430 574 430 574 -1 c 1,4,5
 430 -1 430 -1 -1 -1 c 1,6,7
 -1 142 -1 142 -1 574 c 1,0,1
EndSplineSet
EndChar

StartChar: j
Encoding: 106 106 70
Width: 574
GlyphClass: 1
Flags: W
LayerCount: 2
Fore
SplineSet
-1 574 m 1,0,1
 143 574 143 574 574 574 c 1,2,3
 574 430 574 430 574 -1 c 1,4,5
 430 -1 430 -1 -1 -1 c 1,6,7
 -1 142 -1 142 -1 574 c 1,0,1
EndSplineSet
EndChar

StartChar: k
Encoding: 107 107 71
Width: 574
GlyphClass: 1
Flags: W
LayerCount: 2
Fore
SplineSet
-1 574 m 1,0,1
 143 574 143 574 574 574 c 1,2,3
 574 430 574 430 574 -1 c 1,4,5
 430 -1 430 -1 -1 -1 c 1,6,7
 -1 142 -1 142 -1 574 c 1,0,1
EndSplineSet
EndChar

StartChar: l
Encoding: 108 108 72
Width: 574
GlyphClass: 1
Flags: W
LayerCount: 2
Fore
SplineSet
-1 574 m 1,0,1
 143 574 143 574 574 574 c 1,2,3
 574 430 574 430 574 -1 c 1,4,5
 430 -1 430 -1 -1 -1 c 1,6,7
 -1 142 -1 142 -1 574 c 1,0,1
EndSplineSet
EndChar

StartChar: m
Encoding: 109 109 73
Width: 574
GlyphClass: 1
Flags: W
LayerCount: 2
Fore
SplineSet
-1 574 m 1,0,1
 143 574 143 574 574 574 c 1,2,3
 574 430 574 430 574 -1 c 1,4,5
 430 -1 430 -1 -1 -1 c 1,6,7
 -1 142 -1 142 -1 574 c 1,0,1
EndSplineSet
EndChar

StartChar: n
Encoding: 110 110 74
Width: 574
GlyphClass: 1
Flags: W
LayerCount: 2
Fore
SplineSet
-1 574 m 1,0,1
 143 574 143 574 574 574 c 1,2,3
 574 430 574 430 574 -1 c 1,4,5
 430 -1 430 -1 -1 -1 c 1,6,7
 -1 142 -1 142 -1 574 c 1,0,1
EndSplineSet
EndChar

StartChar: o
Encoding: 111 111 75
Width: 574
GlyphClass: 1
Flags: W
LayerCount: 2
Fore
SplineSet
-1 574 m 1,0,1
 143 574 143 574 574 574 c 1,2,3
 574 430 574 430 574 -1 c 1,4,5
 430 -1 430 -1 -1 -1 c 1,6,7
 -1 142 -1 142 -1 574 c 1,0,1
EndSplineSet
EndChar

StartChar: p
Encoding: 112 112 76
Width: 574
GlyphClass: 1
Flags: W
LayerCount: 2
Fore
SplineSet
-1 574 m 1,0,1
 143 574 143 574 574 574 c 1,2,3
 574 430 574 430 574 -1 c 1,4,5
 430 -1 430 -1 -1 -1 c 1,6,7
 -1 142 -1 142 -1 574 c 1,0,1
EndSplineSet
EndChar

StartChar: q
Encoding: 113 113 77
Width: 574
GlyphClass: 1
Flags: W
LayerCount: 2
Fore
SplineSet
-1 574 m 1,0,1
 143 574 143 574 574 574 c 1,2,3
 574 430 574 430 574 -1 c 1,4,5
 430 -1 430 -1 -1 -1 c 1,6,7
 -1 142 -1 142 -1 574 c 1,0,1
EndSplineSet
EndChar

StartChar: r
Encoding: 114 114 78
Width: 574
GlyphClass: 1
Flags: W
LayerCount: 2
Fore
SplineSet
-1 574 m 1,0,1
 143 574 143 574 574 574 c 1,2,3
 574 430 574 430 574 -1 c 1,4,5
 430 -1 430 -1 -1 -1 c 1,6,7
 -1 142 -1 142 -1 574 c 1,0,1
EndSplineSet
EndChar

StartChar: s
Encoding: 115 115 79
Width: 574
GlyphClass: 1
Flags: W
LayerCount: 2
Fore
SplineSet
-1 574 m 1,0,1
 143 574 143 574 574 574 c 1,2,3
 574 430 574 430 574 -1 c 1,4,5
 430 -1 430 -1 -1 -1 c 1,6,7
 -1 142 -1 142 -1 574 c 1,0,1
EndSplineSet
EndChar

StartChar: t
Encoding: 116 116 80
Width: 574
GlyphClass: 1
Flags: W
LayerCount: 2
Fore
SplineSet
-1 574 m 1,0,1
 143 574 143 574 574 574 c 1,2,3
 574 430 574 430 574 -1 c 1,4,5
 430 -1 430 -1 -1 -1 c 1,6,7
 -1 142 -1 142 -1 574 c 1,0,1
EndSplineSet
EndChar

StartChar: u
Encoding: 117 117 81
Width: 574
GlyphClass: 1
Flags: W
LayerCount: 2
Fore
SplineSet
-1 574 m 1,0,1
 143 574 143 574 574 574 c 1,2,3
 574 430 574 430 574 -1 c 1,4,5
 430 -1 430 -1 -1 -1 c 1,6,7
 -1 142 -1 142 -1 574 c 1,0,1
EndSplineSet
EndChar

StartChar: v
Encoding: 118 118 82
Width: 574
GlyphClass: 1
Flags: W
LayerCount: 2
Fore
SplineSet
-1 574 m 1,0,1
 143 574 143 574 574 574 c 1,2,3
 574 430 574 430 574 -1 c 1,4,5
 430 -1 430 -1 -1 -1 c 1,6,7
 -1 142 -1 142 -1 574 c 1,0,1
EndSplineSet
EndChar

StartChar: w
Encoding: 119 119 83
Width: 574
GlyphClass: 1
Flags: W
LayerCount: 2
Fore
SplineSet
-1 574 m 1,0,1
 143 574 143 574 574 574 c 1,2,3
 574 430 574 430 574 -1 c 1,4,5
 430 -1 430 -1 -1 -1 c 1,6,7
 -1 142 -1 142 -1 574 c 1,0,1
EndSplineSet
EndChar

StartChar: x
Encoding: 120 120 84
Width: 574
GlyphClass: 1
Flags: W
LayerCount: 2
Fore
SplineSet
-1 574 m 1,0,1
 143 574 143 574 574 574 c 1,2,3
 574 430 574 430 574 -1 c 1,4,5
 430 -1 430 -1 -1 -1 c 1,6,7
 -1 142 -1 142 -1 574 c 1,0,1
EndSplineSet
EndChar

StartChar: y
Encoding: 121 121 85
Width: 574
GlyphClass: 1
Flags: W
LayerCount: 2
Fore
SplineSet
-1 574 m 1,0,1
 143 574 143 574 574 574 c 1,2,3
 574 430 574 430 574 -1 c 1,4,5
 430 -1 430 -1 -1 -1 c 1,6,7
 -1 142 -1 142 -1 574 c 1,0,1
EndSplineSet
EndChar

StartChar: z
Encoding: 122 122 86
Width: 574
GlyphClass: 1
Flags: W
LayerCount: 2
Fore
SplineSet
-1 574 m 1,0,1
 143 574 143 574 574 574 c 1,2,3
 574 430 574 430 574 -1 c 1,4,5
 430 -1 430 -1 -1 -1 c 1,6,7
 -1 142 -1 142 -1 574 c 1,0,1
EndSplineSet
EndChar

StartChar: uni2010
Encoding: 8208 8208 87
Width: 574
GlyphClass: 1
Flags: W
LayerCount: 2
Fore
SplineSet
-1 574 m 1,0,1
 143 574 143 574 574 574 c 1,2,3
 574 430 574 430 574 -1 c 1,4,5
 430 -1 430 -1 -1 -1 c 1,6,7
 -1 142 -1 142 -1 574 c 1,0,1
EndSplineSet
EndChar

StartChar: uni2011
Encoding: 8209 8209 88
Width: 574
GlyphClass: 1
Flags: W
LayerCount: 2
Fore
SplineSet
-1 574 m 1,0,1
 143 574 143 574 574 574 c 1,2,3
 574 430 574 430 574 -1 c 1,4,5
 430 -1 430 -1 -1 -1 c 1,6,7
 -1 142 -1 142 -1 574 c 1,0,1
EndSplineSet
EndChar

StartChar: uni2012
Encoding: 8210 8210 89
Width: 574
GlyphClass: 1
Flags: W
LayerCount: 2
Fore
SplineSet
-1 574 m 1,0,1
 143 574 143 574 574 574 c 1,2,3
 574 430 574 430 574 -1 c 1,4,5
 430 -1 430 -1 -1 -1 c 1,6,7
 -1 142 -1 142 -1 574 c 1,0,1
EndSplineSet
EndChar

StartChar: endash
Encoding: 8211 8211 90
Width: 574
GlyphClass: 1
Flags: W
LayerCount: 2
Fore
SplineSet
-1 574 m 1,0,1
 143 574 143 574 574 574 c 1,2,3
 574 430 574 430 574 -1 c 1,4,5
 430 -1 430 -1 -1 -1 c 1,6,7
 -1 142 -1 142 -1 574 c 1,0,1
EndSplineSet
EndChar

StartChar: emdash
Encoding: 8212 8212 91
Width: 574
GlyphClass: 1
Flags: W
LayerCount: 2
Fore
SplineSet
-1 574 m 1,0,1
 143 574 143 574 574 574 c 1,2,3
 574 430 574 430 574 -1 c 1,4,5
 430 -1 430 -1 -1 -1 c 1,6,7
 -1 142 -1 142 -1 574 c 1,0,1
EndSplineSet
EndChar

StartChar: quoteright
Encoding: 8217 8217 92
Width: 574
GlyphClass: 1
Flags: W
LayerCount: 2
Fore
SplineSet
-1 574 m 1,0,1
 143 574 143 574 574 574 c 1,2,3
 574 430 574 430 574 -1 c 1,4,5
 430 -1 430 -1 -1 -1 c 1,6,7
 -1 142 -1 142 -1 574 c 1,0,1
EndSplineSet
EndChar

StartChar: quotedblleft
Encoding: 8220 8220 93
Width: 574
GlyphClass: 1
Flags: W
LayerCount: 2
Fore
SplineSet
-1 574 m 1,0,1
 143 574 143 574 574 574 c 1,2,3
 574 430 574 430 574 -1 c 1,4,5
 430 -1 430 -1 -1 -1 c 1,6,7
 -1 142 -1 142 -1 574 c 1,0,1
EndSplineSet
EndChar

StartChar: quotedblright
Encoding: 8221 8221 94
Width: 574
GlyphClass: 1
Flags: W
LayerCount: 2
Fore
SplineSet
-1 574 m 1,0,1
 143 574 143 574 574 574 c 1,2,3
 574 430 574 430 574 -1 c 1,4,5
 430 -1 430 -1 -1 -1 c 1,6,7
 -1 142 -1 142 -1 574 c 1,0,1
EndSplineSet
EndChar

StartChar: at
Encoding: 64 64 95
Width: 574
Flags: W
LayerCount: 2
Fore
SplineSet
-1 574 m 1,0,1
 143 574 143 574 574 574 c 1,2,3
 574 430 574 430 574 -1 c 1,4,5
 430 -1 430 -1 -1 -1 c 1,6,7
 -1 142 -1 142 -1 574 c 1,0,1
EndSplineSet
EndChar

StartChar: grave
Encoding: 96 96 96
Width: 574
Flags: W
LayerCount: 2
Fore
SplineSet
-1 574 m 1,0,1
 143 574 143 574 574 574 c 1,2,3
 574 430 574 430 574 -1 c 1,4,5
 430 -1 430 -1 -1 -1 c 1,6,7
 -1 142 -1 142 -1 574 c 1,0,1
EndSplineSet
EndChar

StartChar: bracketleft
Encoding: 91 91 97
Width: 574
Flags: W
LayerCount: 2
Fore
SplineSet
-1 574 m 1,0,1
 143 574 143 574 574 574 c 1,2,3
 574 430 574 430 574 -1 c 1,4,5
 430 -1 430 -1 -1 -1 c 1,6,7
 -1 142 -1 142 -1 574 c 1,0,1
EndSplineSet
EndChar

StartChar: backslash
Encoding: 92 92 98
Width: 574
Flags: W
LayerCount: 2
Fore
SplineSet
-1 574 m 1,0,1
 143 574 143 574 574 574 c 1,2,3
 574 430 574 430 574 -1 c 1,4,5
 430 -1 430 -1 -1 -1 c 1,6,7
 -1 142 -1 142 -1 574 c 1,0,1
EndSplineSet
EndChar

StartChar: bracketright
Encoding: 93 93 99
Width: 574
Flags: W
LayerCount: 2
Fore
SplineSet
-1 574 m 1,0,1
 143 574 143 574 574 574 c 1,2,3
 574 430 574 430 574 -1 c 1,4,5
 430 -1 430 -1 -1 -1 c 1,6,7
 -1 142 -1 142 -1 574 c 1,0,1
EndSplineSet
EndChar

StartChar: asciicircum
Encoding: 94 94 100
Width: 574
Flags: W
LayerCount: 2
Fore
SplineSet
-1 574 m 1,0,1
 143 574 143 574 574 574 c 1,2,3
 574 430 574 430 574 -1 c 1,4,5
 430 -1 430 -1 -1 -1 c 1,6,7
 -1 142 -1 142 -1 574 c 1,0,1
EndSplineSet
EndChar

StartChar: underscore
Encoding: 95 95 101
Width: 574
Flags: W
LayerCount: 2
Fore
SplineSet
-1 574 m 1,0,1
 143 574 143 574 574 574 c 1,2,3
 574 430 574 430 574 -1 c 1,4,5
 430 -1 430 -1 -1 -1 c 1,6,7
 -1 142 -1 142 -1 574 c 1,0,1
EndSplineSet
EndChar

StartChar: braceleft
Encoding: 123 123 102
Width: 574
Flags: W
LayerCount: 2
Fore
SplineSet
-1 574 m 1,0,1
 143 574 143 574 574 574 c 1,2,3
 574 430 574 430 574 -1 c 1,4,5
 430 -1 430 -1 -1 -1 c 1,6,7
 -1 142 -1 142 -1 574 c 1,0,1
EndSplineSet
EndChar

StartChar: bar
Encoding: 124 124 103
Width: 574
Flags: W
LayerCount: 2
Fore
SplineSet
-1 574 m 1,0,1
 143 574 143 574 574 574 c 1,2,3
 574 430 574 430 574 -1 c 1,4,5
 430 -1 430 -1 -1 -1 c 1,6,7
 -1 142 -1 142 -1 574 c 1,0,1
EndSplineSet
EndChar

StartChar: braceright
Encoding: 125 125 104
Width: 574
Flags: W
LayerCount: 2
Fore
SplineSet
-1 574 m 1,0,1
 143 574 143 574 574 574 c 1,2,3
 574 430 574 430 574 -1 c 1,4,5
 430 -1 430 -1 -1 -1 c 1,6,7
 -1 142 -1 142 -1 574 c 1,0,1
EndSplineSet
EndChar

StartChar: asciitilde
Encoding: 126 126 105
Width: 574
Flags: W
LayerCount: 2
Fore
SplineSet
-1 574 m 1,0,1
 143 574 143 574 574 574 c 1,2,3
 574 430 574 430 574 -1 c 1,4,5
 430 -1 430 -1 -1 -1 c 1,6,7
 -1 142 -1 142 -1 574 c 1,0,1
EndSplineSet
EndChar

StartChar: uni007F
Encoding: 127 127 106
Width: 574
Flags: W
LayerCount: 2
Fore
SplineSet
-1 574 m 1,0,1
 143 574 143 574 574 574 c 1,2,3
 574 430 574 430 574 -1 c 1,4,5
 430 -1 430 -1 -1 -1 c 1,6,7
 -1 142 -1 142 -1 574 c 1,0,1
EndSplineSet
EndChar

StartChar: uni00A0
Encoding: 160 160 107
Width: 574
Flags: W
LayerCount: 2
Fore
SplineSet
-1 574 m 1,0,1
 143 574 143 574 574 574 c 1,2,3
 574 430 574 430 574 -1 c 1,4,5
 430 -1 430 -1 -1 -1 c 1,6,7
 -1 142 -1 142 -1 574 c 1,0,1
EndSplineSet
EndChar

StartChar: registered
Encoding: 174 174 108
Width: 574
Flags: W
LayerCount: 2
Fore
SplineSet
-1 574 m 1,0,1
 143 574 143 574 574 574 c 1,2,3
 574 430 574 430 574 -1 c 1,4,5
 430 -1 430 -1 -1 -1 c 1,6,7
 -1 142 -1 142 -1 574 c 1,0,1
EndSplineSet
EndChar

StartChar: uni00AD
Encoding: 173 173 109
Width: 574
Flags: W
LayerCount: 2
Fore
SplineSet
-1 574 m 1,0,1
 143 574 143 574 574 574 c 1,2,3
 574 430 574 430 574 -1 c 1,4,5
 430 -1 430 -1 -1 -1 c 1,6,7
 -1 142 -1 142 -1 574 c 1,0,1
EndSplineSet
EndChar

StartChar: sterling
Encoding: 163 163 110
Width: 574
Flags: W
LayerCount: 2
Fore
SplineSet
-1 574 m 1,0,1
 143 574 143 574 574 574 c 1,2,3
 574 430 574 430 574 -1 c 1,4,5
 430 -1 430 -1 -1 -1 c 1,6,7
 -1 142 -1 142 -1 574 c 1,0,1
EndSplineSet
EndChar

StartChar: cent
Encoding: 162 162 111
Width: 574
Flags: W
LayerCount: 2
Fore
SplineSet
-1 574 m 1,0,1
 143 574 143 574 574 574 c 1,2,3
 574 430 574 430 574 -1 c 1,4,5
 430 -1 430 -1 -1 -1 c 1,6,7
 -1 142 -1 142 -1 574 c 1,0,1
EndSplineSet
EndChar

StartChar: exclamdown
Encoding: 161 161 112
Width: 574
Flags: W
LayerCount: 2
Fore
SplineSet
-1 574 m 1,0,1
 143 574 143 574 574 574 c 1,2,3
 574 430 574 430 574 -1 c 1,4,5
 430 -1 430 -1 -1 -1 c 1,6,7
 -1 142 -1 142 -1 574 c 1,0,1
EndSplineSet
EndChar

StartChar: currency
Encoding: 164 164 113
Width: 574
Flags: W
LayerCount: 2
Fore
SplineSet
-1 574 m 1,0,1
 143 574 143 574 574 574 c 1,2,3
 574 430 574 430 574 -1 c 1,4,5
 430 -1 430 -1 -1 -1 c 1,6,7
 -1 142 -1 142 -1 574 c 1,0,1
EndSplineSet
EndChar

StartChar: yen
Encoding: 165 165 114
Width: 574
Flags: W
LayerCount: 2
Fore
SplineSet
-1 574 m 1,0,1
 143 574 143 574 574 574 c 1,2,3
 574 430 574 430 574 -1 c 1,4,5
 430 -1 430 -1 -1 -1 c 1,6,7
 -1 142 -1 142 -1 574 c 1,0,1
EndSplineSet
EndChar

StartChar: brokenbar
Encoding: 166 166 115
Width: 574
Flags: W
LayerCount: 2
Fore
SplineSet
-1 574 m 1,0,1
 143 574 143 574 574 574 c 1,2,3
 574 430 574 430 574 -1 c 1,4,5
 430 -1 430 -1 -1 -1 c 1,6,7
 -1 142 -1 142 -1 574 c 1,0,1
EndSplineSet
EndChar

StartChar: dieresis
Encoding: 168 168 116
Width: 574
Flags: W
LayerCount: 2
Fore
SplineSet
-1 574 m 1,0,1
 143 574 143 574 574 574 c 1,2,3
 574 430 574 430 574 -1 c 1,4,5
 430 -1 430 -1 -1 -1 c 1,6,7
 -1 142 -1 142 -1 574 c 1,0,1
EndSplineSet
EndChar

StartChar: section
Encoding: 167 167 117
Width: 574
Flags: W
LayerCount: 2
Fore
SplineSet
-1 574 m 1,0,1
 143 574 143 574 574 574 c 1,2,3
 574 430 574 430 574 -1 c 1,4,5
 430 -1 430 -1 -1 -1 c 1,6,7
 -1 142 -1 142 -1 574 c 1,0,1
EndSplineSet
EndChar

StartChar: copyright
Encoding: 169 169 118
Width: 574
Flags: W
LayerCount: 2
Fore
SplineSet
-1 574 m 1,0,1
 143 574 143 574 574 574 c 1,2,3
 574 430 574 430 574 -1 c 1,4,5
 430 -1 430 -1 -1 -1 c 1,6,7
 -1 142 -1 142 -1 574 c 1,0,1
EndSplineSet
EndChar

StartChar: ordfeminine
Encoding: 170 170 119
Width: 574
Flags: W
LayerCount: 2
Fore
SplineSet
-1 574 m 1,0,1
 143 574 143 574 574 574 c 1,2,3
 574 430 574 430 574 -1 c 1,4,5
 430 -1 430 -1 -1 -1 c 1,6,7
 -1 142 -1 142 -1 574 c 1,0,1
EndSplineSet
EndChar

StartChar: guillemotleft
Encoding: 171 171 120
Width: 574
Flags: W
LayerCount: 2
Fore
SplineSet
-1 574 m 1,0,1
 143 574 143 574 574 574 c 1,2,3
 574 430 574 430 574 -1 c 1,4,5
 430 -1 430 -1 -1 -1 c 1,6,7
 -1 142 -1 142 -1 574 c 1,0,1
EndSplineSet
EndChar

StartChar: logicalnot
Encoding: 172 172 121
Width: 574
Flags: W
LayerCount: 2
Fore
SplineSet
-1 574 m 1,0,1
 143 574 143 574 574 574 c 1,2,3
 574 430 574 430 574 -1 c 1,4,5
 430 -1 430 -1 -1 -1 c 1,6,7
 -1 142 -1 142 -1 574 c 1,0,1
EndSplineSet
EndChar

StartChar: macron
Encoding: 175 175 122
Width: 574
Flags: W
LayerCount: 2
Fore
SplineSet
-1 574 m 1,0,1
 143 574 143 574 574 574 c 1,2,3
 574 430 574 430 574 -1 c 1,4,5
 430 -1 430 -1 -1 -1 c 1,6,7
 -1 142 -1 142 -1 574 c 1,0,1
EndSplineSet
EndChar

StartChar: degree
Encoding: 176 176 123
Width: 574
Flags: W
LayerCount: 2
Fore
SplineSet
-1 574 m 1,0,1
 143 574 143 574 574 574 c 1,2,3
 574 430 574 430 574 -1 c 1,4,5
 430 -1 430 -1 -1 -1 c 1,6,7
 -1 142 -1 142 -1 574 c 1,0,1
EndSplineSet
EndChar

StartChar: uni00B2
Encoding: 178 178 124
Width: 574
Flags: W
LayerCount: 2
Fore
SplineSet
-1 574 m 1,0,1
 143 574 143 574 574 574 c 1,2,3
 574 430 574 430 574 -1 c 1,4,5
 430 -1 430 -1 -1 -1 c 1,6,7
 -1 142 -1 142 -1 574 c 1,0,1
EndSplineSet
EndChar

StartChar: plusminus
Encoding: 177 177 125
Width: 574
Flags: W
LayerCount: 2
Fore
SplineSet
-1 574 m 1,0,1
 143 574 143 574 574 574 c 1,2,3
 574 430 574 430 574 -1 c 1,4,5
 430 -1 430 -1 -1 -1 c 1,6,7
 -1 142 -1 142 -1 574 c 1,0,1
EndSplineSet
EndChar

StartChar: uni00B3
Encoding: 179 179 126
Width: 574
Flags: W
LayerCount: 2
Fore
SplineSet
-1 574 m 1,0,1
 143 574 143 574 574 574 c 1,2,3
 574 430 574 430 574 -1 c 1,4,5
 430 -1 430 -1 -1 -1 c 1,6,7
 -1 142 -1 142 -1 574 c 1,0,1
EndSplineSet
EndChar

StartChar: acute
Encoding: 180 180 127
Width: 574
Flags: W
LayerCount: 2
Fore
SplineSet
-1 574 m 1,0,1
 143 574 143 574 574 574 c 1,2,3
 574 430 574 430 574 -1 c 1,4,5
 430 -1 430 -1 -1 -1 c 1,6,7
 -1 142 -1 142 -1 574 c 1,0,1
EndSplineSet
EndChar

StartChar: mu
Encoding: 181 181 128
Width: 574
Flags: W
LayerCount: 2
Fore
SplineSet
-1 574 m 1,0,1
 143 574 143 574 574 574 c 1,2,3
 574 430 574 430 574 -1 c 1,4,5
 430 -1 430 -1 -1 -1 c 1,6,7
 -1 142 -1 142 -1 574 c 1,0,1
EndSplineSet
EndChar

StartChar: paragraph
Encoding: 182 182 129
Width: 574
Flags: W
LayerCount: 2
Fore
SplineSet
-1 574 m 1,0,1
 143 574 143 574 574 574 c 1,2,3
 574 430 574 430 574 -1 c 1,4,5
 430 -1 430 -1 -1 -1 c 1,6,7
 -1 142 -1 142 -1 574 c 1,0,1
EndSplineSet
EndChar

StartChar: periodcentered
Encoding: 183 183 130
Width: 574
Flags: W
LayerCount: 2
Fore
SplineSet
-1 574 m 1,0,1
 143 574 143 574 574 574 c 1,2,3
 574 430 574 430 574 -1 c 1,4,5
 430 -1 430 -1 -1 -1 c 1,6,7
 -1 142 -1 142 -1 574 c 1,0,1
EndSplineSet
EndChar

StartChar: cedilla
Encoding: 184 184 131
Width: 574
Flags: W
LayerCount: 2
Fore
SplineSet
-1 574 m 1,0,1
 143 574 143 574 574 574 c 1,2,3
 574 430 574 430 574 -1 c 1,4,5
 430 -1 430 -1 -1 -1 c 1,6,7
 -1 142 -1 142 -1 574 c 1,0,1
EndSplineSet
EndChar

StartChar: uni00B9
Encoding: 185 185 132
Width: 574
Flags: W
LayerCount: 2
Fore
SplineSet
-1 574 m 1,0,1
 143 574 143 574 574 574 c 1,2,3
 574 430 574 430 574 -1 c 1,4,5
 430 -1 430 -1 -1 -1 c 1,6,7
 -1 142 -1 142 -1 574 c 1,0,1
EndSplineSet
EndChar

StartChar: ordmasculine
Encoding: 186 186 133
Width: 574
Flags: W
LayerCount: 2
Fore
SplineSet
-1 574 m 1,0,1
 143 574 143 574 574 574 c 1,2,3
 574 430 574 430 574 -1 c 1,4,5
 430 -1 430 -1 -1 -1 c 1,6,7
 -1 142 -1 142 -1 574 c 1,0,1
EndSplineSet
EndChar

StartChar: guillemotright
Encoding: 187 187 134
Width: 574
Flags: W
LayerCount: 2
Fore
SplineSet
-1 574 m 1,0,1
 143 574 143 574 574 574 c 1,2,3
 574 430 574 430 574 -1 c 1,4,5
 430 -1 430 -1 -1 -1 c 1,6,7
 -1 142 -1 142 -1 574 c 1,0,1
EndSplineSet
EndChar

StartChar: onequarter
Encoding: 188 188 135
Width: 574
Flags: W
LayerCount: 2
Fore
SplineSet
-1 574 m 1,0,1
 143 574 143 574 574 574 c 1,2,3
 574 430 574 430 574 -1 c 1,4,5
 430 -1 430 -1 -1 -1 c 1,6,7
 -1 142 -1 142 -1 574 c 1,0,1
EndSplineSet
EndChar

StartChar: onehalf
Encoding: 189 189 136
Width: 574
Flags: W
LayerCount: 2
Fore
SplineSet
-1 574 m 1,0,1
 143 574 143 574 574 574 c 1,2,3
 574 430 574 430 574 -1 c 1,4,5
 430 -1 430 -1 -1 -1 c 1,6,7
 -1 142 -1 142 -1 574 c 1,0,1
EndSplineSet
EndChar

StartChar: threequarters
Encoding: 190 190 137
Width: 574
Flags: W
LayerCount: 2
Fore
SplineSet
-1 574 m 1,0,1
 143 574 143 574 574 574 c 1,2,3
 574 430 574 430 574 -1 c 1,4,5
 430 -1 430 -1 -1 -1 c 1,6,7
 -1 142 -1 142 -1 574 c 1,0,1
EndSplineSet
EndChar

StartChar: questiondown
Encoding: 191 191 138
Width: 574
Flags: W
LayerCount: 2
Fore
SplineSet
-1 574 m 1,0,1
 143 574 143 574 574 574 c 1,2,3
 574 430 574 430 574 -1 c 1,4,5
 430 -1 430 -1 -1 -1 c 1,6,7
 -1 142 -1 142 -1 574 c 1,0,1
EndSplineSet
EndChar

StartChar: Agrave
Encoding: 192 192 139
Width: 574
Flags: W
LayerCount: 2
Fore
SplineSet
-1 574 m 1,0,1
 143 574 143 574 574 574 c 1,2,3
 574 430 574 430 574 -1 c 1,4,5
 430 -1 430 -1 -1 -1 c 1,6,7
 -1 142 -1 142 -1 574 c 1,0,1
EndSplineSet
EndChar

StartChar: Aacute
Encoding: 193 193 140
Width: 574
Flags: W
LayerCount: 2
Fore
SplineSet
-1 574 m 1,0,1
 143 574 143 574 574 574 c 1,2,3
 574 430 574 430 574 -1 c 1,4,5
 430 -1 430 -1 -1 -1 c 1,6,7
 -1 142 -1 142 -1 574 c 1,0,1
EndSplineSet
EndChar

StartChar: Acircumflex
Encoding: 194 194 141
Width: 574
Flags: W
LayerCount: 2
Fore
SplineSet
-1 574 m 1,0,1
 143 574 143 574 574 574 c 1,2,3
 574 430 574 430 574 -1 c 1,4,5
 430 -1 430 -1 -1 -1 c 1,6,7
 -1 142 -1 142 -1 574 c 1,0,1
EndSplineSet
EndChar

StartChar: Atilde
Encoding: 195 195 142
Width: 574
Flags: W
LayerCount: 2
Fore
SplineSet
-1 574 m 1,0,1
 143 574 143 574 574 574 c 1,2,3
 574 430 574 430 574 -1 c 1,4,5
 430 -1 430 -1 -1 -1 c 1,6,7
 -1 142 -1 142 -1 574 c 1,0,1
EndSplineSet
EndChar

StartChar: Adieresis
Encoding: 196 196 143
Width: 574
Flags: W
LayerCount: 2
Fore
SplineSet
-1 574 m 1,0,1
 143 574 143 574 574 574 c 1,2,3
 574 430 574 430 574 -1 c 1,4,5
 430 -1 430 -1 -1 -1 c 1,6,7
 -1 142 -1 142 -1 574 c 1,0,1
EndSplineSet
EndChar

StartChar: Aring
Encoding: 197 197 144
Width: 574
Flags: W
LayerCount: 2
Fore
SplineSet
-1 574 m 1,0,1
 143 574 143 574 574 574 c 1,2,3
 574 430 574 430 574 -1 c 1,4,5
 430 -1 430 -1 -1 -1 c 1,6,7
 -1 142 -1 142 -1 574 c 1,0,1
EndSplineSet
EndChar

StartChar: AE
Encoding: 198 198 145
Width: 574
Flags: W
LayerCount: 2
Fore
SplineSet
-1 574 m 1,0,1
 143 574 143 574 574 574 c 1,2,3
 574 430 574 430 574 -1 c 1,4,5
 430 -1 430 -1 -1 -1 c 1,6,7
 -1 142 -1 142 -1 574 c 1,0,1
EndSplineSet
EndChar

StartChar: Ccedilla
Encoding: 199 199 146
Width: 574
Flags: W
LayerCount: 2
Fore
SplineSet
-1 574 m 1,0,1
 143 574 143 574 574 574 c 1,2,3
 574 430 574 430 574 -1 c 1,4,5
 430 -1 430 -1 -1 -1 c 1,6,7
 -1 142 -1 142 -1 574 c 1,0,1
EndSplineSet
EndChar

StartChar: Egrave
Encoding: 200 200 147
Width: 574
Flags: W
LayerCount: 2
Fore
SplineSet
-1 574 m 1,0,1
 143 574 143 574 574 574 c 1,2,3
 574 430 574 430 574 -1 c 1,4,5
 430 -1 430 -1 -1 -1 c 1,6,7
 -1 142 -1 142 -1 574 c 1,0,1
EndSplineSet
EndChar

StartChar: Eacute
Encoding: 201 201 148
Width: 574
Flags: W
LayerCount: 2
Fore
SplineSet
-1 574 m 1,0,1
 143 574 143 574 574 574 c 1,2,3
 574 430 574 430 574 -1 c 1,4,5
 430 -1 430 -1 -1 -1 c 1,6,7
 -1 142 -1 142 -1 574 c 1,0,1
EndSplineSet
EndChar

StartChar: Ecircumflex
Encoding: 202 202 149
Width: 574
Flags: W
LayerCount: 2
Fore
SplineSet
-1 574 m 1,0,1
 143 574 143 574 574 574 c 1,2,3
 574 430 574 430 574 -1 c 1,4,5
 430 -1 430 -1 -1 -1 c 1,6,7
 -1 142 -1 142 -1 574 c 1,0,1
EndSplineSet
EndChar

StartChar: Edieresis
Encoding: 203 203 150
Width: 574
Flags: W
LayerCount: 2
Fore
SplineSet
-1 574 m 1,0,1
 143 574 143 574 574 574 c 1,2,3
 574 430 574 430 574 -1 c 1,4,5
 430 -1 430 -1 -1 -1 c 1,6,7
 -1 142 -1 142 -1 574 c 1,0,1
EndSplineSet
EndChar

StartChar: Igrave
Encoding: 204 204 151
Width: 574
Flags: W
LayerCount: 2
Fore
SplineSet
-1 574 m 1,0,1
 143 574 143 574 574 574 c 1,2,3
 574 430 574 430 574 -1 c 1,4,5
 430 -1 430 -1 -1 -1 c 1,6,7
 -1 142 -1 142 -1 574 c 1,0,1
EndSplineSet
EndChar

StartChar: Iacute
Encoding: 205 205 152
Width: 574
Flags: W
LayerCount: 2
Fore
SplineSet
-1 574 m 1,0,1
 143 574 143 574 574 574 c 1,2,3
 574 430 574 430 574 -1 c 1,4,5
 430 -1 430 -1 -1 -1 c 1,6,7
 -1 142 -1 142 -1 574 c 1,0,1
EndSplineSet
EndChar

StartChar: Icircumflex
Encoding: 206 206 153
Width: 574
Flags: W
LayerCount: 2
Fore
SplineSet
-1 574 m 1,0,1
 143 574 143 574 574 574 c 1,2,3
 574 430 574 430 574 -1 c 1,4,5
 430 -1 430 -1 -1 -1 c 1,6,7
 -1 142 -1 142 -1 574 c 1,0,1
EndSplineSet
EndChar

StartChar: Idieresis
Encoding: 207 207 154
Width: 574
Flags: W
LayerCount: 2
Fore
SplineSet
-1 574 m 1,0,1
 143 574 143 574 574 574 c 1,2,3
 574 430 574 430 574 -1 c 1,4,5
 430 -1 430 -1 -1 -1 c 1,6,7
 -1 142 -1 142 -1 574 c 1,0,1
EndSplineSet
EndChar

StartChar: Eth
Encoding: 208 208 155
Width: 574
Flags: W
LayerCount: 2
Fore
SplineSet
-1 574 m 1,0,1
 143 574 143 574 574 574 c 1,2,3
 574 430 574 430 574 -1 c 1,4,5
 430 -1 430 -1 -1 -1 c 1,6,7
 -1 142 -1 142 -1 574 c 1,0,1
EndSplineSet
EndChar

StartChar: Ntilde
Encoding: 209 209 156
Width: 574
Flags: W
LayerCount: 2
Fore
SplineSet
-1 574 m 1,0,1
 143 574 143 574 574 574 c 1,2,3
 574 430 574 430 574 -1 c 1,4,5
 430 -1 430 -1 -1 -1 c 1,6,7
 -1 142 -1 142 -1 574 c 1,0,1
EndSplineSet
EndChar

StartChar: Ograve
Encoding: 210 210 157
Width: 574
Flags: W
LayerCount: 2
Fore
SplineSet
-1 574 m 1,0,1
 143 574 143 574 574 574 c 1,2,3
 574 430 574 430 574 -1 c 1,4,5
 430 -1 430 -1 -1 -1 c 1,6,7
 -1 142 -1 142 -1 574 c 1,0,1
EndSplineSet
EndChar

StartChar: Oacute
Encoding: 211 211 158
Width: 574
Flags: W
LayerCount: 2
Fore
SplineSet
-1 574 m 1,0,1
 143 574 143 574 574 574 c 1,2,3
 574 430 574 430 574 -1 c 1,4,5
 430 -1 430 -1 -1 -1 c 1,6,7
 -1 142 -1 142 -1 574 c 1,0,1
EndSplineSet
EndChar

StartChar: Ocircumflex
Encoding: 212 212 159
Width: 574
Flags: W
LayerCount: 2
Fore
SplineSet
-1 574 m 1,0,1
 143 574 143 574 574 574 c 1,2,3
 574 430 574 430 574 -1 c 1,4,5
 430 -1 430 -1 -1 -1 c 1,6,7
 -1 142 -1 142 -1 574 c 1,0,1
EndSplineSet
EndChar

StartChar: Otilde
Encoding: 213 213 160
Width: 574
Flags: W
LayerCount: 2
Fore
SplineSet
-1 574 m 1,0,1
 143 574 143 574 574 574 c 1,2,3
 574 430 574 430 574 -1 c 1,4,5
 430 -1 430 -1 -1 -1 c 1,6,7
 -1 142 -1 142 -1 574 c 1,0,1
EndSplineSet
EndChar

StartChar: Odieresis
Encoding: 214 214 161
Width: 574
Flags: W
LayerCount: 2
Fore
SplineSet
-1 574 m 1,0,1
 143 574 143 574 574 574 c 1,2,3
 574 430 574 430 574 -1 c 1,4,5
 430 -1 430 -1 -1 -1 c 1,6,7
 -1 142 -1 142 -1 574 c 1,0,1
EndSplineSet
EndChar

StartChar: multiply
Encoding: 215 215 162
Width: 574
Flags: W
LayerCount: 2
Fore
SplineSet
-1 574 m 1,0,1
 143 574 143 574 574 574 c 1,2,3
 574 430 574 430 574 -1 c 1,4,5
 430 -1 430 -1 -1 -1 c 1,6,7
 -1 142 -1 142 -1 574 c 1,0,1
EndSplineSet
EndChar

StartChar: Oslash
Encoding: 216 216 163
Width: 574
Flags: W
LayerCount: 2
Fore
SplineSet
-1 574 m 1,0,1
 143 574 143 574 574 574 c 1,2,3
 574 430 574 430 574 -1 c 1,4,5
 430 -1 430 -1 -1 -1 c 1,6,7
 -1 142 -1 142 -1 574 c 1,0,1
EndSplineSet
EndChar

StartChar: Ugrave
Encoding: 217 217 164
Width: 574
Flags: W
LayerCount: 2
Fore
SplineSet
-1 574 m 1,0,1
 143 574 143 574 574 574 c 1,2,3
 574 430 574 430 574 -1 c 1,4,5
 430 -1 430 -1 -1 -1 c 1,6,7
 -1 142 -1 142 -1 574 c 1,0,1
EndSplineSet
EndChar

StartChar: Uacute
Encoding: 218 218 165
Width: 574
Flags: W
LayerCount: 2
Fore
SplineSet
-1 574 m 1,0,1
 143 574 143 574 574 574 c 1,2,3
 574 430 574 430 574 -1 c 1,4,5
 430 -1 430 -1 -1 -1 c 1,6,7
 -1 142 -1 142 -1 574 c 1,0,1
EndSplineSet
EndChar

StartChar: Ucircumflex
Encoding: 219 219 166
Width: 574
Flags: W
LayerCount: 2
Fore
SplineSet
-1 574 m 1,0,1
 143 574 143 574 574 574 c 1,2,3
 574 430 574 430 574 -1 c 1,4,5
 430 -1 430 -1 -1 -1 c 1,6,7
 -1 142 -1 142 -1 574 c 1,0,1
EndSplineSet
EndChar

StartChar: Udieresis
Encoding: 220 220 167
Width: 574
Flags: W
LayerCount: 2
Fore
SplineSet
-1 574 m 1,0,1
 143 574 143 574 574 574 c 1,2,3
 574 430 574 430 574 -1 c 1,4,5
 430 -1 430 -1 -1 -1 c 1,6,7
 -1 142 -1 142 -1 574 c 1,0,1
EndSplineSet
EndChar

StartChar: Yacute
Encoding: 221 221 168
Width: 574
Flags: W
LayerCount: 2
Fore
SplineSet
-1 574 m 1,0,1
 143 574 143 574 574 574 c 1,2,3
 574 430 574 430 574 -1 c 1,4,5
 430 -1 430 -1 -1 -1 c 1,6,7
 -1 142 -1 142 -1 574 c 1,0,1
EndSplineSet
EndChar

StartChar: Thorn
Encoding: 222 222 169
Width: 574
Flags: W
LayerCount: 2
Fore
SplineSet
-1 574 m 1,0,1
 143 574 143 574 574 574 c 1,2,3
 574 430 574 430 574 -1 c 1,4,5
 430 -1 430 -1 -1 -1 c 1,6,7
 -1 142 -1 142 -1 574 c 1,0,1
EndSplineSet
EndChar

StartChar: germandbls
Encoding: 223 223 170
Width: 574
Flags: W
LayerCount: 2
Fore
SplineSet
-1 574 m 1,0,1
 143 574 143 574 574 574 c 1,2,3
 574 430 574 430 574 -1 c 1,4,5
 430 -1 430 -1 -1 -1 c 1,6,7
 -1 142 -1 142 -1 574 c 1,0,1
EndSplineSet
EndChar

StartChar: agrave
Encoding: 224 224 171
Width: 574
Flags: W
LayerCount: 2
Fore
SplineSet
-1 574 m 1,0,1
 143 574 143 574 574 574 c 1,2,3
 574 430 574 430 574 -1 c 1,4,5
 430 -1 430 -1 -1 -1 c 1,6,7
 -1 142 -1 142 -1 574 c 1,0,1
EndSplineSet
EndChar

StartChar: aacute
Encoding: 225 225 172
Width: 574
Flags: W
LayerCount: 2
Fore
SplineSet
-1 574 m 1,0,1
 143 574 143 574 574 574 c 1,2,3
 574 430 574 430 574 -1 c 1,4,5
 430 -1 430 -1 -1 -1 c 1,6,7
 -1 142 -1 142 -1 574 c 1,0,1
EndSplineSet
EndChar

StartChar: acircumflex
Encoding: 226 226 173
Width: 574
Flags: W
LayerCount: 2
Fore
SplineSet
-1 574 m 1,0,1
 143 574 143 574 574 574 c 1,2,3
 574 430 574 430 574 -1 c 1,4,5
 430 -1 430 -1 -1 -1 c 1,6,7
 -1 142 -1 142 -1 574 c 1,0,1
EndSplineSet
EndChar

StartChar: atilde
Encoding: 227 227 174
Width: 574
Flags: W
LayerCount: 2
Fore
SplineSet
-1 574 m 1,0,1
 143 574 143 574 574 574 c 1,2,3
 574 430 574 430 574 -1 c 1,4,5
 430 -1 430 -1 -1 -1 c 1,6,7
 -1 142 -1 142 -1 574 c 1,0,1
EndSplineSet
EndChar

StartChar: adieresis
Encoding: 228 228 175
Width: 574
Flags: W
LayerCount: 2
Fore
SplineSet
-1 574 m 1,0,1
 143 574 143 574 574 574 c 1,2,3
 574 430 574 430 574 -1 c 1,4,5
 430 -1 430 -1 -1 -1 c 1,6,7
 -1 142 -1 142 -1 574 c 1,0,1
EndSplineSet
EndChar

StartChar: aring
Encoding: 229 229 176
Width: 574
Flags: W
LayerCount: 2
Fore
SplineSet
-1 574 m 1,0,1
 143 574 143 574 574 574 c 1,2,3
 574 430 574 430 574 -1 c 1,4,5
 430 -1 430 -1 -1 -1 c 1,6,7
 -1 142 -1 142 -1 574 c 1,0,1
EndSplineSet
EndChar

StartChar: ae
Encoding: 230 230 177
Width: 574
Flags: W
LayerCount: 2
Fore
SplineSet
-1 574 m 1,0,1
 143 574 143 574 574 574 c 1,2,3
 574 430 574 430 574 -1 c 1,4,5
 430 -1 430 -1 -1 -1 c 1,6,7
 -1 142 -1 142 -1 574 c 1,0,1
EndSplineSet
EndChar

StartChar: ccedilla
Encoding: 231 231 178
Width: 574
Flags: W
LayerCount: 2
Fore
SplineSet
-1 574 m 1,0,1
 143 574 143 574 574 574 c 1,2,3
 574 430 574 430 574 -1 c 1,4,5
 430 -1 430 -1 -1 -1 c 1,6,7
 -1 142 -1 142 -1 574 c 1,0,1
EndSplineSet
EndChar

StartChar: egrave
Encoding: 232 232 179
Width: 574
Flags: W
LayerCount: 2
Fore
SplineSet
-1 574 m 1,0,1
 143 574 143 574 574 574 c 1,2,3
 574 430 574 430 574 -1 c 1,4,5
 430 -1 430 -1 -1 -1 c 1,6,7
 -1 142 -1 142 -1 574 c 1,0,1
EndSplineSet
EndChar

StartChar: eacute
Encoding: 233 233 180
Width: 574
Flags: W
LayerCount: 2
Fore
SplineSet
-1 574 m 1,0,1
 143 574 143 574 574 574 c 1,2,3
 574 430 574 430 574 -1 c 1,4,5
 430 -1 430 -1 -1 -1 c 1,6,7
 -1 142 -1 142 -1 574 c 1,0,1
EndSplineSet
EndChar

StartChar: ecircumflex
Encoding: 234 234 181
Width: 574
Flags: W
LayerCount: 2
Fore
SplineSet
-1 574 m 1,0,1
 143 574 143 574 574 574 c 1,2,3
 574 430 574 430 574 -1 c 1,4,5
 430 -1 430 -1 -1 -1 c 1,6,7
 -1 142 -1 142 -1 574 c 1,0,1
EndSplineSet
EndChar

StartChar: edieresis
Encoding: 235 235 182
Width: 574
Flags: W
LayerCount: 2
Fore
SplineSet
-1 574 m 1,0,1
 143 574 143 574 574 574 c 1,2,3
 574 430 574 430 574 -1 c 1,4,5
 430 -1 430 -1 -1 -1 c 1,6,7
 -1 142 -1 142 -1 574 c 1,0,1
EndSplineSet
EndChar

StartChar: igrave
Encoding: 236 236 183
Width: 574
Flags: W
LayerCount: 2
Fore
SplineSet
-1 574 m 1,0,1
 143 574 143 574 574 574 c 1,2,3
 574 430 574 430 574 -1 c 1,4,5
 430 -1 430 -1 -1 -1 c 1,6,7
 -1 142 -1 142 -1 574 c 1,0,1
EndSplineSet
EndChar

StartChar: iacute
Encoding: 237 237 184
Width: 574
Flags: W
LayerCount: 2
Fore
SplineSet
-1 574 m 1,0,1
 143 574 143 574 574 574 c 1,2,3
 574 430 574 430 574 -1 c 1,4,5
 430 -1 430 -1 -1 -1 c 1,6,7
 -1 142 -1 142 -1 574 c 1,0,1
EndSplineSet
EndChar

StartChar: icircumflex
Encoding: 238 238 185
Width: 574
Flags: W
LayerCount: 2
Fore
SplineSet
-1 574 m 1,0,1
 143 574 143 574 574 574 c 1,2,3
 574 430 574 430 574 -1 c 1,4,5
 430 -1 430 -1 -1 -1 c 1,6,7
 -1 142 -1 142 -1 574 c 1,0,1
EndSplineSet
EndChar

StartChar: idieresis
Encoding: 239 239 186
Width: 574
Flags: W
LayerCount: 2
Fore
SplineSet
-1 574 m 1,0,1
 143 574 143 574 574 574 c 1,2,3
 574 430 574 430 574 -1 c 1,4,5
 430 -1 430 -1 -1 -1 c 1,6,7
 -1 142 -1 142 -1 574 c 1,0,1
EndSplineSet
EndChar

StartChar: eth
Encoding: 240 240 187
Width: 574
Flags: W
LayerCount: 2
Fore
SplineSet
-1 574 m 1,0,1
 143 574 143 574 574 574 c 1,2,3
 574 430 574 430 574 -1 c 1,4,5
 430 -1 430 -1 -1 -1 c 1,6,7
 -1 142 -1 142 -1 574 c 1,0,1
EndSplineSet
EndChar

StartChar: ntilde
Encoding: 241 241 188
Width: 574
Flags: W
LayerCount: 2
Fore
SplineSet
-1 574 m 1,0,1
 143 574 143 574 574 574 c 1,2,3
 574 430 574 430 574 -1 c 1,4,5
 430 -1 430 -1 -1 -1 c 1,6,7
 -1 142 -1 142 -1 574 c 1,0,1
EndSplineSet
EndChar

StartChar: ograve
Encoding: 242 242 189
Width: 574
Flags: W
LayerCount: 2
Fore
SplineSet
-1 574 m 1,0,1
 143 574 143 574 574 574 c 1,2,3
 574 430 574 430 574 -1 c 1,4,5
 430 -1 430 -1 -1 -1 c 1,6,7
 -1 142 -1 142 -1 574 c 1,0,1
EndSplineSet
EndChar

StartChar: oacute
Encoding: 243 243 190
Width: 574
Flags: W
LayerCount: 2
Fore
SplineSet
-1 574 m 1,0,1
 143 574 143 574 574 574 c 1,2,3
 574 430 574 430 574 -1 c 1,4,5
 430 -1 430 -1 -1 -1 c 1,6,7
 -1 142 -1 142 -1 574 c 1,0,1
EndSplineSet
EndChar

StartChar: ocircumflex
Encoding: 244 244 191
Width: 574
Flags: W
LayerCount: 2
Fore
SplineSet
-1 574 m 1,0,1
 143 574 143 574 574 574 c 1,2,3
 574 430 574 430 574 -1 c 1,4,5
 430 -1 430 -1 -1 -1 c 1,6,7
 -1 142 -1 142 -1 574 c 1,0,1
EndSplineSet
EndChar

StartChar: otilde
Encoding: 245 245 192
Width: 574
Flags: W
LayerCount: 2
Fore
SplineSet
-1 574 m 1,0,1
 143 574 143 574 574 574 c 1,2,3
 574 430 574 430 574 -1 c 1,4,5
 430 -1 430 -1 -1 -1 c 1,6,7
 -1 142 -1 142 -1 574 c 1,0,1
EndSplineSet
EndChar

StartChar: odieresis
Encoding: 246 246 193
Width: 574
Flags: W
LayerCount: 2
Fore
SplineSet
-1 574 m 1,0,1
 143 574 143 574 574 574 c 1,2,3
 574 430 574 430 574 -1 c 1,4,5
 430 -1 430 -1 -1 -1 c 1,6,7
 -1 142 -1 142 -1 574 c 1,0,1
EndSplineSet
EndChar

StartChar: divide
Encoding: 247 247 194
Width: 574
Flags: W
LayerCount: 2
Fore
SplineSet
-1 574 m 1,0,1
 143 574 143 574 574 574 c 1,2,3
 574 430 574 430 574 -1 c 1,4,5
 430 -1 430 -1 -1 -1 c 1,6,7
 -1 142 -1 142 -1 574 c 1,0,1
EndSplineSet
EndChar

StartChar: oslash
Encoding: 248 248 195
Width: 574
Flags: W
LayerCount: 2
Fore
SplineSet
-1 574 m 1,0,1
 143 574 143 574 574 574 c 1,2,3
 574 430 574 430 574 -1 c 1,4,5
 430 -1 430 -1 -1 -1 c 1,6,7
 -1 142 -1 142 -1 574 c 1,0,1
EndSplineSet
EndChar

StartChar: ugrave
Encoding: 249 249 196
Width: 574
Flags: W
LayerCount: 2
Fore
SplineSet
-1 574 m 1,0,1
 143 574 143 574 574 574 c 1,2,3
 574 430 574 430 574 -1 c 1,4,5
 430 -1 430 -1 -1 -1 c 1,6,7
 -1 142 -1 142 -1 574 c 1,0,1
EndSplineSet
EndChar

StartChar: uacute
Encoding: 250 250 197
Width: 574
Flags: W
LayerCount: 2
Fore
SplineSet
-1 574 m 1,0,1
 143 574 143 574 574 574 c 1,2,3
 574 430 574 430 574 -1 c 1,4,5
 430 -1 430 -1 -1 -1 c 1,6,7
 -1 142 -1 142 -1 574 c 1,0,1
EndSplineSet
EndChar

StartChar: ucircumflex
Encoding: 251 251 198
Width: 574
Flags: W
LayerCount: 2
Fore
SplineSet
-1 574 m 1,0,1
 143 574 143 574 574 574 c 1,2,3
 574 430 574 430 574 -1 c 1,4,5
 430 -1 430 -1 -1 -1 c 1,6,7
 -1 142 -1 142 -1 574 c 1,0,1
EndSplineSet
EndChar

StartChar: udieresis
Encoding: 252 252 199
Width: 574
Flags: W
LayerCount: 2
Fore
SplineSet
-1 574 m 1,0,1
 143 574 143 574 574 574 c 1,2,3
 574 430 574 430 574 -1 c 1,4,5
 430 -1 430 -1 -1 -1 c 1,6,7
 -1 142 -1 142 -1 574 c 1,0,1
EndSplineSet
EndChar

StartChar: yacute
Encoding: 253 253 200
Width: 574
Flags: W
LayerCount: 2
Fore
SplineSet
-1 574 m 1,0,1
 143 574 143 574 574 574 c 1,2,3
 574 430 574 430 574 -1 c 1,4,5
 430 -1 430 -1 -1 -1 c 1,6,7
 -1 142 -1 142 -1 574 c 1,0,1
EndSplineSet
EndChar

StartChar: thorn
Encoding: 254 254 201
Width: 574
Flags: W
LayerCount: 2
Fore
SplineSet
-1 574 m 1,0,1
 143 574 143 574 574 574 c 1,2,3
 574 430 574 430 574 -1 c 1,4,5
 430 -1 430 -1 -1 -1 c 1,6,7
 -1 142 -1 142 -1 574 c 1,0,1
EndSplineSet
EndChar

StartChar: ydieresis
Encoding: 255 255 202
Width: 574
Flags: W
LayerCount: 2
Fore
SplineSet
-1 574 m 1,0,1
 143 574 143 574 574 574 c 1,2,3
 574 430 574 430 574 -1 c 1,4,5
 430 -1 430 -1 -1 -1 c 1,6,7
 -1 142 -1 142 -1 574 c 1,0,1
EndSplineSet
EndChar

StartChar: Amacron
Encoding: 256 256 203
Width: 574
Flags: W
LayerCount: 2
Fore
SplineSet
-1 574 m 1,0,1
 143 574 143 574 574 574 c 1,2,3
 574 430 574 430 574 -1 c 1,4,5
 430 -1 430 -1 -1 -1 c 1,6,7
 -1 142 -1 142 -1 574 c 1,0,1
EndSplineSet
EndChar

StartChar: amacron
Encoding: 257 257 204
Width: 574
Flags: W
LayerCount: 2
Fore
SplineSet
-1 574 m 1,0,1
 143 574 143 574 574 574 c 1,2,3
 574 430 574 430 574 -1 c 1,4,5
 430 -1 430 -1 -1 -1 c 1,6,7
 -1 142 -1 142 -1 574 c 1,0,1
EndSplineSet
EndChar

StartChar: Abreve
Encoding: 258 258 205
Width: 574
Flags: W
LayerCount: 2
Fore
SplineSet
-1 574 m 1,0,1
 143 574 143 574 574 574 c 1,2,3
 574 430 574 430 574 -1 c 1,4,5
 430 -1 430 -1 -1 -1 c 1,6,7
 -1 142 -1 142 -1 574 c 1,0,1
EndSplineSet
EndChar

StartChar: abreve
Encoding: 259 259 206
Width: 574
Flags: W
LayerCount: 2
Fore
SplineSet
-1 574 m 1,0,1
 143 574 143 574 574 574 c 1,2,3
 574 430 574 430 574 -1 c 1,4,5
 430 -1 430 -1 -1 -1 c 1,6,7
 -1 142 -1 142 -1 574 c 1,0,1
EndSplineSet
EndChar

StartChar: Aogonek
Encoding: 260 260 207
Width: 574
Flags: W
LayerCount: 2
Fore
SplineSet
-1 574 m 1,0,1
 143 574 143 574 574 574 c 1,2,3
 574 430 574 430 574 -1 c 1,4,5
 430 -1 430 -1 -1 -1 c 1,6,7
 -1 142 -1 142 -1 574 c 1,0,1
EndSplineSet
EndChar

StartChar: aogonek
Encoding: 261 261 208
Width: 574
Flags: W
LayerCount: 2
Fore
SplineSet
-1 574 m 1,0,1
 143 574 143 574 574 574 c 1,2,3
 574 430 574 430 574 -1 c 1,4,5
 430 -1 430 -1 -1 -1 c 1,6,7
 -1 142 -1 142 -1 574 c 1,0,1
EndSplineSet
EndChar

StartChar: Cacute
Encoding: 262 262 209
Width: 574
Flags: W
LayerCount: 2
Fore
SplineSet
-1 574 m 1,0,1
 143 574 143 574 574 574 c 1,2,3
 574 430 574 430 574 -1 c 1,4,5
 430 -1 430 -1 -1 -1 c 1,6,7
 -1 142 -1 142 -1 574 c 1,0,1
EndSplineSet
EndChar

StartChar: cacute
Encoding: 263 263 210
Width: 574
Flags: W
LayerCount: 2
Fore
SplineSet
-1 574 m 1,0,1
 143 574 143 574 574 574 c 1,2,3
 574 430 574 430 574 -1 c 1,4,5
 430 -1 430 -1 -1 -1 c 1,6,7
 -1 142 -1 142 -1 574 c 1,0,1
EndSplineSet
EndChar

StartChar: Ccircumflex
Encoding: 264 264 211
Width: 574
Flags: W
LayerCount: 2
Fore
SplineSet
-1 574 m 1,0,1
 143 574 143 574 574 574 c 1,2,3
 574 430 574 430 574 -1 c 1,4,5
 430 -1 430 -1 -1 -1 c 1,6,7
 -1 142 -1 142 -1 574 c 1,0,1
EndSplineSet
EndChar

StartChar: ccircumflex
Encoding: 265 265 212
Width: 574
Flags: W
LayerCount: 2
Fore
SplineSet
-1 574 m 1,0,1
 143 574 143 574 574 574 c 1,2,3
 574 430 574 430 574 -1 c 1,4,5
 430 -1 430 -1 -1 -1 c 1,6,7
 -1 142 -1 142 -1 574 c 1,0,1
EndSplineSet
EndChar

StartChar: Cdotaccent
Encoding: 266 266 213
Width: 574
Flags: W
LayerCount: 2
Fore
SplineSet
-1 574 m 1,0,1
 143 574 143 574 574 574 c 1,2,3
 574 430 574 430 574 -1 c 1,4,5
 430 -1 430 -1 -1 -1 c 1,6,7
 -1 142 -1 142 -1 574 c 1,0,1
EndSplineSet
EndChar

StartChar: cdotaccent
Encoding: 267 267 214
Width: 574
Flags: W
LayerCount: 2
Fore
SplineSet
-1 574 m 1,0,1
 143 574 143 574 574 574 c 1,2,3
 574 430 574 430 574 -1 c 1,4,5
 430 -1 430 -1 -1 -1 c 1,6,7
 -1 142 -1 142 -1 574 c 1,0,1
EndSplineSet
EndChar

StartChar: Ccaron
Encoding: 268 268 215
Width: 574
Flags: W
LayerCount: 2
Fore
SplineSet
-1 574 m 1,0,1
 143 574 143 574 574 574 c 1,2,3
 574 430 574 430 574 -1 c 1,4,5
 430 -1 430 -1 -1 -1 c 1,6,7
 -1 142 -1 142 -1 574 c 1,0,1
EndSplineSet
EndChar

StartChar: ccaron
Encoding: 269 269 216
Width: 574
Flags: W
LayerCount: 2
Fore
SplineSet
-1 574 m 1,0,1
 143 574 143 574 574 574 c 1,2,3
 574 430 574 430 574 -1 c 1,4,5
 430 -1 430 -1 -1 -1 c 1,6,7
 -1 142 -1 142 -1 574 c 1,0,1
EndSplineSet
EndChar

StartChar: Dcaron
Encoding: 270 270 217
Width: 574
Flags: W
LayerCount: 2
Fore
SplineSet
-1 574 m 1,0,1
 143 574 143 574 574 574 c 1,2,3
 574 430 574 430 574 -1 c 1,4,5
 430 -1 430 -1 -1 -1 c 1,6,7
 -1 142 -1 142 -1 574 c 1,0,1
EndSplineSet
EndChar

StartChar: dcaron
Encoding: 271 271 218
Width: 574
Flags: W
LayerCount: 2
Fore
SplineSet
-1 574 m 1,0,1
 143 574 143 574 574 574 c 1,2,3
 574 430 574 430 574 -1 c 1,4,5
 430 -1 430 -1 -1 -1 c 1,6,7
 -1 142 -1 142 -1 574 c 1,0,1
EndSplineSet
EndChar

StartChar: Dcroat
Encoding: 272 272 219
Width: 574
Flags: W
LayerCount: 2
Fore
SplineSet
-1 574 m 1,0,1
 143 574 143 574 574 574 c 1,2,3
 574 430 574 430 574 -1 c 1,4,5
 430 -1 430 -1 -1 -1 c 1,6,7
 -1 142 -1 142 -1 574 c 1,0,1
EndSplineSet
EndChar

StartChar: dcroat
Encoding: 273 273 220
Width: 574
Flags: W
LayerCount: 2
Fore
SplineSet
-1 574 m 1,0,1
 143 574 143 574 574 574 c 1,2,3
 574 430 574 430 574 -1 c 1,4,5
 430 -1 430 -1 -1 -1 c 1,6,7
 -1 142 -1 142 -1 574 c 1,0,1
EndSplineSet
EndChar

StartChar: Emacron
Encoding: 274 274 221
Width: 574
Flags: W
LayerCount: 2
Fore
SplineSet
-1 574 m 1,0,1
 143 574 143 574 574 574 c 1,2,3
 574 430 574 430 574 -1 c 1,4,5
 430 -1 430 -1 -1 -1 c 1,6,7
 -1 142 -1 142 -1 574 c 1,0,1
EndSplineSet
EndChar

StartChar: emacron
Encoding: 275 275 222
Width: 574
Flags: W
LayerCount: 2
Fore
SplineSet
-1 574 m 1,0,1
 143 574 143 574 574 574 c 1,2,3
 574 430 574 430 574 -1 c 1,4,5
 430 -1 430 -1 -1 -1 c 1,6,7
 -1 142 -1 142 -1 574 c 1,0,1
EndSplineSet
EndChar

StartChar: Ebreve
Encoding: 276 276 223
Width: 574
Flags: W
LayerCount: 2
Fore
SplineSet
-1 574 m 1,0,1
 143 574 143 574 574 574 c 1,2,3
 574 430 574 430 574 -1 c 1,4,5
 430 -1 430 -1 -1 -1 c 1,6,7
 -1 142 -1 142 -1 574 c 1,0,1
EndSplineSet
EndChar

StartChar: ebreve
Encoding: 277 277 224
Width: 574
Flags: W
LayerCount: 2
Fore
SplineSet
-1 574 m 1,0,1
 143 574 143 574 574 574 c 1,2,3
 574 430 574 430 574 -1 c 1,4,5
 430 -1 430 -1 -1 -1 c 1,6,7
 -1 142 -1 142 -1 574 c 1,0,1
EndSplineSet
EndChar

StartChar: Edotaccent
Encoding: 278 278 225
Width: 574
Flags: W
LayerCount: 2
Fore
SplineSet
-1 574 m 1,0,1
 143 574 143 574 574 574 c 1,2,3
 574 430 574 430 574 -1 c 1,4,5
 430 -1 430 -1 -1 -1 c 1,6,7
 -1 142 -1 142 -1 574 c 1,0,1
EndSplineSet
EndChar

StartChar: edotaccent
Encoding: 279 279 226
Width: 574
Flags: W
LayerCount: 2
Fore
SplineSet
-1 574 m 1,0,1
 143 574 143 574 574 574 c 1,2,3
 574 430 574 430 574 -1 c 1,4,5
 430 -1 430 -1 -1 -1 c 1,6,7
 -1 142 -1 142 -1 574 c 1,0,1
EndSplineSet
EndChar

StartChar: Eogonek
Encoding: 280 280 227
Width: 574
Flags: W
LayerCount: 2
Fore
SplineSet
-1 574 m 1,0,1
 143 574 143 574 574 574 c 1,2,3
 574 430 574 430 574 -1 c 1,4,5
 430 -1 430 -1 -1 -1 c 1,6,7
 -1 142 -1 142 -1 574 c 1,0,1
EndSplineSet
EndChar

StartChar: eogonek
Encoding: 281 281 228
Width: 574
Flags: W
LayerCount: 2
Fore
SplineSet
-1 574 m 1,0,1
 143 574 143 574 574 574 c 1,2,3
 574 430 574 430 574 -1 c 1,4,5
 430 -1 430 -1 -1 -1 c 1,6,7
 -1 142 -1 142 -1 574 c 1,0,1
EndSplineSet
EndChar

StartChar: Ecaron
Encoding: 282 282 229
Width: 574
Flags: W
LayerCount: 2
Fore
SplineSet
-1 574 m 1,0,1
 143 574 143 574 574 574 c 1,2,3
 574 430 574 430 574 -1 c 1,4,5
 430 -1 430 -1 -1 -1 c 1,6,7
 -1 142 -1 142 -1 574 c 1,0,1
EndSplineSet
EndChar

StartChar: ecaron
Encoding: 283 283 230
Width: 574
Flags: W
LayerCount: 2
Fore
SplineSet
-1 574 m 1,0,1
 143 574 143 574 574 574 c 1,2,3
 574 430 574 430 574 -1 c 1,4,5
 430 -1 430 -1 -1 -1 c 1,6,7
 -1 142 -1 142 -1 574 c 1,0,1
EndSplineSet
EndChar

StartChar: Gcircumflex
Encoding: 284 284 231
Width: 574
Flags: W
LayerCount: 2
Fore
SplineSet
-1 574 m 1,0,1
 143 574 143 574 574 574 c 1,2,3
 574 430 574 430 574 -1 c 1,4,5
 430 -1 430 -1 -1 -1 c 1,6,7
 -1 142 -1 142 -1 574 c 1,0,1
EndSplineSet
EndChar

StartChar: gcircumflex
Encoding: 285 285 232
Width: 574
Flags: W
LayerCount: 2
Fore
SplineSet
-1 574 m 1,0,1
 143 574 143 574 574 574 c 1,2,3
 574 430 574 430 574 -1 c 1,4,5
 430 -1 430 -1 -1 -1 c 1,6,7
 -1 142 -1 142 -1 574 c 1,0,1
EndSplineSet
EndChar

StartChar: Gbreve
Encoding: 286 286 233
Width: 574
Flags: W
LayerCount: 2
Fore
SplineSet
-1 574 m 1,0,1
 143 574 143 574 574 574 c 1,2,3
 574 430 574 430 574 -1 c 1,4,5
 430 -1 430 -1 -1 -1 c 1,6,7
 -1 142 -1 142 -1 574 c 1,0,1
EndSplineSet
EndChar

StartChar: gbreve
Encoding: 287 287 234
Width: 574
Flags: W
LayerCount: 2
Fore
SplineSet
-1 574 m 1,0,1
 143 574 143 574 574 574 c 1,2,3
 574 430 574 430 574 -1 c 1,4,5
 430 -1 430 -1 -1 -1 c 1,6,7
 -1 142 -1 142 -1 574 c 1,0,1
EndSplineSet
EndChar

StartChar: Gdotaccent
Encoding: 288 288 235
Width: 574
Flags: W
LayerCount: 2
Fore
SplineSet
-1 574 m 1,0,1
 143 574 143 574 574 574 c 1,2,3
 574 430 574 430 574 -1 c 1,4,5
 430 -1 430 -1 -1 -1 c 1,6,7
 -1 142 -1 142 -1 574 c 1,0,1
EndSplineSet
EndChar

StartChar: gdotaccent
Encoding: 289 289 236
Width: 574
Flags: W
LayerCount: 2
Fore
SplineSet
-1 574 m 1,0,1
 143 574 143 574 574 574 c 1,2,3
 574 430 574 430 574 -1 c 1,4,5
 430 -1 430 -1 -1 -1 c 1,6,7
 -1 142 -1 142 -1 574 c 1,0,1
EndSplineSet
EndChar

StartChar: uni0122
Encoding: 290 290 237
Width: 574
Flags: W
LayerCount: 2
Fore
SplineSet
-1 574 m 1,0,1
 143 574 143 574 574 574 c 1,2,3
 574 430 574 430 574 -1 c 1,4,5
 430 -1 430 -1 -1 -1 c 1,6,7
 -1 142 -1 142 -1 574 c 1,0,1
EndSplineSet
EndChar

StartChar: uni0123
Encoding: 291 291 238
Width: 574
Flags: W
LayerCount: 2
Fore
SplineSet
-1 574 m 1,0,1
 143 574 143 574 574 574 c 1,2,3
 574 430 574 430 574 -1 c 1,4,5
 430 -1 430 -1 -1 -1 c 1,6,7
 -1 142 -1 142 -1 574 c 1,0,1
EndSplineSet
EndChar

StartChar: Hcircumflex
Encoding: 292 292 239
Width: 574
Flags: W
LayerCount: 2
Fore
SplineSet
-1 574 m 1,0,1
 143 574 143 574 574 574 c 1,2,3
 574 430 574 430 574 -1 c 1,4,5
 430 -1 430 -1 -1 -1 c 1,6,7
 -1 142 -1 142 -1 574 c 1,0,1
EndSplineSet
EndChar

StartChar: hcircumflex
Encoding: 293 293 240
Width: 574
Flags: W
LayerCount: 2
Fore
SplineSet
-1 574 m 1,0,1
 143 574 143 574 574 574 c 1,2,3
 574 430 574 430 574 -1 c 1,4,5
 430 -1 430 -1 -1 -1 c 1,6,7
 -1 142 -1 142 -1 574 c 1,0,1
EndSplineSet
EndChar

StartChar: Hbar
Encoding: 294 294 241
Width: 574
Flags: W
LayerCount: 2
Fore
SplineSet
-1 574 m 1,0,1
 143 574 143 574 574 574 c 1,2,3
 574 430 574 430 574 -1 c 1,4,5
 430 -1 430 -1 -1 -1 c 1,6,7
 -1 142 -1 142 -1 574 c 1,0,1
EndSplineSet
EndChar

StartChar: hbar
Encoding: 295 295 242
Width: 574
Flags: W
LayerCount: 2
Fore
SplineSet
-1 574 m 1,0,1
 143 574 143 574 574 574 c 1,2,3
 574 430 574 430 574 -1 c 1,4,5
 430 -1 430 -1 -1 -1 c 1,6,7
 -1 142 -1 142 -1 574 c 1,0,1
EndSplineSet
EndChar

StartChar: Itilde
Encoding: 296 296 243
Width: 574
Flags: W
LayerCount: 2
Fore
SplineSet
-1 574 m 1,0,1
 143 574 143 574 574 574 c 1,2,3
 574 430 574 430 574 -1 c 1,4,5
 430 -1 430 -1 -1 -1 c 1,6,7
 -1 142 -1 142 -1 574 c 1,0,1
EndSplineSet
EndChar

StartChar: itilde
Encoding: 297 297 244
Width: 574
Flags: W
LayerCount: 2
Fore
SplineSet
-1 574 m 1,0,1
 143 574 143 574 574 574 c 1,2,3
 574 430 574 430 574 -1 c 1,4,5
 430 -1 430 -1 -1 -1 c 1,6,7
 -1 142 -1 142 -1 574 c 1,0,1
EndSplineSet
EndChar

StartChar: Imacron
Encoding: 298 298 245
Width: 574
Flags: W
LayerCount: 2
Fore
SplineSet
-1 574 m 1,0,1
 143 574 143 574 574 574 c 1,2,3
 574 430 574 430 574 -1 c 1,4,5
 430 -1 430 -1 -1 -1 c 1,6,7
 -1 142 -1 142 -1 574 c 1,0,1
EndSplineSet
EndChar

StartChar: imacron
Encoding: 299 299 246
Width: 574
Flags: W
LayerCount: 2
Fore
SplineSet
-1 574 m 1,0,1
 143 574 143 574 574 574 c 1,2,3
 574 430 574 430 574 -1 c 1,4,5
 430 -1 430 -1 -1 -1 c 1,6,7
 -1 142 -1 142 -1 574 c 1,0,1
EndSplineSet
EndChar

StartChar: Ibreve
Encoding: 300 300 247
Width: 574
Flags: W
LayerCount: 2
Fore
SplineSet
-1 574 m 1,0,1
 143 574 143 574 574 574 c 1,2,3
 574 430 574 430 574 -1 c 1,4,5
 430 -1 430 -1 -1 -1 c 1,6,7
 -1 142 -1 142 -1 574 c 1,0,1
EndSplineSet
EndChar

StartChar: ibreve
Encoding: 301 301 248
Width: 574
Flags: W
LayerCount: 2
Fore
SplineSet
-1 574 m 1,0,1
 143 574 143 574 574 574 c 1,2,3
 574 430 574 430 574 -1 c 1,4,5
 430 -1 430 -1 -1 -1 c 1,6,7
 -1 142 -1 142 -1 574 c 1,0,1
EndSplineSet
EndChar

StartChar: Iogonek
Encoding: 302 302 249
Width: 574
Flags: W
LayerCount: 2
Fore
SplineSet
-1 574 m 1,0,1
 143 574 143 574 574 574 c 1,2,3
 574 430 574 430 574 -1 c 1,4,5
 430 -1 430 -1 -1 -1 c 1,6,7
 -1 142 -1 142 -1 574 c 1,0,1
EndSplineSet
EndChar

StartChar: iogonek
Encoding: 303 303 250
Width: 574
Flags: W
LayerCount: 2
Fore
SplineSet
-1 574 m 1,0,1
 143 574 143 574 574 574 c 1,2,3
 574 430 574 430 574 -1 c 1,4,5
 430 -1 430 -1 -1 -1 c 1,6,7
 -1 142 -1 142 -1 574 c 1,0,1
EndSplineSet
EndChar

StartChar: Idotaccent
Encoding: 304 304 251
Width: 574
Flags: W
LayerCount: 2
Fore
SplineSet
-1 574 m 1,0,1
 143 574 143 574 574 574 c 1,2,3
 574 430 574 430 574 -1 c 1,4,5
 430 -1 430 -1 -1 -1 c 1,6,7
 -1 142 -1 142 -1 574 c 1,0,1
EndSplineSet
EndChar

StartChar: dotlessi
Encoding: 305 305 252
Width: 574
Flags: W
LayerCount: 2
Fore
SplineSet
-1 574 m 1,0,1
 143 574 143 574 574 574 c 1,2,3
 574 430 574 430 574 -1 c 1,4,5
 430 -1 430 -1 -1 -1 c 1,6,7
 -1 142 -1 142 -1 574 c 1,0,1
EndSplineSet
EndChar

StartChar: IJ
Encoding: 306 306 253
Width: 574
Flags: W
LayerCount: 2
Fore
SplineSet
-1 574 m 1,0,1
 143 574 143 574 574 574 c 1,2,3
 574 430 574 430 574 -1 c 1,4,5
 430 -1 430 -1 -1 -1 c 1,6,7
 -1 142 -1 142 -1 574 c 1,0,1
EndSplineSet
EndChar

StartChar: ij
Encoding: 307 307 254
Width: 574
Flags: W
LayerCount: 2
Fore
SplineSet
-1 574 m 1,0,1
 143 574 143 574 574 574 c 1,2,3
 574 430 574 430 574 -1 c 1,4,5
 430 -1 430 -1 -1 -1 c 1,6,7
 -1 142 -1 142 -1 574 c 1,0,1
EndSplineSet
EndChar

StartChar: Jcircumflex
Encoding: 308 308 255
Width: 574
Flags: W
LayerCount: 2
Fore
SplineSet
-1 574 m 1,0,1
 143 574 143 574 574 574 c 1,2,3
 574 430 574 430 574 -1 c 1,4,5
 430 -1 430 -1 -1 -1 c 1,6,7
 -1 142 -1 142 -1 574 c 1,0,1
EndSplineSet
EndChar

StartChar: jcircumflex
Encoding: 309 309 256
Width: 574
Flags: W
LayerCount: 2
Fore
SplineSet
-1 574 m 1,0,1
 143 574 143 574 574 574 c 1,2,3
 574 430 574 430 574 -1 c 1,4,5
 430 -1 430 -1 -1 -1 c 1,6,7
 -1 142 -1 142 -1 574 c 1,0,1
EndSplineSet
EndChar

StartChar: uni0136
Encoding: 310 310 257
Width: 574
Flags: W
LayerCount: 2
Fore
SplineSet
-1 574 m 1,0,1
 143 574 143 574 574 574 c 1,2,3
 574 430 574 430 574 -1 c 1,4,5
 430 -1 430 -1 -1 -1 c 1,6,7
 -1 142 -1 142 -1 574 c 1,0,1
EndSplineSet
EndChar

StartChar: uni0137
Encoding: 311 311 258
Width: 574
Flags: W
LayerCount: 2
Fore
SplineSet
-1 574 m 1,0,1
 143 574 143 574 574 574 c 1,2,3
 574 430 574 430 574 -1 c 1,4,5
 430 -1 430 -1 -1 -1 c 1,6,7
 -1 142 -1 142 -1 574 c 1,0,1
EndSplineSet
EndChar

StartChar: kgreenlandic
Encoding: 312 312 259
Width: 574
Flags: W
LayerCount: 2
Fore
SplineSet
-1 574 m 1,0,1
 143 574 143 574 574 574 c 1,2,3
 574 430 574 430 574 -1 c 1,4,5
 430 -1 430 -1 -1 -1 c 1,6,7
 -1 142 -1 142 -1 574 c 1,0,1
EndSplineSet
EndChar

StartChar: Lacute
Encoding: 313 313 260
Width: 574
Flags: W
LayerCount: 2
Fore
SplineSet
-1 574 m 1,0,1
 143 574 143 574 574 574 c 1,2,3
 574 430 574 430 574 -1 c 1,4,5
 430 -1 430 -1 -1 -1 c 1,6,7
 -1 142 -1 142 -1 574 c 1,0,1
EndSplineSet
EndChar

StartChar: lacute
Encoding: 314 314 261
Width: 574
Flags: W
LayerCount: 2
Fore
SplineSet
-1 574 m 1,0,1
 143 574 143 574 574 574 c 1,2,3
 574 430 574 430 574 -1 c 1,4,5
 430 -1 430 -1 -1 -1 c 1,6,7
 -1 142 -1 142 -1 574 c 1,0,1
EndSplineSet
EndChar

StartChar: uni013B
Encoding: 315 315 262
Width: 574
Flags: W
LayerCount: 2
Fore
SplineSet
-1 574 m 1,0,1
 143 574 143 574 574 574 c 1,2,3
 574 430 574 430 574 -1 c 1,4,5
 430 -1 430 -1 -1 -1 c 1,6,7
 -1 142 -1 142 -1 574 c 1,0,1
EndSplineSet
EndChar

StartChar: uni013C
Encoding: 316 316 263
Width: 574
Flags: W
LayerCount: 2
Fore
SplineSet
-1 574 m 1,0,1
 143 574 143 574 574 574 c 1,2,3
 574 430 574 430 574 -1 c 1,4,5
 430 -1 430 -1 -1 -1 c 1,6,7
 -1 142 -1 142 -1 574 c 1,0,1
EndSplineSet
EndChar

StartChar: Lcaron
Encoding: 317 317 264
Width: 574
Flags: W
LayerCount: 2
Fore
SplineSet
-1 574 m 1,0,1
 143 574 143 574 574 574 c 1,2,3
 574 430 574 430 574 -1 c 1,4,5
 430 -1 430 -1 -1 -1 c 1,6,7
 -1 142 -1 142 -1 574 c 1,0,1
EndSplineSet
EndChar

StartChar: lcaron
Encoding: 318 318 265
Width: 574
Flags: W
LayerCount: 2
Fore
SplineSet
-1 574 m 1,0,1
 143 574 143 574 574 574 c 1,2,3
 574 430 574 430 574 -1 c 1,4,5
 430 -1 430 -1 -1 -1 c 1,6,7
 -1 142 -1 142 -1 574 c 1,0,1
EndSplineSet
EndChar

StartChar: Ldot
Encoding: 319 319 266
Width: 574
Flags: W
LayerCount: 2
Fore
SplineSet
-1 574 m 1,0,1
 143 574 143 574 574 574 c 1,2,3
 574 430 574 430 574 -1 c 1,4,5
 430 -1 430 -1 -1 -1 c 1,6,7
 -1 142 -1 142 -1 574 c 1,0,1
EndSplineSet
EndChar

StartChar: ldot
Encoding: 320 320 267
Width: 574
Flags: W
LayerCount: 2
Fore
SplineSet
-1 574 m 1,0,1
 143 574 143 574 574 574 c 1,2,3
 574 430 574 430 574 -1 c 1,4,5
 430 -1 430 -1 -1 -1 c 1,6,7
 -1 142 -1 142 -1 574 c 1,0,1
EndSplineSet
EndChar

StartChar: Lslash
Encoding: 321 321 268
Width: 574
Flags: W
LayerCount: 2
Fore
SplineSet
-1 574 m 1,0,1
 143 574 143 574 574 574 c 1,2,3
 574 430 574 430 574 -1 c 1,4,5
 430 -1 430 -1 -1 -1 c 1,6,7
 -1 142 -1 142 -1 574 c 1,0,1
EndSplineSet
EndChar

StartChar: lslash
Encoding: 322 322 269
Width: 574
Flags: W
LayerCount: 2
Fore
SplineSet
-1 574 m 1,0,1
 143 574 143 574 574 574 c 1,2,3
 574 430 574 430 574 -1 c 1,4,5
 430 -1 430 -1 -1 -1 c 1,6,7
 -1 142 -1 142 -1 574 c 1,0,1
EndSplineSet
EndChar

StartChar: Nacute
Encoding: 323 323 270
Width: 574
Flags: W
LayerCount: 2
Fore
SplineSet
-1 574 m 1,0,1
 143 574 143 574 574 574 c 1,2,3
 574 430 574 430 574 -1 c 1,4,5
 430 -1 430 -1 -1 -1 c 1,6,7
 -1 142 -1 142 -1 574 c 1,0,1
EndSplineSet
EndChar

StartChar: nacute
Encoding: 324 324 271
Width: 574
Flags: W
LayerCount: 2
Fore
SplineSet
-1 574 m 1,0,1
 143 574 143 574 574 574 c 1,2,3
 574 430 574 430 574 -1 c 1,4,5
 430 -1 430 -1 -1 -1 c 1,6,7
 -1 142 -1 142 -1 574 c 1,0,1
EndSplineSet
EndChar

StartChar: uni0145
Encoding: 325 325 272
Width: 574
Flags: W
LayerCount: 2
Fore
SplineSet
-1 574 m 1,0,1
 143 574 143 574 574 574 c 1,2,3
 574 430 574 430 574 -1 c 1,4,5
 430 -1 430 -1 -1 -1 c 1,6,7
 -1 142 -1 142 -1 574 c 1,0,1
EndSplineSet
EndChar

StartChar: uni0146
Encoding: 326 326 273
Width: 574
Flags: W
LayerCount: 2
Fore
SplineSet
-1 574 m 1,0,1
 143 574 143 574 574 574 c 1,2,3
 574 430 574 430 574 -1 c 1,4,5
 430 -1 430 -1 -1 -1 c 1,6,7
 -1 142 -1 142 -1 574 c 1,0,1
EndSplineSet
EndChar

StartChar: Ncaron
Encoding: 327 327 274
Width: 574
Flags: W
LayerCount: 2
Fore
SplineSet
-1 574 m 1,0,1
 143 574 143 574 574 574 c 1,2,3
 574 430 574 430 574 -1 c 1,4,5
 430 -1 430 -1 -1 -1 c 1,6,7
 -1 142 -1 142 -1 574 c 1,0,1
EndSplineSet
EndChar

StartChar: ncaron
Encoding: 328 328 275
Width: 574
Flags: W
LayerCount: 2
Fore
SplineSet
-1 574 m 1,0,1
 143 574 143 574 574 574 c 1,2,3
 574 430 574 430 574 -1 c 1,4,5
 430 -1 430 -1 -1 -1 c 1,6,7
 -1 142 -1 142 -1 574 c 1,0,1
EndSplineSet
EndChar

StartChar: napostrophe
Encoding: 329 329 276
Width: 574
Flags: W
LayerCount: 2
Fore
SplineSet
-1 574 m 1,0,1
 143 574 143 574 574 574 c 1,2,3
 574 430 574 430 574 -1 c 1,4,5
 430 -1 430 -1 -1 -1 c 1,6,7
 -1 142 -1 142 -1 574 c 1,0,1
EndSplineSet
EndChar

StartChar: Eng
Encoding: 330 330 277
Width: 574
Flags: W
LayerCount: 2
Fore
SplineSet
-1 574 m 1,0,1
 143 574 143 574 574 574 c 1,2,3
 574 430 574 430 574 -1 c 1,4,5
 430 -1 430 -1 -1 -1 c 1,6,7
 -1 142 -1 142 -1 574 c 1,0,1
EndSplineSet
EndChar

StartChar: eng
Encoding: 331 331 278
Width: 574
Flags: W
LayerCount: 2
Fore
SplineSet
-1 574 m 1,0,1
 143 574 143 574 574 574 c 1,2,3
 574 430 574 430 574 -1 c 1,4,5
 430 -1 430 -1 -1 -1 c 1,6,7
 -1 142 -1 142 -1 574 c 1,0,1
EndSplineSet
EndChar

StartChar: Omacron
Encoding: 332 332 279
Width: 574
Flags: W
LayerCount: 2
Fore
SplineSet
-1 574 m 1,0,1
 143 574 143 574 574 574 c 1,2,3
 574 430 574 430 574 -1 c 1,4,5
 430 -1 430 -1 -1 -1 c 1,6,7
 -1 142 -1 142 -1 574 c 1,0,1
EndSplineSet
EndChar

StartChar: omacron
Encoding: 333 333 280
Width: 574
Flags: W
LayerCount: 2
Fore
SplineSet
-1 574 m 1,0,1
 143 574 143 574 574 574 c 1,2,3
 574 430 574 430 574 -1 c 1,4,5
 430 -1 430 -1 -1 -1 c 1,6,7
 -1 142 -1 142 -1 574 c 1,0,1
EndSplineSet
EndChar

StartChar: Obreve
Encoding: 334 334 281
Width: 574
Flags: W
LayerCount: 2
Fore
SplineSet
-1 574 m 1,0,1
 143 574 143 574 574 574 c 1,2,3
 574 430 574 430 574 -1 c 1,4,5
 430 -1 430 -1 -1 -1 c 1,6,7
 -1 142 -1 142 -1 574 c 1,0,1
EndSplineSet
EndChar

StartChar: obreve
Encoding: 335 335 282
Width: 574
Flags: W
LayerCount: 2
Fore
SplineSet
-1 574 m 1,0,1
 143 574 143 574 574 574 c 1,2,3
 574 430 574 430 574 -1 c 1,4,5
 430 -1 430 -1 -1 -1 c 1,6,7
 -1 142 -1 142 -1 574 c 1,0,1
EndSplineSet
EndChar

StartChar: Ohungarumlaut
Encoding: 336 336 283
Width: 574
Flags: W
LayerCount: 2
Fore
SplineSet
-1 574 m 1,0,1
 143 574 143 574 574 574 c 1,2,3
 574 430 574 430 574 -1 c 1,4,5
 430 -1 430 -1 -1 -1 c 1,6,7
 -1 142 -1 142 -1 574 c 1,0,1
EndSplineSet
EndChar

StartChar: ohungarumlaut
Encoding: 337 337 284
Width: 574
Flags: W
LayerCount: 2
Fore
SplineSet
-1 574 m 1,0,1
 143 574 143 574 574 574 c 1,2,3
 574 430 574 430 574 -1 c 1,4,5
 430 -1 430 -1 -1 -1 c 1,6,7
 -1 142 -1 142 -1 574 c 1,0,1
EndSplineSet
EndChar

StartChar: OE
Encoding: 338 338 285
Width: 574
Flags: W
LayerCount: 2
Fore
SplineSet
-1 574 m 1,0,1
 143 574 143 574 574 574 c 1,2,3
 574 430 574 430 574 -1 c 1,4,5
 430 -1 430 -1 -1 -1 c 1,6,7
 -1 142 -1 142 -1 574 c 1,0,1
EndSplineSet
EndChar

StartChar: oe
Encoding: 339 339 286
Width: 574
Flags: W
LayerCount: 2
Fore
SplineSet
-1 574 m 1,0,1
 143 574 143 574 574 574 c 1,2,3
 574 430 574 430 574 -1 c 1,4,5
 430 -1 430 -1 -1 -1 c 1,6,7
 -1 142 -1 142 -1 574 c 1,0,1
EndSplineSet
EndChar

StartChar: Racute
Encoding: 340 340 287
Width: 574
Flags: W
LayerCount: 2
Fore
SplineSet
-1 574 m 1,0,1
 143 574 143 574 574 574 c 1,2,3
 574 430 574 430 574 -1 c 1,4,5
 430 -1 430 -1 -1 -1 c 1,6,7
 -1 142 -1 142 -1 574 c 1,0,1
EndSplineSet
EndChar

StartChar: racute
Encoding: 341 341 288
Width: 574
Flags: W
LayerCount: 2
Fore
SplineSet
-1 574 m 1,0,1
 143 574 143 574 574 574 c 1,2,3
 574 430 574 430 574 -1 c 1,4,5
 430 -1 430 -1 -1 -1 c 1,6,7
 -1 142 -1 142 -1 574 c 1,0,1
EndSplineSet
EndChar

StartChar: uni0156
Encoding: 342 342 289
Width: 574
Flags: W
LayerCount: 2
Fore
SplineSet
-1 574 m 1,0,1
 143 574 143 574 574 574 c 1,2,3
 574 430 574 430 574 -1 c 1,4,5
 430 -1 430 -1 -1 -1 c 1,6,7
 -1 142 -1 142 -1 574 c 1,0,1
EndSplineSet
EndChar

StartChar: uni0157
Encoding: 343 343 290
Width: 574
Flags: W
LayerCount: 2
Fore
SplineSet
-1 574 m 1,0,1
 143 574 143 574 574 574 c 1,2,3
 574 430 574 430 574 -1 c 1,4,5
 430 -1 430 -1 -1 -1 c 1,6,7
 -1 142 -1 142 -1 574 c 1,0,1
EndSplineSet
EndChar

StartChar: Rcaron
Encoding: 344 344 291
Width: 574
Flags: W
LayerCount: 2
Fore
SplineSet
-1 574 m 1,0,1
 143 574 143 574 574 574 c 1,2,3
 574 430 574 430 574 -1 c 1,4,5
 430 -1 430 -1 -1 -1 c 1,6,7
 -1 142 -1 142 -1 574 c 1,0,1
EndSplineSet
EndChar

StartChar: rcaron
Encoding: 345 345 292
Width: 574
Flags: W
LayerCount: 2
Fore
SplineSet
-1 574 m 1,0,1
 143 574 143 574 574 574 c 1,2,3
 574 430 574 430 574 -1 c 1,4,5
 430 -1 430 -1 -1 -1 c 1,6,7
 -1 142 -1 142 -1 574 c 1,0,1
EndSplineSet
EndChar

StartChar: Sacute
Encoding: 346 346 293
Width: 574
Flags: W
LayerCount: 2
Fore
SplineSet
-1 574 m 1,0,1
 143 574 143 574 574 574 c 1,2,3
 574 430 574 430 574 -1 c 1,4,5
 430 -1 430 -1 -1 -1 c 1,6,7
 -1 142 -1 142 -1 574 c 1,0,1
EndSplineSet
EndChar

StartChar: sacute
Encoding: 347 347 294
Width: 574
Flags: W
LayerCount: 2
Fore
SplineSet
-1 574 m 1,0,1
 143 574 143 574 574 574 c 1,2,3
 574 430 574 430 574 -1 c 1,4,5
 430 -1 430 -1 -1 -1 c 1,6,7
 -1 142 -1 142 -1 574 c 1,0,1
EndSplineSet
EndChar

StartChar: Scircumflex
Encoding: 348 348 295
Width: 574
Flags: W
LayerCount: 2
Fore
SplineSet
-1 574 m 1,0,1
 143 574 143 574 574 574 c 1,2,3
 574 430 574 430 574 -1 c 1,4,5
 430 -1 430 -1 -1 -1 c 1,6,7
 -1 142 -1 142 -1 574 c 1,0,1
EndSplineSet
EndChar

StartChar: scircumflex
Encoding: 349 349 296
Width: 574
Flags: W
LayerCount: 2
Fore
SplineSet
-1 574 m 1,0,1
 143 574 143 574 574 574 c 1,2,3
 574 430 574 430 574 -1 c 1,4,5
 430 -1 430 -1 -1 -1 c 1,6,7
 -1 142 -1 142 -1 574 c 1,0,1
EndSplineSet
EndChar

StartChar: Scedilla
Encoding: 350 350 297
Width: 574
Flags: W
LayerCount: 2
Fore
SplineSet
-1 574 m 1,0,1
 143 574 143 574 574 574 c 1,2,3
 574 430 574 430 574 -1 c 1,4,5
 430 -1 430 -1 -1 -1 c 1,6,7
 -1 142 -1 142 -1 574 c 1,0,1
EndSplineSet
EndChar

StartChar: scedilla
Encoding: 351 351 298
Width: 574
Flags: W
LayerCount: 2
Fore
SplineSet
-1 574 m 1,0,1
 143 574 143 574 574 574 c 1,2,3
 574 430 574 430 574 -1 c 1,4,5
 430 -1 430 -1 -1 -1 c 1,6,7
 -1 142 -1 142 -1 574 c 1,0,1
EndSplineSet
EndChar

StartChar: Scaron
Encoding: 352 352 299
Width: 574
Flags: W
LayerCount: 2
Fore
SplineSet
-1 574 m 1,0,1
 143 574 143 574 574 574 c 1,2,3
 574 430 574 430 574 -1 c 1,4,5
 430 -1 430 -1 -1 -1 c 1,6,7
 -1 142 -1 142 -1 574 c 1,0,1
EndSplineSet
EndChar

StartChar: scaron
Encoding: 353 353 300
Width: 574
Flags: W
LayerCount: 2
Fore
SplineSet
-1 574 m 1,0,1
 143 574 143 574 574 574 c 1,2,3
 574 430 574 430 574 -1 c 1,4,5
 430 -1 430 -1 -1 -1 c 1,6,7
 -1 142 -1 142 -1 574 c 1,0,1
EndSplineSet
EndChar

StartChar: uni0162
Encoding: 354 354 301
Width: 574
Flags: W
LayerCount: 2
Fore
SplineSet
-1 574 m 1,0,1
 143 574 143 574 574 574 c 1,2,3
 574 430 574 430 574 -1 c 1,4,5
 430 -1 430 -1 -1 -1 c 1,6,7
 -1 142 -1 142 -1 574 c 1,0,1
EndSplineSet
EndChar

StartChar: uni0163
Encoding: 355 355 302
Width: 574
Flags: W
LayerCount: 2
Fore
SplineSet
-1 574 m 1,0,1
 143 574 143 574 574 574 c 1,2,3
 574 430 574 430 574 -1 c 1,4,5
 430 -1 430 -1 -1 -1 c 1,6,7
 -1 142 -1 142 -1 574 c 1,0,1
EndSplineSet
EndChar

StartChar: Tcaron
Encoding: 356 356 303
Width: 574
Flags: W
LayerCount: 2
Fore
SplineSet
-1 574 m 1,0,1
 143 574 143 574 574 574 c 1,2,3
 574 430 574 430 574 -1 c 1,4,5
 430 -1 430 -1 -1 -1 c 1,6,7
 -1 142 -1 142 -1 574 c 1,0,1
EndSplineSet
EndChar

StartChar: tcaron
Encoding: 357 357 304
Width: 574
Flags: W
LayerCount: 2
Fore
SplineSet
-1 574 m 1,0,1
 143 574 143 574 574 574 c 1,2,3
 574 430 574 430 574 -1 c 1,4,5
 430 -1 430 -1 -1 -1 c 1,6,7
 -1 142 -1 142 -1 574 c 1,0,1
EndSplineSet
EndChar

StartChar: Tbar
Encoding: 358 358 305
Width: 574
Flags: W
LayerCount: 2
Fore
SplineSet
-1 574 m 1,0,1
 143 574 143 574 574 574 c 1,2,3
 574 430 574 430 574 -1 c 1,4,5
 430 -1 430 -1 -1 -1 c 1,6,7
 -1 142 -1 142 -1 574 c 1,0,1
EndSplineSet
EndChar

StartChar: tbar
Encoding: 359 359 306
Width: 574
Flags: W
LayerCount: 2
Fore
SplineSet
-1 574 m 1,0,1
 143 574 143 574 574 574 c 1,2,3
 574 430 574 430 574 -1 c 1,4,5
 430 -1 430 -1 -1 -1 c 1,6,7
 -1 142 -1 142 -1 574 c 1,0,1
EndSplineSet
EndChar

StartChar: Utilde
Encoding: 360 360 307
Width: 574
Flags: W
LayerCount: 2
Fore
SplineSet
-1 574 m 1,0,1
 143 574 143 574 574 574 c 1,2,3
 574 430 574 430 574 -1 c 1,4,5
 430 -1 430 -1 -1 -1 c 1,6,7
 -1 142 -1 142 -1 574 c 1,0,1
EndSplineSet
EndChar

StartChar: utilde
Encoding: 361 361 308
Width: 574
Flags: W
LayerCount: 2
Fore
SplineSet
-1 574 m 1,0,1
 143 574 143 574 574 574 c 1,2,3
 574 430 574 430 574 -1 c 1,4,5
 430 -1 430 -1 -1 -1 c 1,6,7
 -1 142 -1 142 -1 574 c 1,0,1
EndSplineSet
EndChar

StartChar: Umacron
Encoding: 362 362 309
Width: 574
Flags: W
LayerCount: 2
Fore
SplineSet
-1 574 m 1,0,1
 143 574 143 574 574 574 c 1,2,3
 574 430 574 430 574 -1 c 1,4,5
 430 -1 430 -1 -1 -1 c 1,6,7
 -1 142 -1 142 -1 574 c 1,0,1
EndSplineSet
EndChar

StartChar: umacron
Encoding: 363 363 310
Width: 574
Flags: W
LayerCount: 2
Fore
SplineSet
-1 574 m 1,0,1
 143 574 143 574 574 574 c 1,2,3
 574 430 574 430 574 -1 c 1,4,5
 430 -1 430 -1 -1 -1 c 1,6,7
 -1 142 -1 142 -1 574 c 1,0,1
EndSplineSet
EndChar

StartChar: Ubreve
Encoding: 364 364 311
Width: 574
Flags: W
LayerCount: 2
Fore
SplineSet
-1 574 m 1,0,1
 143 574 143 574 574 574 c 1,2,3
 574 430 574 430 574 -1 c 1,4,5
 430 -1 430 -1 -1 -1 c 1,6,7
 -1 142 -1 142 -1 574 c 1,0,1
EndSplineSet
EndChar

StartChar: ubreve
Encoding: 365 365 312
Width: 574
Flags: W
LayerCount: 2
Fore
SplineSet
-1 574 m 1,0,1
 143 574 143 574 574 574 c 1,2,3
 574 430 574 430 574 -1 c 1,4,5
 430 -1 430 -1 -1 -1 c 1,6,7
 -1 142 -1 142 -1 574 c 1,0,1
EndSplineSet
EndChar

StartChar: Uring
Encoding: 366 366 313
Width: 574
Flags: W
LayerCount: 2
Fore
SplineSet
-1 574 m 1,0,1
 143 574 143 574 574 574 c 1,2,3
 574 430 574 430 574 -1 c 1,4,5
 430 -1 430 -1 -1 -1 c 1,6,7
 -1 142 -1 142 -1 574 c 1,0,1
EndSplineSet
EndChar

StartChar: uring
Encoding: 367 367 314
Width: 574
Flags: W
LayerCount: 2
Fore
SplineSet
-1 574 m 1,0,1
 143 574 143 574 574 574 c 1,2,3
 574 430 574 430 574 -1 c 1,4,5
 430 -1 430 -1 -1 -1 c 1,6,7
 -1 142 -1 142 -1 574 c 1,0,1
EndSplineSet
EndChar

StartChar: Uhungarumlaut
Encoding: 368 368 315
Width: 574
Flags: W
LayerCount: 2
Fore
SplineSet
-1 574 m 1,0,1
 143 574 143 574 574 574 c 1,2,3
 574 430 574 430 574 -1 c 1,4,5
 430 -1 430 -1 -1 -1 c 1,6,7
 -1 142 -1 142 -1 574 c 1,0,1
EndSplineSet
EndChar

StartChar: uhungarumlaut
Encoding: 369 369 316
Width: 574
Flags: W
LayerCount: 2
Fore
SplineSet
-1 574 m 1,0,1
 143 574 143 574 574 574 c 1,2,3
 574 430 574 430 574 -1 c 1,4,5
 430 -1 430 -1 -1 -1 c 1,6,7
 -1 142 -1 142 -1 574 c 1,0,1
EndSplineSet
EndChar

StartChar: Uogonek
Encoding: 370 370 317
Width: 574
Flags: W
LayerCount: 2
Fore
SplineSet
-1 574 m 1,0,1
 143 574 143 574 574 574 c 1,2,3
 574 430 574 430 574 -1 c 1,4,5
 430 -1 430 -1 -1 -1 c 1,6,7
 -1 142 -1 142 -1 574 c 1,0,1
EndSplineSet
EndChar

StartChar: uogonek
Encoding: 371 371 318
Width: 574
Flags: W
LayerCount: 2
Fore
SplineSet
-1 574 m 1,0,1
 143 574 143 574 574 574 c 1,2,3
 574 430 574 430 574 -1 c 1,4,5
 430 -1 430 -1 -1 -1 c 1,6,7
 -1 142 -1 142 -1 574 c 1,0,1
EndSplineSet
EndChar

StartChar: Wcircumflex
Encoding: 372 372 319
Width: 574
Flags: W
LayerCount: 2
Fore
SplineSet
-1 574 m 1,0,1
 143 574 143 574 574 574 c 1,2,3
 574 430 574 430 574 -1 c 1,4,5
 430 -1 430 -1 -1 -1 c 1,6,7
 -1 142 -1 142 -1 574 c 1,0,1
EndSplineSet
EndChar

StartChar: wcircumflex
Encoding: 373 373 320
Width: 574
Flags: W
LayerCount: 2
Fore
SplineSet
-1 574 m 1,0,1
 143 574 143 574 574 574 c 1,2,3
 574 430 574 430 574 -1 c 1,4,5
 430 -1 430 -1 -1 -1 c 1,6,7
 -1 142 -1 142 -1 574 c 1,0,1
EndSplineSet
EndChar

StartChar: Ycircumflex
Encoding: 374 374 321
Width: 574
Flags: W
LayerCount: 2
Fore
SplineSet
-1 574 m 1,0,1
 143 574 143 574 574 574 c 1,2,3
 574 430 574 430 574 -1 c 1,4,5
 430 -1 430 -1 -1 -1 c 1,6,7
 -1 142 -1 142 -1 574 c 1,0,1
EndSplineSet
EndChar

StartChar: ycircumflex
Encoding: 375 375 322
Width: 574
Flags: W
LayerCount: 2
Fore
SplineSet
-1 574 m 1,0,1
 143 574 143 574 574 574 c 1,2,3
 574 430 574 430 574 -1 c 1,4,5
 430 -1 430 -1 -1 -1 c 1,6,7
 -1 142 -1 142 -1 574 c 1,0,1
EndSplineSet
EndChar

StartChar: Ydieresis
Encoding: 376 376 323
Width: 574
Flags: W
LayerCount: 2
Fore
SplineSet
-1 574 m 1,0,1
 143 574 143 574 574 574 c 1,2,3
 574 430 574 430 574 -1 c 1,4,5
 430 -1 430 -1 -1 -1 c 1,6,7
 -1 142 -1 142 -1 574 c 1,0,1
EndSplineSet
EndChar

StartChar: Zacute
Encoding: 377 377 324
Width: 574
Flags: W
LayerCount: 2
Fore
SplineSet
-1 574 m 1,0,1
 143 574 143 574 574 574 c 1,2,3
 574 430 574 430 574 -1 c 1,4,5
 430 -1 430 -1 -1 -1 c 1,6,7
 -1 142 -1 142 -1 574 c 1,0,1
EndSplineSet
EndChar

StartChar: zacute
Encoding: 378 378 325
Width: 574
Flags: W
LayerCount: 2
Fore
SplineSet
-1 574 m 1,0,1
 143 574 143 574 574 574 c 1,2,3
 574 430 574 430 574 -1 c 1,4,5
 430 -1 430 -1 -1 -1 c 1,6,7
 -1 142 -1 142 -1 574 c 1,0,1
EndSplineSet
EndChar

StartChar: Zdotaccent
Encoding: 379 379 326
Width: 574
Flags: W
LayerCount: 2
Fore
SplineSet
-1 574 m 1,0,1
 143 574 143 574 574 574 c 1,2,3
 574 430 574 430 574 -1 c 1,4,5
 430 -1 430 -1 -1 -1 c 1,6,7
 -1 142 -1 142 -1 574 c 1,0,1
EndSplineSet
EndChar

StartChar: zdotaccent
Encoding: 380 380 327
Width: 574
Flags: W
LayerCount: 2
Fore
SplineSet
-1 574 m 1,0,1
 143 574 143 574 574 574 c 1,2,3
 574 430 574 430 574 -1 c 1,4,5
 430 -1 430 -1 -1 -1 c 1,6,7
 -1 142 -1 142 -1 574 c 1,0,1
EndSplineSet
EndChar

StartChar: Zcaron
Encoding: 381 381 328
Width: 574
Flags: W
LayerCount: 2
Fore
SplineSet
-1 574 m 1,0,1
 143 574 143 574 574 574 c 1,2,3
 574 430 574 430 574 -1 c 1,4,5
 430 -1 430 -1 -1 -1 c 1,6,7
 -1 142 -1 142 -1 574 c 1,0,1
EndSplineSet
EndChar

StartChar: zcaron
Encoding: 382 382 329
Width: 574
Flags: W
LayerCount: 2
Fore
SplineSet
-1 574 m 1,0,1
 143 574 143 574 574 574 c 1,2,3
 574 430 574 430 574 -1 c 1,4,5
 430 -1 430 -1 -1 -1 c 1,6,7
 -1 142 -1 142 -1 574 c 1,0,1
EndSplineSet
EndChar

StartChar: longs
Encoding: 383 383 330
Width: 574
Flags: W
LayerCount: 2
Fore
SplineSet
-1 574 m 1,0,1
 143 574 143 574 574 574 c 1,2,3
 574 430 574 430 574 -1 c 1,4,5
 430 -1 430 -1 -1 -1 c 1,6,7
 -1 142 -1 142 -1 574 c 1,0,1
EndSplineSet
EndChar

StartChar: uni0180
Encoding: 384 384 331
Width: 574
Flags: W
LayerCount: 2
Fore
SplineSet
-1 574 m 1,0,1
 143 574 143 574 574 574 c 1,2,3
 574 430 574 430 574 -1 c 1,4,5
 430 -1 430 -1 -1 -1 c 1,6,7
 -1 142 -1 142 -1 574 c 1,0,1
EndSplineSet
EndChar

StartChar: uni0181
Encoding: 385 385 332
Width: 574
Flags: W
LayerCount: 2
Fore
SplineSet
-1 574 m 1,0,1
 143 574 143 574 574 574 c 1,2,3
 574 430 574 430 574 -1 c 1,4,5
 430 -1 430 -1 -1 -1 c 1,6,7
 -1 142 -1 142 -1 574 c 1,0,1
EndSplineSet
EndChar

StartChar: uni0182
Encoding: 386 386 333
Width: 574
Flags: W
LayerCount: 2
Fore
SplineSet
-1 574 m 1,0,1
 143 574 143 574 574 574 c 1,2,3
 574 430 574 430 574 -1 c 1,4,5
 430 -1 430 -1 -1 -1 c 1,6,7
 -1 142 -1 142 -1 574 c 1,0,1
EndSplineSet
EndChar

StartChar: uni0183
Encoding: 387 387 334
Width: 574
Flags: W
LayerCount: 2
Fore
SplineSet
-1 574 m 1,0,1
 143 574 143 574 574 574 c 1,2,3
 574 430 574 430 574 -1 c 1,4,5
 430 -1 430 -1 -1 -1 c 1,6,7
 -1 142 -1 142 -1 574 c 1,0,1
EndSplineSet
EndChar

StartChar: uni0184
Encoding: 388 388 335
Width: 574
Flags: W
LayerCount: 2
Fore
SplineSet
-1 574 m 1,0,1
 143 574 143 574 574 574 c 1,2,3
 574 430 574 430 574 -1 c 1,4,5
 430 -1 430 -1 -1 -1 c 1,6,7
 -1 142 -1 142 -1 574 c 1,0,1
EndSplineSet
EndChar

StartChar: uni0185
Encoding: 389 389 336
Width: 574
Flags: W
LayerCount: 2
Fore
SplineSet
-1 574 m 1,0,1
 143 574 143 574 574 574 c 1,2,3
 574 430 574 430 574 -1 c 1,4,5
 430 -1 430 -1 -1 -1 c 1,6,7
 -1 142 -1 142 -1 574 c 1,0,1
EndSplineSet
EndChar

StartChar: uni0186
Encoding: 390 390 337
Width: 574
Flags: W
LayerCount: 2
Fore
SplineSet
-1 574 m 1,0,1
 143 574 143 574 574 574 c 1,2,3
 574 430 574 430 574 -1 c 1,4,5
 430 -1 430 -1 -1 -1 c 1,6,7
 -1 142 -1 142 -1 574 c 1,0,1
EndSplineSet
EndChar

StartChar: uni0187
Encoding: 391 391 338
Width: 574
Flags: W
LayerCount: 2
Fore
SplineSet
-1 574 m 1,0,1
 143 574 143 574 574 574 c 1,2,3
 574 430 574 430 574 -1 c 1,4,5
 430 -1 430 -1 -1 -1 c 1,6,7
 -1 142 -1 142 -1 574 c 1,0,1
EndSplineSet
EndChar

StartChar: uni0188
Encoding: 392 392 339
Width: 574
Flags: W
LayerCount: 2
Fore
SplineSet
-1 574 m 1,0,1
 143 574 143 574 574 574 c 1,2,3
 574 430 574 430 574 -1 c 1,4,5
 430 -1 430 -1 -1 -1 c 1,6,7
 -1 142 -1 142 -1 574 c 1,0,1
EndSplineSet
EndChar

StartChar: uni0189
Encoding: 393 393 340
Width: 574
Flags: W
LayerCount: 2
Fore
SplineSet
-1 574 m 1,0,1
 143 574 143 574 574 574 c 1,2,3
 574 430 574 430 574 -1 c 1,4,5
 430 -1 430 -1 -1 -1 c 1,6,7
 -1 142 -1 142 -1 574 c 1,0,1
EndSplineSet
EndChar

StartChar: uni018A
Encoding: 394 394 341
Width: 574
Flags: W
LayerCount: 2
Fore
SplineSet
-1 574 m 1,0,1
 143 574 143 574 574 574 c 1,2,3
 574 430 574 430 574 -1 c 1,4,5
 430 -1 430 -1 -1 -1 c 1,6,7
 -1 142 -1 142 -1 574 c 1,0,1
EndSplineSet
EndChar

StartChar: uni018B
Encoding: 395 395 342
Width: 574
Flags: W
LayerCount: 2
Fore
SplineSet
-1 574 m 1,0,1
 143 574 143 574 574 574 c 1,2,3
 574 430 574 430 574 -1 c 1,4,5
 430 -1 430 -1 -1 -1 c 1,6,7
 -1 142 -1 142 -1 574 c 1,0,1
EndSplineSet
EndChar

StartChar: uni018C
Encoding: 396 396 343
Width: 574
Flags: W
LayerCount: 2
Fore
SplineSet
-1 574 m 1,0,1
 143 574 143 574 574 574 c 1,2,3
 574 430 574 430 574 -1 c 1,4,5
 430 -1 430 -1 -1 -1 c 1,6,7
 -1 142 -1 142 -1 574 c 1,0,1
EndSplineSet
EndChar

StartChar: uni018D
Encoding: 397 397 344
Width: 574
Flags: W
LayerCount: 2
Fore
SplineSet
-1 574 m 1,0,1
 143 574 143 574 574 574 c 1,2,3
 574 430 574 430 574 -1 c 1,4,5
 430 -1 430 -1 -1 -1 c 1,6,7
 -1 142 -1 142 -1 574 c 1,0,1
EndSplineSet
EndChar

StartChar: uni018E
Encoding: 398 398 345
Width: 574
Flags: W
LayerCount: 2
Fore
SplineSet
-1 574 m 1,0,1
 143 574 143 574 574 574 c 1,2,3
 574 430 574 430 574 -1 c 1,4,5
 430 -1 430 -1 -1 -1 c 1,6,7
 -1 142 -1 142 -1 574 c 1,0,1
EndSplineSet
EndChar

StartChar: uni018F
Encoding: 399 399 346
Width: 574
Flags: W
LayerCount: 2
Fore
SplineSet
-1 574 m 1,0,1
 143 574 143 574 574 574 c 1,2,3
 574 430 574 430 574 -1 c 1,4,5
 430 -1 430 -1 -1 -1 c 1,6,7
 -1 142 -1 142 -1 574 c 1,0,1
EndSplineSet
EndChar

StartChar: uni0190
Encoding: 400 400 347
Width: 574
Flags: W
LayerCount: 2
Fore
SplineSet
-1 574 m 1,0,1
 143 574 143 574 574 574 c 1,2,3
 574 430 574 430 574 -1 c 1,4,5
 430 -1 430 -1 -1 -1 c 1,6,7
 -1 142 -1 142 -1 574 c 1,0,1
EndSplineSet
EndChar

StartChar: uni0191
Encoding: 401 401 348
Width: 574
Flags: W
LayerCount: 2
Fore
SplineSet
-1 574 m 1,0,1
 143 574 143 574 574 574 c 1,2,3
 574 430 574 430 574 -1 c 1,4,5
 430 -1 430 -1 -1 -1 c 1,6,7
 -1 142 -1 142 -1 574 c 1,0,1
EndSplineSet
EndChar

StartChar: florin
Encoding: 402 402 349
Width: 574
Flags: W
LayerCount: 2
Fore
SplineSet
-1 574 m 1,0,1
 143 574 143 574 574 574 c 1,2,3
 574 430 574 430 574 -1 c 1,4,5
 430 -1 430 -1 -1 -1 c 1,6,7
 -1 142 -1 142 -1 574 c 1,0,1
EndSplineSet
EndChar

StartChar: uni0193
Encoding: 403 403 350
Width: 574
Flags: W
LayerCount: 2
Fore
SplineSet
-1 574 m 1,0,1
 143 574 143 574 574 574 c 1,2,3
 574 430 574 430 574 -1 c 1,4,5
 430 -1 430 -1 -1 -1 c 1,6,7
 -1 142 -1 142 -1 574 c 1,0,1
EndSplineSet
EndChar

StartChar: uni0194
Encoding: 404 404 351
Width: 574
Flags: W
LayerCount: 2
Fore
SplineSet
-1 574 m 1,0,1
 143 574 143 574 574 574 c 1,2,3
 574 430 574 430 574 -1 c 1,4,5
 430 -1 430 -1 -1 -1 c 1,6,7
 -1 142 -1 142 -1 574 c 1,0,1
EndSplineSet
EndChar

StartChar: uni0195
Encoding: 405 405 352
Width: 574
Flags: W
LayerCount: 2
Fore
SplineSet
-1 574 m 1,0,1
 143 574 143 574 574 574 c 1,2,3
 574 430 574 430 574 -1 c 1,4,5
 430 -1 430 -1 -1 -1 c 1,6,7
 -1 142 -1 142 -1 574 c 1,0,1
EndSplineSet
EndChar

StartChar: uni0196
Encoding: 406 406 353
Width: 574
Flags: W
LayerCount: 2
Fore
SplineSet
-1 574 m 1,0,1
 143 574 143 574 574 574 c 1,2,3
 574 430 574 430 574 -1 c 1,4,5
 430 -1 430 -1 -1 -1 c 1,6,7
 -1 142 -1 142 -1 574 c 1,0,1
EndSplineSet
EndChar

StartChar: uni0197
Encoding: 407 407 354
Width: 574
Flags: W
LayerCount: 2
Fore
SplineSet
-1 574 m 1,0,1
 143 574 143 574 574 574 c 1,2,3
 574 430 574 430 574 -1 c 1,4,5
 430 -1 430 -1 -1 -1 c 1,6,7
 -1 142 -1 142 -1 574 c 1,0,1
EndSplineSet
EndChar

StartChar: uni0198
Encoding: 408 408 355
Width: 574
Flags: W
LayerCount: 2
Fore
SplineSet
-1 574 m 1,0,1
 143 574 143 574 574 574 c 1,2,3
 574 430 574 430 574 -1 c 1,4,5
 430 -1 430 -1 -1 -1 c 1,6,7
 -1 142 -1 142 -1 574 c 1,0,1
EndSplineSet
EndChar

StartChar: uni0199
Encoding: 409 409 356
Width: 574
Flags: W
LayerCount: 2
Fore
SplineSet
-1 574 m 1,0,1
 143 574 143 574 574 574 c 1,2,3
 574 430 574 430 574 -1 c 1,4,5
 430 -1 430 -1 -1 -1 c 1,6,7
 -1 142 -1 142 -1 574 c 1,0,1
EndSplineSet
EndChar

StartChar: uni019A
Encoding: 410 410 357
Width: 574
Flags: W
LayerCount: 2
Fore
SplineSet
-1 574 m 1,0,1
 143 574 143 574 574 574 c 1,2,3
 574 430 574 430 574 -1 c 1,4,5
 430 -1 430 -1 -1 -1 c 1,6,7
 -1 142 -1 142 -1 574 c 1,0,1
EndSplineSet
EndChar

StartChar: uni019B
Encoding: 411 411 358
Width: 574
Flags: W
LayerCount: 2
Fore
SplineSet
-1 574 m 1,0,1
 143 574 143 574 574 574 c 1,2,3
 574 430 574 430 574 -1 c 1,4,5
 430 -1 430 -1 -1 -1 c 1,6,7
 -1 142 -1 142 -1 574 c 1,0,1
EndSplineSet
EndChar

StartChar: uni019C
Encoding: 412 412 359
Width: 574
Flags: W
LayerCount: 2
Fore
SplineSet
-1 574 m 1,0,1
 143 574 143 574 574 574 c 1,2,3
 574 430 574 430 574 -1 c 1,4,5
 430 -1 430 -1 -1 -1 c 1,6,7
 -1 142 -1 142 -1 574 c 1,0,1
EndSplineSet
EndChar

StartChar: uni019D
Encoding: 413 413 360
Width: 574
Flags: W
LayerCount: 2
Fore
SplineSet
-1 574 m 1,0,1
 143 574 143 574 574 574 c 1,2,3
 574 430 574 430 574 -1 c 1,4,5
 430 -1 430 -1 -1 -1 c 1,6,7
 -1 142 -1 142 -1 574 c 1,0,1
EndSplineSet
EndChar

StartChar: uni019E
Encoding: 414 414 361
Width: 574
Flags: W
LayerCount: 2
Fore
SplineSet
-1 574 m 1,0,1
 143 574 143 574 574 574 c 1,2,3
 574 430 574 430 574 -1 c 1,4,5
 430 -1 430 -1 -1 -1 c 1,6,7
 -1 142 -1 142 -1 574 c 1,0,1
EndSplineSet
EndChar

StartChar: uni019F
Encoding: 415 415 362
Width: 574
Flags: W
LayerCount: 2
Fore
SplineSet
-1 574 m 1,0,1
 143 574 143 574 574 574 c 1,2,3
 574 430 574 430 574 -1 c 1,4,5
 430 -1 430 -1 -1 -1 c 1,6,7
 -1 142 -1 142 -1 574 c 1,0,1
EndSplineSet
EndChar

StartChar: Ohorn
Encoding: 416 416 363
Width: 574
Flags: W
LayerCount: 2
Fore
SplineSet
-1 574 m 1,0,1
 143 574 143 574 574 574 c 1,2,3
 574 430 574 430 574 -1 c 1,4,5
 430 -1 430 -1 -1 -1 c 1,6,7
 -1 142 -1 142 -1 574 c 1,0,1
EndSplineSet
EndChar

StartChar: ohorn
Encoding: 417 417 364
Width: 574
Flags: W
LayerCount: 2
Fore
SplineSet
-1 574 m 1,0,1
 143 574 143 574 574 574 c 1,2,3
 574 430 574 430 574 -1 c 1,4,5
 430 -1 430 -1 -1 -1 c 1,6,7
 -1 142 -1 142 -1 574 c 1,0,1
EndSplineSet
EndChar

StartChar: uni01A2
Encoding: 418 418 365
Width: 574
Flags: W
LayerCount: 2
Fore
SplineSet
-1 574 m 1,0,1
 143 574 143 574 574 574 c 1,2,3
 574 430 574 430 574 -1 c 1,4,5
 430 -1 430 -1 -1 -1 c 1,6,7
 -1 142 -1 142 -1 574 c 1,0,1
EndSplineSet
EndChar

StartChar: uni01A3
Encoding: 419 419 366
Width: 574
Flags: W
LayerCount: 2
Fore
SplineSet
-1 574 m 1,0,1
 143 574 143 574 574 574 c 1,2,3
 574 430 574 430 574 -1 c 1,4,5
 430 -1 430 -1 -1 -1 c 1,6,7
 -1 142 -1 142 -1 574 c 1,0,1
EndSplineSet
EndChar

StartChar: uni01A4
Encoding: 420 420 367
Width: 574
Flags: W
LayerCount: 2
Fore
SplineSet
-1 574 m 1,0,1
 143 574 143 574 574 574 c 1,2,3
 574 430 574 430 574 -1 c 1,4,5
 430 -1 430 -1 -1 -1 c 1,6,7
 -1 142 -1 142 -1 574 c 1,0,1
EndSplineSet
EndChar

StartChar: uni01A5
Encoding: 421 421 368
Width: 574
Flags: W
LayerCount: 2
Fore
SplineSet
-1 574 m 1,0,1
 143 574 143 574 574 574 c 1,2,3
 574 430 574 430 574 -1 c 1,4,5
 430 -1 430 -1 -1 -1 c 1,6,7
 -1 142 -1 142 -1 574 c 1,0,1
EndSplineSet
EndChar

StartChar: uni01A6
Encoding: 422 422 369
Width: 574
Flags: W
LayerCount: 2
Fore
SplineSet
-1 574 m 1,0,1
 143 574 143 574 574 574 c 1,2,3
 574 430 574 430 574 -1 c 1,4,5
 430 -1 430 -1 -1 -1 c 1,6,7
 -1 142 -1 142 -1 574 c 1,0,1
EndSplineSet
EndChar

StartChar: uni01A7
Encoding: 423 423 370
Width: 574
Flags: W
LayerCount: 2
Fore
SplineSet
-1 574 m 1,0,1
 143 574 143 574 574 574 c 1,2,3
 574 430 574 430 574 -1 c 1,4,5
 430 -1 430 -1 -1 -1 c 1,6,7
 -1 142 -1 142 -1 574 c 1,0,1
EndSplineSet
EndChar

StartChar: uni01A8
Encoding: 424 424 371
Width: 574
Flags: W
LayerCount: 2
Fore
SplineSet
-1 574 m 1,0,1
 143 574 143 574 574 574 c 1,2,3
 574 430 574 430 574 -1 c 1,4,5
 430 -1 430 -1 -1 -1 c 1,6,7
 -1 142 -1 142 -1 574 c 1,0,1
EndSplineSet
EndChar

StartChar: uni01A9
Encoding: 425 425 372
Width: 574
Flags: W
LayerCount: 2
Fore
SplineSet
-1 574 m 1,0,1
 143 574 143 574 574 574 c 1,2,3
 574 430 574 430 574 -1 c 1,4,5
 430 -1 430 -1 -1 -1 c 1,6,7
 -1 142 -1 142 -1 574 c 1,0,1
EndSplineSet
EndChar

StartChar: uni01AA
Encoding: 426 426 373
Width: 574
Flags: W
LayerCount: 2
Fore
SplineSet
-1 574 m 1,0,1
 143 574 143 574 574 574 c 1,2,3
 574 430 574 430 574 -1 c 1,4,5
 430 -1 430 -1 -1 -1 c 1,6,7
 -1 142 -1 142 -1 574 c 1,0,1
EndSplineSet
EndChar

StartChar: uni01AB
Encoding: 427 427 374
Width: 574
Flags: W
LayerCount: 2
Fore
SplineSet
-1 574 m 1,0,1
 143 574 143 574 574 574 c 1,2,3
 574 430 574 430 574 -1 c 1,4,5
 430 -1 430 -1 -1 -1 c 1,6,7
 -1 142 -1 142 -1 574 c 1,0,1
EndSplineSet
EndChar

StartChar: uni01AC
Encoding: 428 428 375
Width: 574
Flags: W
LayerCount: 2
Fore
SplineSet
-1 574 m 1,0,1
 143 574 143 574 574 574 c 1,2,3
 574 430 574 430 574 -1 c 1,4,5
 430 -1 430 -1 -1 -1 c 1,6,7
 -1 142 -1 142 -1 574 c 1,0,1
EndSplineSet
EndChar

StartChar: uni01AD
Encoding: 429 429 376
Width: 574
Flags: W
LayerCount: 2
Fore
SplineSet
-1 574 m 1,0,1
 143 574 143 574 574 574 c 1,2,3
 574 430 574 430 574 -1 c 1,4,5
 430 -1 430 -1 -1 -1 c 1,6,7
 -1 142 -1 142 -1 574 c 1,0,1
EndSplineSet
EndChar

StartChar: uni01AE
Encoding: 430 430 377
Width: 574
Flags: W
LayerCount: 2
Fore
SplineSet
-1 574 m 1,0,1
 143 574 143 574 574 574 c 1,2,3
 574 430 574 430 574 -1 c 1,4,5
 430 -1 430 -1 -1 -1 c 1,6,7
 -1 142 -1 142 -1 574 c 1,0,1
EndSplineSet
EndChar

StartChar: Uhorn
Encoding: 431 431 378
Width: 574
Flags: W
LayerCount: 2
Fore
SplineSet
-1 574 m 1,0,1
 143 574 143 574 574 574 c 1,2,3
 574 430 574 430 574 -1 c 1,4,5
 430 -1 430 -1 -1 -1 c 1,6,7
 -1 142 -1 142 -1 574 c 1,0,1
EndSplineSet
EndChar

StartChar: uhorn
Encoding: 432 432 379
Width: 574
Flags: W
LayerCount: 2
Fore
SplineSet
-1 574 m 1,0,1
 143 574 143 574 574 574 c 1,2,3
 574 430 574 430 574 -1 c 1,4,5
 430 -1 430 -1 -1 -1 c 1,6,7
 -1 142 -1 142 -1 574 c 1,0,1
EndSplineSet
EndChar

StartChar: uni01B1
Encoding: 433 433 380
Width: 574
Flags: W
LayerCount: 2
Fore
SplineSet
-1 574 m 1,0,1
 143 574 143 574 574 574 c 1,2,3
 574 430 574 430 574 -1 c 1,4,5
 430 -1 430 -1 -1 -1 c 1,6,7
 -1 142 -1 142 -1 574 c 1,0,1
EndSplineSet
EndChar

StartChar: uni01B2
Encoding: 434 434 381
Width: 574
Flags: W
LayerCount: 2
Fore
SplineSet
-1 574 m 1,0,1
 143 574 143 574 574 574 c 1,2,3
 574 430 574 430 574 -1 c 1,4,5
 430 -1 430 -1 -1 -1 c 1,6,7
 -1 142 -1 142 -1 574 c 1,0,1
EndSplineSet
EndChar

StartChar: uni01B3
Encoding: 435 435 382
Width: 574
Flags: W
LayerCount: 2
Fore
SplineSet
-1 574 m 1,0,1
 143 574 143 574 574 574 c 1,2,3
 574 430 574 430 574 -1 c 1,4,5
 430 -1 430 -1 -1 -1 c 1,6,7
 -1 142 -1 142 -1 574 c 1,0,1
EndSplineSet
EndChar

StartChar: uni01B4
Encoding: 436 436 383
Width: 574
Flags: W
LayerCount: 2
Fore
SplineSet
-1 574 m 1,0,1
 143 574 143 574 574 574 c 1,2,3
 574 430 574 430 574 -1 c 1,4,5
 430 -1 430 -1 -1 -1 c 1,6,7
 -1 142 -1 142 -1 574 c 1,0,1
EndSplineSet
EndChar

StartChar: uni01B5
Encoding: 437 437 384
Width: 574
Flags: W
LayerCount: 2
Fore
SplineSet
-1 574 m 1,0,1
 143 574 143 574 574 574 c 1,2,3
 574 430 574 430 574 -1 c 1,4,5
 430 -1 430 -1 -1 -1 c 1,6,7
 -1 142 -1 142 -1 574 c 1,0,1
EndSplineSet
EndChar

StartChar: uni01B6
Encoding: 438 438 385
Width: 574
Flags: W
LayerCount: 2
Fore
SplineSet
-1 574 m 1,0,1
 143 574 143 574 574 574 c 1,2,3
 574 430 574 430 574 -1 c 1,4,5
 430 -1 430 -1 -1 -1 c 1,6,7
 -1 142 -1 142 -1 574 c 1,0,1
EndSplineSet
EndChar

StartChar: uni01B7
Encoding: 439 439 386
Width: 574
Flags: W
LayerCount: 2
Fore
SplineSet
-1 574 m 1,0,1
 143 574 143 574 574 574 c 1,2,3
 574 430 574 430 574 -1 c 1,4,5
 430 -1 430 -1 -1 -1 c 1,6,7
 -1 142 -1 142 -1 574 c 1,0,1
EndSplineSet
EndChar

StartChar: uni01B8
Encoding: 440 440 387
Width: 574
Flags: W
LayerCount: 2
Fore
SplineSet
-1 574 m 1,0,1
 143 574 143 574 574 574 c 1,2,3
 574 430 574 430 574 -1 c 1,4,5
 430 -1 430 -1 -1 -1 c 1,6,7
 -1 142 -1 142 -1 574 c 1,0,1
EndSplineSet
EndChar

StartChar: uni01B9
Encoding: 441 441 388
Width: 574
Flags: W
LayerCount: 2
Fore
SplineSet
-1 574 m 1,0,1
 143 574 143 574 574 574 c 1,2,3
 574 430 574 430 574 -1 c 1,4,5
 430 -1 430 -1 -1 -1 c 1,6,7
 -1 142 -1 142 -1 574 c 1,0,1
EndSplineSet
EndChar

StartChar: uni01BA
Encoding: 442 442 389
Width: 574
Flags: W
LayerCount: 2
Fore
SplineSet
-1 574 m 1,0,1
 143 574 143 574 574 574 c 1,2,3
 574 430 574 430 574 -1 c 1,4,5
 430 -1 430 -1 -1 -1 c 1,6,7
 -1 142 -1 142 -1 574 c 1,0,1
EndSplineSet
EndChar

StartChar: uni01BB
Encoding: 443 443 390
Width: 574
Flags: W
LayerCount: 2
Fore
SplineSet
-1 574 m 1,0,1
 143 574 143 574 574 574 c 1,2,3
 574 430 574 430 574 -1 c 1,4,5
 430 -1 430 -1 -1 -1 c 1,6,7
 -1 142 -1 142 -1 574 c 1,0,1
EndSplineSet
EndChar

StartChar: uni01BC
Encoding: 444 444 391
Width: 574
Flags: W
LayerCount: 2
Fore
SplineSet
-1 574 m 1,0,1
 143 574 143 574 574 574 c 1,2,3
 574 430 574 430 574 -1 c 1,4,5
 430 -1 430 -1 -1 -1 c 1,6,7
 -1 142 -1 142 -1 574 c 1,0,1
EndSplineSet
EndChar

StartChar: uni01BD
Encoding: 445 445 392
Width: 574
Flags: W
LayerCount: 2
Fore
SplineSet
-1 574 m 1,0,1
 143 574 143 574 574 574 c 1,2,3
 574 430 574 430 574 -1 c 1,4,5
 430 -1 430 -1 -1 -1 c 1,6,7
 -1 142 -1 142 -1 574 c 1,0,1
EndSplineSet
EndChar

StartChar: uni01BE
Encoding: 446 446 393
Width: 574
Flags: W
LayerCount: 2
Fore
SplineSet
-1 574 m 1,0,1
 143 574 143 574 574 574 c 1,2,3
 574 430 574 430 574 -1 c 1,4,5
 430 -1 430 -1 -1 -1 c 1,6,7
 -1 142 -1 142 -1 574 c 1,0,1
EndSplineSet
EndChar

StartChar: uni01BF
Encoding: 447 447 394
Width: 574
Flags: W
LayerCount: 2
Fore
SplineSet
-1 574 m 1,0,1
 143 574 143 574 574 574 c 1,2,3
 574 430 574 430 574 -1 c 1,4,5
 430 -1 430 -1 -1 -1 c 1,6,7
 -1 142 -1 142 -1 574 c 1,0,1
EndSplineSet
EndChar

StartChar: uni01C0
Encoding: 448 448 395
Width: 574
Flags: W
LayerCount: 2
Fore
SplineSet
-1 574 m 1,0,1
 143 574 143 574 574 574 c 1,2,3
 574 430 574 430 574 -1 c 1,4,5
 430 -1 430 -1 -1 -1 c 1,6,7
 -1 142 -1 142 -1 574 c 1,0,1
EndSplineSet
EndChar

StartChar: uni01C1
Encoding: 449 449 396
Width: 574
Flags: W
LayerCount: 2
Fore
SplineSet
-1 574 m 1,0,1
 143 574 143 574 574 574 c 1,2,3
 574 430 574 430 574 -1 c 1,4,5
 430 -1 430 -1 -1 -1 c 1,6,7
 -1 142 -1 142 -1 574 c 1,0,1
EndSplineSet
EndChar

StartChar: uni01C2
Encoding: 450 450 397
Width: 574
Flags: W
LayerCount: 2
Fore
SplineSet
-1 574 m 1,0,1
 143 574 143 574 574 574 c 1,2,3
 574 430 574 430 574 -1 c 1,4,5
 430 -1 430 -1 -1 -1 c 1,6,7
 -1 142 -1 142 -1 574 c 1,0,1
EndSplineSet
EndChar

StartChar: uni01C3
Encoding: 451 451 398
Width: 574
Flags: W
LayerCount: 2
Fore
SplineSet
-1 574 m 1,0,1
 143 574 143 574 574 574 c 1,2,3
 574 430 574 430 574 -1 c 1,4,5
 430 -1 430 -1 -1 -1 c 1,6,7
 -1 142 -1 142 -1 574 c 1,0,1
EndSplineSet
EndChar

StartChar: uni01C4
Encoding: 452 452 399
Width: 574
Flags: W
LayerCount: 2
Fore
SplineSet
-1 574 m 1,0,1
 143 574 143 574 574 574 c 1,2,3
 574 430 574 430 574 -1 c 1,4,5
 430 -1 430 -1 -1 -1 c 1,6,7
 -1 142 -1 142 -1 574 c 1,0,1
EndSplineSet
EndChar

StartChar: uni01C5
Encoding: 453 453 400
Width: 574
Flags: W
LayerCount: 2
Fore
SplineSet
-1 574 m 1,0,1
 143 574 143 574 574 574 c 1,2,3
 574 430 574 430 574 -1 c 1,4,5
 430 -1 430 -1 -1 -1 c 1,6,7
 -1 142 -1 142 -1 574 c 1,0,1
EndSplineSet
EndChar

StartChar: uni01C6
Encoding: 454 454 401
Width: 574
Flags: W
LayerCount: 2
Fore
SplineSet
-1 574 m 1,0,1
 143 574 143 574 574 574 c 1,2,3
 574 430 574 430 574 -1 c 1,4,5
 430 -1 430 -1 -1 -1 c 1,6,7
 -1 142 -1 142 -1 574 c 1,0,1
EndSplineSet
EndChar

StartChar: uni01C7
Encoding: 455 455 402
Width: 574
Flags: W
LayerCount: 2
Fore
SplineSet
-1 574 m 1,0,1
 143 574 143 574 574 574 c 1,2,3
 574 430 574 430 574 -1 c 1,4,5
 430 -1 430 -1 -1 -1 c 1,6,7
 -1 142 -1 142 -1 574 c 1,0,1
EndSplineSet
EndChar

StartChar: uni01C8
Encoding: 456 456 403
Width: 574
Flags: W
LayerCount: 2
Fore
SplineSet
-1 574 m 1,0,1
 143 574 143 574 574 574 c 1,2,3
 574 430 574 430 574 -1 c 1,4,5
 430 -1 430 -1 -1 -1 c 1,6,7
 -1 142 -1 142 -1 574 c 1,0,1
EndSplineSet
EndChar

StartChar: uni01C9
Encoding: 457 457 404
Width: 574
Flags: W
LayerCount: 2
Fore
SplineSet
-1 574 m 1,0,1
 143 574 143 574 574 574 c 1,2,3
 574 430 574 430 574 -1 c 1,4,5
 430 -1 430 -1 -1 -1 c 1,6,7
 -1 142 -1 142 -1 574 c 1,0,1
EndSplineSet
EndChar

StartChar: uni01CA
Encoding: 458 458 405
Width: 574
Flags: W
LayerCount: 2
Fore
SplineSet
-1 574 m 1,0,1
 143 574 143 574 574 574 c 1,2,3
 574 430 574 430 574 -1 c 1,4,5
 430 -1 430 -1 -1 -1 c 1,6,7
 -1 142 -1 142 -1 574 c 1,0,1
EndSplineSet
EndChar

StartChar: uni01CB
Encoding: 459 459 406
Width: 574
Flags: W
LayerCount: 2
Fore
SplineSet
-1 574 m 1,0,1
 143 574 143 574 574 574 c 1,2,3
 574 430 574 430 574 -1 c 1,4,5
 430 -1 430 -1 -1 -1 c 1,6,7
 -1 142 -1 142 -1 574 c 1,0,1
EndSplineSet
EndChar

StartChar: uni01CC
Encoding: 460 460 407
Width: 574
Flags: W
LayerCount: 2
Fore
SplineSet
-1 574 m 1,0,1
 143 574 143 574 574 574 c 1,2,3
 574 430 574 430 574 -1 c 1,4,5
 430 -1 430 -1 -1 -1 c 1,6,7
 -1 142 -1 142 -1 574 c 1,0,1
EndSplineSet
EndChar

StartChar: uni01CD
Encoding: 461 461 408
Width: 574
Flags: W
LayerCount: 2
Fore
SplineSet
-1 574 m 1,0,1
 143 574 143 574 574 574 c 1,2,3
 574 430 574 430 574 -1 c 1,4,5
 430 -1 430 -1 -1 -1 c 1,6,7
 -1 142 -1 142 -1 574 c 1,0,1
EndSplineSet
EndChar

StartChar: uni01CE
Encoding: 462 462 409
Width: 574
Flags: W
LayerCount: 2
Fore
SplineSet
-1 574 m 1,0,1
 143 574 143 574 574 574 c 1,2,3
 574 430 574 430 574 -1 c 1,4,5
 430 -1 430 -1 -1 -1 c 1,6,7
 -1 142 -1 142 -1 574 c 1,0,1
EndSplineSet
EndChar

StartChar: uni01CF
Encoding: 463 463 410
Width: 574
Flags: W
LayerCount: 2
Fore
SplineSet
-1 574 m 1,0,1
 143 574 143 574 574 574 c 1,2,3
 574 430 574 430 574 -1 c 1,4,5
 430 -1 430 -1 -1 -1 c 1,6,7
 -1 142 -1 142 -1 574 c 1,0,1
EndSplineSet
EndChar

StartChar: uni01D0
Encoding: 464 464 411
Width: 574
Flags: W
LayerCount: 2
Fore
SplineSet
-1 574 m 1,0,1
 143 574 143 574 574 574 c 1,2,3
 574 430 574 430 574 -1 c 1,4,5
 430 -1 430 -1 -1 -1 c 1,6,7
 -1 142 -1 142 -1 574 c 1,0,1
EndSplineSet
EndChar

StartChar: uni01D1
Encoding: 465 465 412
Width: 574
Flags: W
LayerCount: 2
Fore
SplineSet
-1 574 m 1,0,1
 143 574 143 574 574 574 c 1,2,3
 574 430 574 430 574 -1 c 1,4,5
 430 -1 430 -1 -1 -1 c 1,6,7
 -1 142 -1 142 -1 574 c 1,0,1
EndSplineSet
EndChar

StartChar: uni01D2
Encoding: 466 466 413
Width: 574
Flags: W
LayerCount: 2
Fore
SplineSet
-1 574 m 1,0,1
 143 574 143 574 574 574 c 1,2,3
 574 430 574 430 574 -1 c 1,4,5
 430 -1 430 -1 -1 -1 c 1,6,7
 -1 142 -1 142 -1 574 c 1,0,1
EndSplineSet
EndChar

StartChar: uni01D3
Encoding: 467 467 414
Width: 574
Flags: W
LayerCount: 2
Fore
SplineSet
-1 574 m 1,0,1
 143 574 143 574 574 574 c 1,2,3
 574 430 574 430 574 -1 c 1,4,5
 430 -1 430 -1 -1 -1 c 1,6,7
 -1 142 -1 142 -1 574 c 1,0,1
EndSplineSet
EndChar

StartChar: uni01D4
Encoding: 468 468 415
Width: 574
Flags: W
LayerCount: 2
Fore
SplineSet
-1 574 m 1,0,1
 143 574 143 574 574 574 c 1,2,3
 574 430 574 430 574 -1 c 1,4,5
 430 -1 430 -1 -1 -1 c 1,6,7
 -1 142 -1 142 -1 574 c 1,0,1
EndSplineSet
EndChar

StartChar: uni01D5
Encoding: 469 469 416
Width: 574
Flags: W
LayerCount: 2
Fore
SplineSet
-1 574 m 1,0,1
 143 574 143 574 574 574 c 1,2,3
 574 430 574 430 574 -1 c 1,4,5
 430 -1 430 -1 -1 -1 c 1,6,7
 -1 142 -1 142 -1 574 c 1,0,1
EndSplineSet
EndChar

StartChar: uni01D6
Encoding: 470 470 417
Width: 574
Flags: W
LayerCount: 2
Fore
SplineSet
-1 574 m 1,0,1
 143 574 143 574 574 574 c 1,2,3
 574 430 574 430 574 -1 c 1,4,5
 430 -1 430 -1 -1 -1 c 1,6,7
 -1 142 -1 142 -1 574 c 1,0,1
EndSplineSet
EndChar

StartChar: uni01D7
Encoding: 471 471 418
Width: 574
Flags: W
LayerCount: 2
Fore
SplineSet
-1 574 m 1,0,1
 143 574 143 574 574 574 c 1,2,3
 574 430 574 430 574 -1 c 1,4,5
 430 -1 430 -1 -1 -1 c 1,6,7
 -1 142 -1 142 -1 574 c 1,0,1
EndSplineSet
EndChar

StartChar: uni01D8
Encoding: 472 472 419
Width: 574
Flags: W
LayerCount: 2
Fore
SplineSet
-1 574 m 1,0,1
 143 574 143 574 574 574 c 1,2,3
 574 430 574 430 574 -1 c 1,4,5
 430 -1 430 -1 -1 -1 c 1,6,7
 -1 142 -1 142 -1 574 c 1,0,1
EndSplineSet
EndChar

StartChar: uni01D9
Encoding: 473 473 420
Width: 574
Flags: W
LayerCount: 2
Fore
SplineSet
-1 574 m 1,0,1
 143 574 143 574 574 574 c 1,2,3
 574 430 574 430 574 -1 c 1,4,5
 430 -1 430 -1 -1 -1 c 1,6,7
 -1 142 -1 142 -1 574 c 1,0,1
EndSplineSet
EndChar

StartChar: uni01DA
Encoding: 474 474 421
Width: 574
Flags: W
LayerCount: 2
Fore
SplineSet
-1 574 m 1,0,1
 143 574 143 574 574 574 c 1,2,3
 574 430 574 430 574 -1 c 1,4,5
 430 -1 430 -1 -1 -1 c 1,6,7
 -1 142 -1 142 -1 574 c 1,0,1
EndSplineSet
EndChar

StartChar: uni01DB
Encoding: 475 475 422
Width: 574
Flags: W
LayerCount: 2
Fore
SplineSet
-1 574 m 1,0,1
 143 574 143 574 574 574 c 1,2,3
 574 430 574 430 574 -1 c 1,4,5
 430 -1 430 -1 -1 -1 c 1,6,7
 -1 142 -1 142 -1 574 c 1,0,1
EndSplineSet
EndChar

StartChar: uni01DC
Encoding: 476 476 423
Width: 574
Flags: W
LayerCount: 2
Fore
SplineSet
-1 574 m 1,0,1
 143 574 143 574 574 574 c 1,2,3
 574 430 574 430 574 -1 c 1,4,5
 430 -1 430 -1 -1 -1 c 1,6,7
 -1 142 -1 142 -1 574 c 1,0,1
EndSplineSet
EndChar

StartChar: uni01DD
Encoding: 477 477 424
Width: 574
Flags: W
LayerCount: 2
Fore
SplineSet
-1 574 m 1,0,1
 143 574 143 574 574 574 c 1,2,3
 574 430 574 430 574 -1 c 1,4,5
 430 -1 430 -1 -1 -1 c 1,6,7
 -1 142 -1 142 -1 574 c 1,0,1
EndSplineSet
EndChar

StartChar: uni01DE
Encoding: 478 478 425
Width: 574
Flags: W
LayerCount: 2
Fore
SplineSet
-1 574 m 1,0,1
 143 574 143 574 574 574 c 1,2,3
 574 430 574 430 574 -1 c 1,4,5
 430 -1 430 -1 -1 -1 c 1,6,7
 -1 142 -1 142 -1 574 c 1,0,1
EndSplineSet
EndChar

StartChar: uni01DF
Encoding: 479 479 426
Width: 574
Flags: W
LayerCount: 2
Fore
SplineSet
-1 574 m 1,0,1
 143 574 143 574 574 574 c 1,2,3
 574 430 574 430 574 -1 c 1,4,5
 430 -1 430 -1 -1 -1 c 1,6,7
 -1 142 -1 142 -1 574 c 1,0,1
EndSplineSet
EndChar

StartChar: uni01E0
Encoding: 480 480 427
Width: 574
Flags: W
LayerCount: 2
Fore
SplineSet
-1 574 m 1,0,1
 143 574 143 574 574 574 c 1,2,3
 574 430 574 430 574 -1 c 1,4,5
 430 -1 430 -1 -1 -1 c 1,6,7
 -1 142 -1 142 -1 574 c 1,0,1
EndSplineSet
EndChar

StartChar: uni01E1
Encoding: 481 481 428
Width: 574
Flags: W
LayerCount: 2
Fore
SplineSet
-1 574 m 1,0,1
 143 574 143 574 574 574 c 1,2,3
 574 430 574 430 574 -1 c 1,4,5
 430 -1 430 -1 -1 -1 c 1,6,7
 -1 142 -1 142 -1 574 c 1,0,1
EndSplineSet
EndChar

StartChar: uni01E2
Encoding: 482 482 429
Width: 574
Flags: W
LayerCount: 2
Fore
SplineSet
-1 574 m 1,0,1
 143 574 143 574 574 574 c 1,2,3
 574 430 574 430 574 -1 c 1,4,5
 430 -1 430 -1 -1 -1 c 1,6,7
 -1 142 -1 142 -1 574 c 1,0,1
EndSplineSet
EndChar

StartChar: uni01E3
Encoding: 483 483 430
Width: 574
Flags: W
LayerCount: 2
Fore
SplineSet
-1 574 m 1,0,1
 143 574 143 574 574 574 c 1,2,3
 574 430 574 430 574 -1 c 1,4,5
 430 -1 430 -1 -1 -1 c 1,6,7
 -1 142 -1 142 -1 574 c 1,0,1
EndSplineSet
EndChar

StartChar: uni01E4
Encoding: 484 484 431
Width: 574
Flags: W
LayerCount: 2
Fore
SplineSet
-1 574 m 1,0,1
 143 574 143 574 574 574 c 1,2,3
 574 430 574 430 574 -1 c 1,4,5
 430 -1 430 -1 -1 -1 c 1,6,7
 -1 142 -1 142 -1 574 c 1,0,1
EndSplineSet
EndChar

StartChar: uni01E5
Encoding: 485 485 432
Width: 574
Flags: W
LayerCount: 2
Fore
SplineSet
-1 574 m 1,0,1
 143 574 143 574 574 574 c 1,2,3
 574 430 574 430 574 -1 c 1,4,5
 430 -1 430 -1 -1 -1 c 1,6,7
 -1 142 -1 142 -1 574 c 1,0,1
EndSplineSet
EndChar

StartChar: Gcaron
Encoding: 486 486 433
Width: 574
Flags: W
LayerCount: 2
Fore
SplineSet
-1 574 m 1,0,1
 143 574 143 574 574 574 c 1,2,3
 574 430 574 430 574 -1 c 1,4,5
 430 -1 430 -1 -1 -1 c 1,6,7
 -1 142 -1 142 -1 574 c 1,0,1
EndSplineSet
EndChar

StartChar: gcaron
Encoding: 487 487 434
Width: 574
Flags: W
LayerCount: 2
Fore
SplineSet
-1 574 m 1,0,1
 143 574 143 574 574 574 c 1,2,3
 574 430 574 430 574 -1 c 1,4,5
 430 -1 430 -1 -1 -1 c 1,6,7
 -1 142 -1 142 -1 574 c 1,0,1
EndSplineSet
EndChar

StartChar: uni01E8
Encoding: 488 488 435
Width: 574
Flags: W
LayerCount: 2
Fore
SplineSet
-1 574 m 1,0,1
 143 574 143 574 574 574 c 1,2,3
 574 430 574 430 574 -1 c 1,4,5
 430 -1 430 -1 -1 -1 c 1,6,7
 -1 142 -1 142 -1 574 c 1,0,1
EndSplineSet
EndChar

StartChar: uni01E9
Encoding: 489 489 436
Width: 574
Flags: W
LayerCount: 2
Fore
SplineSet
-1 574 m 1,0,1
 143 574 143 574 574 574 c 1,2,3
 574 430 574 430 574 -1 c 1,4,5
 430 -1 430 -1 -1 -1 c 1,6,7
 -1 142 -1 142 -1 574 c 1,0,1
EndSplineSet
EndChar

StartChar: uni01EA
Encoding: 490 490 437
Width: 574
Flags: W
LayerCount: 2
Fore
SplineSet
-1 574 m 1,0,1
 143 574 143 574 574 574 c 1,2,3
 574 430 574 430 574 -1 c 1,4,5
 430 -1 430 -1 -1 -1 c 1,6,7
 -1 142 -1 142 -1 574 c 1,0,1
EndSplineSet
EndChar

StartChar: uni01EB
Encoding: 491 491 438
Width: 574
Flags: W
LayerCount: 2
Fore
SplineSet
-1 574 m 1,0,1
 143 574 143 574 574 574 c 1,2,3
 574 430 574 430 574 -1 c 1,4,5
 430 -1 430 -1 -1 -1 c 1,6,7
 -1 142 -1 142 -1 574 c 1,0,1
EndSplineSet
EndChar

StartChar: uni01EC
Encoding: 492 492 439
Width: 574
Flags: W
LayerCount: 2
Fore
SplineSet
-1 574 m 1,0,1
 143 574 143 574 574 574 c 1,2,3
 574 430 574 430 574 -1 c 1,4,5
 430 -1 430 -1 -1 -1 c 1,6,7
 -1 142 -1 142 -1 574 c 1,0,1
EndSplineSet
EndChar

StartChar: uni01ED
Encoding: 493 493 440
Width: 574
Flags: W
LayerCount: 2
Fore
SplineSet
-1 574 m 1,0,1
 143 574 143 574 574 574 c 1,2,3
 574 430 574 430 574 -1 c 1,4,5
 430 -1 430 -1 -1 -1 c 1,6,7
 -1 142 -1 142 -1 574 c 1,0,1
EndSplineSet
EndChar

StartChar: uni01EE
Encoding: 494 494 441
Width: 574
Flags: W
LayerCount: 2
Fore
SplineSet
-1 574 m 1,0,1
 143 574 143 574 574 574 c 1,2,3
 574 430 574 430 574 -1 c 1,4,5
 430 -1 430 -1 -1 -1 c 1,6,7
 -1 142 -1 142 -1 574 c 1,0,1
EndSplineSet
EndChar

StartChar: uni01EF
Encoding: 495 495 442
Width: 574
Flags: W
LayerCount: 2
Fore
SplineSet
-1 574 m 1,0,1
 143 574 143 574 574 574 c 1,2,3
 574 430 574 430 574 -1 c 1,4,5
 430 -1 430 -1 -1 -1 c 1,6,7
 -1 142 -1 142 -1 574 c 1,0,1
EndSplineSet
EndChar

StartChar: uni01F0
Encoding: 496 496 443
Width: 574
Flags: W
LayerCount: 2
Fore
SplineSet
-1 574 m 1,0,1
 143 574 143 574 574 574 c 1,2,3
 574 430 574 430 574 -1 c 1,4,5
 430 -1 430 -1 -1 -1 c 1,6,7
 -1 142 -1 142 -1 574 c 1,0,1
EndSplineSet
EndChar

StartChar: uni01F1
Encoding: 497 497 444
Width: 574
Flags: W
LayerCount: 2
Fore
SplineSet
-1 574 m 1,0,1
 143 574 143 574 574 574 c 1,2,3
 574 430 574 430 574 -1 c 1,4,5
 430 -1 430 -1 -1 -1 c 1,6,7
 -1 142 -1 142 -1 574 c 1,0,1
EndSplineSet
EndChar

StartChar: uni01F2
Encoding: 498 498 445
Width: 574
Flags: W
LayerCount: 2
Fore
SplineSet
-1 574 m 1,0,1
 143 574 143 574 574 574 c 1,2,3
 574 430 574 430 574 -1 c 1,4,5
 430 -1 430 -1 -1 -1 c 1,6,7
 -1 142 -1 142 -1 574 c 1,0,1
EndSplineSet
EndChar

StartChar: uni01F3
Encoding: 499 499 446
Width: 574
Flags: W
LayerCount: 2
Fore
SplineSet
-1 574 m 1,0,1
 143 574 143 574 574 574 c 1,2,3
 574 430 574 430 574 -1 c 1,4,5
 430 -1 430 -1 -1 -1 c 1,6,7
 -1 142 -1 142 -1 574 c 1,0,1
EndSplineSet
EndChar

StartChar: uni01F4
Encoding: 500 500 447
Width: 574
Flags: W
LayerCount: 2
Fore
SplineSet
-1 574 m 1,0,1
 143 574 143 574 574 574 c 1,2,3
 574 430 574 430 574 -1 c 1,4,5
 430 -1 430 -1 -1 -1 c 1,6,7
 -1 142 -1 142 -1 574 c 1,0,1
EndSplineSet
EndChar

StartChar: uni01F5
Encoding: 501 501 448
Width: 574
Flags: W
LayerCount: 2
Fore
SplineSet
-1 574 m 1,0,1
 143 574 143 574 574 574 c 1,2,3
 574 430 574 430 574 -1 c 1,4,5
 430 -1 430 -1 -1 -1 c 1,6,7
 -1 142 -1 142 -1 574 c 1,0,1
EndSplineSet
EndChar

StartChar: uni01F6
Encoding: 502 502 449
Width: 574
Flags: W
LayerCount: 2
Fore
SplineSet
-1 574 m 1,0,1
 143 574 143 574 574 574 c 1,2,3
 574 430 574 430 574 -1 c 1,4,5
 430 -1 430 -1 -1 -1 c 1,6,7
 -1 142 -1 142 -1 574 c 1,0,1
EndSplineSet
EndChar

StartChar: uni01F7
Encoding: 503 503 450
Width: 574
Flags: W
LayerCount: 2
Fore
SplineSet
-1 574 m 1,0,1
 143 574 143 574 574 574 c 1,2,3
 574 430 574 430 574 -1 c 1,4,5
 430 -1 430 -1 -1 -1 c 1,6,7
 -1 142 -1 142 -1 574 c 1,0,1
EndSplineSet
EndChar

StartChar: uni01F8
Encoding: 504 504 451
Width: 574
Flags: W
LayerCount: 2
Fore
SplineSet
-1 574 m 1,0,1
 143 574 143 574 574 574 c 1,2,3
 574 430 574 430 574 -1 c 1,4,5
 430 -1 430 -1 -1 -1 c 1,6,7
 -1 142 -1 142 -1 574 c 1,0,1
EndSplineSet
EndChar

StartChar: uni01F9
Encoding: 505 505 452
Width: 574
Flags: W
LayerCount: 2
Fore
SplineSet
-1 574 m 1,0,1
 143 574 143 574 574 574 c 1,2,3
 574 430 574 430 574 -1 c 1,4,5
 430 -1 430 -1 -1 -1 c 1,6,7
 -1 142 -1 142 -1 574 c 1,0,1
EndSplineSet
EndChar

StartChar: Aringacute
Encoding: 506 506 453
Width: 574
Flags: W
LayerCount: 2
Fore
SplineSet
-1 574 m 1,0,1
 143 574 143 574 574 574 c 1,2,3
 574 430 574 430 574 -1 c 1,4,5
 430 -1 430 -1 -1 -1 c 1,6,7
 -1 142 -1 142 -1 574 c 1,0,1
EndSplineSet
EndChar

StartChar: aringacute
Encoding: 507 507 454
Width: 574
Flags: W
LayerCount: 2
Fore
SplineSet
-1 574 m 1,0,1
 143 574 143 574 574 574 c 1,2,3
 574 430 574 430 574 -1 c 1,4,5
 430 -1 430 -1 -1 -1 c 1,6,7
 -1 142 -1 142 -1 574 c 1,0,1
EndSplineSet
EndChar

StartChar: AEacute
Encoding: 508 508 455
Width: 574
Flags: W
LayerCount: 2
Fore
SplineSet
-1 574 m 1,0,1
 143 574 143 574 574 574 c 1,2,3
 574 430 574 430 574 -1 c 1,4,5
 430 -1 430 -1 -1 -1 c 1,6,7
 -1 142 -1 142 -1 574 c 1,0,1
EndSplineSet
EndChar

StartChar: aeacute
Encoding: 509 509 456
Width: 574
Flags: W
LayerCount: 2
Fore
SplineSet
-1 574 m 1,0,1
 143 574 143 574 574 574 c 1,2,3
 574 430 574 430 574 -1 c 1,4,5
 430 -1 430 -1 -1 -1 c 1,6,7
 -1 142 -1 142 -1 574 c 1,0,1
EndSplineSet
EndChar

StartChar: Oslashacute
Encoding: 510 510 457
Width: 574
Flags: W
LayerCount: 2
Fore
SplineSet
-1 574 m 1,0,1
 143 574 143 574 574 574 c 1,2,3
 574 430 574 430 574 -1 c 1,4,5
 430 -1 430 -1 -1 -1 c 1,6,7
 -1 142 -1 142 -1 574 c 1,0,1
EndSplineSet
EndChar

StartChar: oslashacute
Encoding: 511 511 458
Width: 574
Flags: W
LayerCount: 2
Fore
SplineSet
-1 574 m 1,0,1
 143 574 143 574 574 574 c 1,2,3
 574 430 574 430 574 -1 c 1,4,5
 430 -1 430 -1 -1 -1 c 1,6,7
 -1 142 -1 142 -1 574 c 1,0,1
EndSplineSet
EndChar

StartChar: uni0200
Encoding: 512 512 459
Width: 574
Flags: W
LayerCount: 2
Fore
SplineSet
-1 574 m 1,0,1
 143 574 143 574 574 574 c 1,2,3
 574 430 574 430 574 -1 c 1,4,5
 430 -1 430 -1 -1 -1 c 1,6,7
 -1 142 -1 142 -1 574 c 1,0,1
EndSplineSet
EndChar

StartChar: uni0201
Encoding: 513 513 460
Width: 574
Flags: W
LayerCount: 2
Fore
SplineSet
-1 574 m 1,0,1
 143 574 143 574 574 574 c 1,2,3
 574 430 574 430 574 -1 c 1,4,5
 430 -1 430 -1 -1 -1 c 1,6,7
 -1 142 -1 142 -1 574 c 1,0,1
EndSplineSet
EndChar

StartChar: uni0202
Encoding: 514 514 461
Width: 574
Flags: W
LayerCount: 2
Fore
SplineSet
-1 574 m 1,0,1
 143 574 143 574 574 574 c 1,2,3
 574 430 574 430 574 -1 c 1,4,5
 430 -1 430 -1 -1 -1 c 1,6,7
 -1 142 -1 142 -1 574 c 1,0,1
EndSplineSet
EndChar

StartChar: uni0203
Encoding: 515 515 462
Width: 574
Flags: W
LayerCount: 2
Fore
SplineSet
-1 574 m 1,0,1
 143 574 143 574 574 574 c 1,2,3
 574 430 574 430 574 -1 c 1,4,5
 430 -1 430 -1 -1 -1 c 1,6,7
 -1 142 -1 142 -1 574 c 1,0,1
EndSplineSet
EndChar

StartChar: uni0204
Encoding: 516 516 463
Width: 574
Flags: W
LayerCount: 2
Fore
SplineSet
-1 574 m 1,0,1
 143 574 143 574 574 574 c 1,2,3
 574 430 574 430 574 -1 c 1,4,5
 430 -1 430 -1 -1 -1 c 1,6,7
 -1 142 -1 142 -1 574 c 1,0,1
EndSplineSet
EndChar

StartChar: uni0205
Encoding: 517 517 464
Width: 574
Flags: W
LayerCount: 2
Fore
SplineSet
-1 574 m 1,0,1
 143 574 143 574 574 574 c 1,2,3
 574 430 574 430 574 -1 c 1,4,5
 430 -1 430 -1 -1 -1 c 1,6,7
 -1 142 -1 142 -1 574 c 1,0,1
EndSplineSet
EndChar

StartChar: uni0206
Encoding: 518 518 465
Width: 574
Flags: W
LayerCount: 2
Fore
SplineSet
-1 574 m 1,0,1
 143 574 143 574 574 574 c 1,2,3
 574 430 574 430 574 -1 c 1,4,5
 430 -1 430 -1 -1 -1 c 1,6,7
 -1 142 -1 142 -1 574 c 1,0,1
EndSplineSet
EndChar

StartChar: uni0207
Encoding: 519 519 466
Width: 574
Flags: W
LayerCount: 2
Fore
SplineSet
-1 574 m 1,0,1
 143 574 143 574 574 574 c 1,2,3
 574 430 574 430 574 -1 c 1,4,5
 430 -1 430 -1 -1 -1 c 1,6,7
 -1 142 -1 142 -1 574 c 1,0,1
EndSplineSet
EndChar

StartChar: uni0208
Encoding: 520 520 467
Width: 574
Flags: W
LayerCount: 2
Fore
SplineSet
-1 574 m 1,0,1
 143 574 143 574 574 574 c 1,2,3
 574 430 574 430 574 -1 c 1,4,5
 430 -1 430 -1 -1 -1 c 1,6,7
 -1 142 -1 142 -1 574 c 1,0,1
EndSplineSet
EndChar

StartChar: uni0209
Encoding: 521 521 468
Width: 574
Flags: W
LayerCount: 2
Fore
SplineSet
-1 574 m 1,0,1
 143 574 143 574 574 574 c 1,2,3
 574 430 574 430 574 -1 c 1,4,5
 430 -1 430 -1 -1 -1 c 1,6,7
 -1 142 -1 142 -1 574 c 1,0,1
EndSplineSet
EndChar

StartChar: uni020A
Encoding: 522 522 469
Width: 574
Flags: W
LayerCount: 2
Fore
SplineSet
-1 574 m 1,0,1
 143 574 143 574 574 574 c 1,2,3
 574 430 574 430 574 -1 c 1,4,5
 430 -1 430 -1 -1 -1 c 1,6,7
 -1 142 -1 142 -1 574 c 1,0,1
EndSplineSet
EndChar

StartChar: uni020B
Encoding: 523 523 470
Width: 574
Flags: W
LayerCount: 2
Fore
SplineSet
-1 574 m 1,0,1
 143 574 143 574 574 574 c 1,2,3
 574 430 574 430 574 -1 c 1,4,5
 430 -1 430 -1 -1 -1 c 1,6,7
 -1 142 -1 142 -1 574 c 1,0,1
EndSplineSet
EndChar

StartChar: uni020C
Encoding: 524 524 471
Width: 574
Flags: W
LayerCount: 2
Fore
SplineSet
-1 574 m 1,0,1
 143 574 143 574 574 574 c 1,2,3
 574 430 574 430 574 -1 c 1,4,5
 430 -1 430 -1 -1 -1 c 1,6,7
 -1 142 -1 142 -1 574 c 1,0,1
EndSplineSet
EndChar

StartChar: uni020D
Encoding: 525 525 472
Width: 574
Flags: W
LayerCount: 2
Fore
SplineSet
-1 574 m 1,0,1
 143 574 143 574 574 574 c 1,2,3
 574 430 574 430 574 -1 c 1,4,5
 430 -1 430 -1 -1 -1 c 1,6,7
 -1 142 -1 142 -1 574 c 1,0,1
EndSplineSet
EndChar

StartChar: uni020E
Encoding: 526 526 473
Width: 574
Flags: W
LayerCount: 2
Fore
SplineSet
-1 574 m 1,0,1
 143 574 143 574 574 574 c 1,2,3
 574 430 574 430 574 -1 c 1,4,5
 430 -1 430 -1 -1 -1 c 1,6,7
 -1 142 -1 142 -1 574 c 1,0,1
EndSplineSet
EndChar

StartChar: uni020F
Encoding: 527 527 474
Width: 574
Flags: W
LayerCount: 2
Fore
SplineSet
-1 574 m 1,0,1
 143 574 143 574 574 574 c 1,2,3
 574 430 574 430 574 -1 c 1,4,5
 430 -1 430 -1 -1 -1 c 1,6,7
 -1 142 -1 142 -1 574 c 1,0,1
EndSplineSet
EndChar

StartChar: uni0210
Encoding: 528 528 475
Width: 574
Flags: W
LayerCount: 2
Fore
SplineSet
-1 574 m 1,0,1
 143 574 143 574 574 574 c 1,2,3
 574 430 574 430 574 -1 c 1,4,5
 430 -1 430 -1 -1 -1 c 1,6,7
 -1 142 -1 142 -1 574 c 1,0,1
EndSplineSet
EndChar

StartChar: uni0211
Encoding: 529 529 476
Width: 574
Flags: W
LayerCount: 2
Fore
SplineSet
-1 574 m 1,0,1
 143 574 143 574 574 574 c 1,2,3
 574 430 574 430 574 -1 c 1,4,5
 430 -1 430 -1 -1 -1 c 1,6,7
 -1 142 -1 142 -1 574 c 1,0,1
EndSplineSet
EndChar

StartChar: uni0212
Encoding: 530 530 477
Width: 574
Flags: W
LayerCount: 2
Fore
SplineSet
-1 574 m 1,0,1
 143 574 143 574 574 574 c 1,2,3
 574 430 574 430 574 -1 c 1,4,5
 430 -1 430 -1 -1 -1 c 1,6,7
 -1 142 -1 142 -1 574 c 1,0,1
EndSplineSet
EndChar

StartChar: uni0213
Encoding: 531 531 478
Width: 574
Flags: W
LayerCount: 2
Fore
SplineSet
-1 574 m 1,0,1
 143 574 143 574 574 574 c 1,2,3
 574 430 574 430 574 -1 c 1,4,5
 430 -1 430 -1 -1 -1 c 1,6,7
 -1 142 -1 142 -1 574 c 1,0,1
EndSplineSet
EndChar

StartChar: uni0214
Encoding: 532 532 479
Width: 574
Flags: W
LayerCount: 2
Fore
SplineSet
-1 574 m 1,0,1
 143 574 143 574 574 574 c 1,2,3
 574 430 574 430 574 -1 c 1,4,5
 430 -1 430 -1 -1 -1 c 1,6,7
 -1 142 -1 142 -1 574 c 1,0,1
EndSplineSet
EndChar

StartChar: uni0215
Encoding: 533 533 480
Width: 574
Flags: W
LayerCount: 2
Fore
SplineSet
-1 574 m 1,0,1
 143 574 143 574 574 574 c 1,2,3
 574 430 574 430 574 -1 c 1,4,5
 430 -1 430 -1 -1 -1 c 1,6,7
 -1 142 -1 142 -1 574 c 1,0,1
EndSplineSet
EndChar

StartChar: uni0216
Encoding: 534 534 481
Width: 574
Flags: W
LayerCount: 2
Fore
SplineSet
-1 574 m 1,0,1
 143 574 143 574 574 574 c 1,2,3
 574 430 574 430 574 -1 c 1,4,5
 430 -1 430 -1 -1 -1 c 1,6,7
 -1 142 -1 142 -1 574 c 1,0,1
EndSplineSet
EndChar

StartChar: uni0217
Encoding: 535 535 482
Width: 574
Flags: W
LayerCount: 2
Fore
SplineSet
-1 574 m 1,0,1
 143 574 143 574 574 574 c 1,2,3
 574 430 574 430 574 -1 c 1,4,5
 430 -1 430 -1 -1 -1 c 1,6,7
 -1 142 -1 142 -1 574 c 1,0,1
EndSplineSet
EndChar

StartChar: uni0218
Encoding: 536 536 483
Width: 574
Flags: W
LayerCount: 2
Fore
SplineSet
-1 574 m 1,0,1
 143 574 143 574 574 574 c 1,2,3
 574 430 574 430 574 -1 c 1,4,5
 430 -1 430 -1 -1 -1 c 1,6,7
 -1 142 -1 142 -1 574 c 1,0,1
EndSplineSet
EndChar

StartChar: uni0219
Encoding: 537 537 484
Width: 574
Flags: W
LayerCount: 2
Fore
SplineSet
-1 574 m 1,0,1
 143 574 143 574 574 574 c 1,2,3
 574 430 574 430 574 -1 c 1,4,5
 430 -1 430 -1 -1 -1 c 1,6,7
 -1 142 -1 142 -1 574 c 1,0,1
EndSplineSet
EndChar

StartChar: uni021A
Encoding: 538 538 485
Width: 574
Flags: W
LayerCount: 2
Fore
SplineSet
-1 574 m 1,0,1
 143 574 143 574 574 574 c 1,2,3
 574 430 574 430 574 -1 c 1,4,5
 430 -1 430 -1 -1 -1 c 1,6,7
 -1 142 -1 142 -1 574 c 1,0,1
EndSplineSet
EndChar

StartChar: uni021B
Encoding: 539 539 486
Width: 574
Flags: W
LayerCount: 2
Fore
SplineSet
-1 574 m 1,0,1
 143 574 143 574 574 574 c 1,2,3
 574 430 574 430 574 -1 c 1,4,5
 430 -1 430 -1 -1 -1 c 1,6,7
 -1 142 -1 142 -1 574 c 1,0,1
EndSplineSet
EndChar

StartChar: uni021C
Encoding: 540 540 487
Width: 574
Flags: W
LayerCount: 2
Fore
SplineSet
-1 574 m 1,0,1
 143 574 143 574 574 574 c 1,2,3
 574 430 574 430 574 -1 c 1,4,5
 430 -1 430 -1 -1 -1 c 1,6,7
 -1 142 -1 142 -1 574 c 1,0,1
EndSplineSet
EndChar

StartChar: uni021D
Encoding: 541 541 488
Width: 574
Flags: W
LayerCount: 2
Fore
SplineSet
-1 574 m 1,0,1
 143 574 143 574 574 574 c 1,2,3
 574 430 574 430 574 -1 c 1,4,5
 430 -1 430 -1 -1 -1 c 1,6,7
 -1 142 -1 142 -1 574 c 1,0,1
EndSplineSet
EndChar

StartChar: uni021E
Encoding: 542 542 489
Width: 574
Flags: W
LayerCount: 2
Fore
SplineSet
-1 574 m 1,0,1
 143 574 143 574 574 574 c 1,2,3
 574 430 574 430 574 -1 c 1,4,5
 430 -1 430 -1 -1 -1 c 1,6,7
 -1 142 -1 142 -1 574 c 1,0,1
EndSplineSet
EndChar

StartChar: uni021F
Encoding: 543 543 490
Width: 574
Flags: W
LayerCount: 2
Fore
SplineSet
-1 574 m 1,0,1
 143 574 143 574 574 574 c 1,2,3
 574 430 574 430 574 -1 c 1,4,5
 430 -1 430 -1 -1 -1 c 1,6,7
 -1 142 -1 142 -1 574 c 1,0,1
EndSplineSet
EndChar

StartChar: uni0220
Encoding: 544 544 491
Width: 574
Flags: W
LayerCount: 2
Fore
SplineSet
-1 574 m 1,0,1
 143 574 143 574 574 574 c 1,2,3
 574 430 574 430 574 -1 c 1,4,5
 430 -1 430 -1 -1 -1 c 1,6,7
 -1 142 -1 142 -1 574 c 1,0,1
EndSplineSet
EndChar

StartChar: uni0221
Encoding: 545 545 492
Width: 574
Flags: W
LayerCount: 2
Fore
SplineSet
-1 574 m 1,0,1
 143 574 143 574 574 574 c 1,2,3
 574 430 574 430 574 -1 c 1,4,5
 430 -1 430 -1 -1 -1 c 1,6,7
 -1 142 -1 142 -1 574 c 1,0,1
EndSplineSet
EndChar

StartChar: uni0222
Encoding: 546 546 493
Width: 574
Flags: W
LayerCount: 2
Fore
SplineSet
-1 574 m 1,0,1
 143 574 143 574 574 574 c 1,2,3
 574 430 574 430 574 -1 c 1,4,5
 430 -1 430 -1 -1 -1 c 1,6,7
 -1 142 -1 142 -1 574 c 1,0,1
EndSplineSet
EndChar

StartChar: uni0223
Encoding: 547 547 494
Width: 574
Flags: W
LayerCount: 2
Fore
SplineSet
-1 574 m 1,0,1
 143 574 143 574 574 574 c 1,2,3
 574 430 574 430 574 -1 c 1,4,5
 430 -1 430 -1 -1 -1 c 1,6,7
 -1 142 -1 142 -1 574 c 1,0,1
EndSplineSet
EndChar

StartChar: uni0224
Encoding: 548 548 495
Width: 574
Flags: W
LayerCount: 2
Fore
SplineSet
-1 574 m 1,0,1
 143 574 143 574 574 574 c 1,2,3
 574 430 574 430 574 -1 c 1,4,5
 430 -1 430 -1 -1 -1 c 1,6,7
 -1 142 -1 142 -1 574 c 1,0,1
EndSplineSet
EndChar

StartChar: uni0225
Encoding: 549 549 496
Width: 574
Flags: W
LayerCount: 2
Fore
SplineSet
-1 574 m 1,0,1
 143 574 143 574 574 574 c 1,2,3
 574 430 574 430 574 -1 c 1,4,5
 430 -1 430 -1 -1 -1 c 1,6,7
 -1 142 -1 142 -1 574 c 1,0,1
EndSplineSet
EndChar

StartChar: uni0226
Encoding: 550 550 497
Width: 574
Flags: W
LayerCount: 2
Fore
SplineSet
-1 574 m 1,0,1
 143 574 143 574 574 574 c 1,2,3
 574 430 574 430 574 -1 c 1,4,5
 430 -1 430 -1 -1 -1 c 1,6,7
 -1 142 -1 142 -1 574 c 1,0,1
EndSplineSet
EndChar

StartChar: uni0227
Encoding: 551 551 498
Width: 574
Flags: W
LayerCount: 2
Fore
SplineSet
-1 574 m 1,0,1
 143 574 143 574 574 574 c 1,2,3
 574 430 574 430 574 -1 c 1,4,5
 430 -1 430 -1 -1 -1 c 1,6,7
 -1 142 -1 142 -1 574 c 1,0,1
EndSplineSet
EndChar

StartChar: uni0228
Encoding: 552 552 499
Width: 574
Flags: W
LayerCount: 2
Fore
SplineSet
-1 574 m 1,0,1
 143 574 143 574 574 574 c 1,2,3
 574 430 574 430 574 -1 c 1,4,5
 430 -1 430 -1 -1 -1 c 1,6,7
 -1 142 -1 142 -1 574 c 1,0,1
EndSplineSet
EndChar

StartChar: uni0229
Encoding: 553 553 500
Width: 574
Flags: W
LayerCount: 2
Fore
SplineSet
-1 574 m 1,0,1
 143 574 143 574 574 574 c 1,2,3
 574 430 574 430 574 -1 c 1,4,5
 430 -1 430 -1 -1 -1 c 1,6,7
 -1 142 -1 142 -1 574 c 1,0,1
EndSplineSet
EndChar

StartChar: uni022A
Encoding: 554 554 501
Width: 574
Flags: W
LayerCount: 2
Fore
SplineSet
-1 574 m 1,0,1
 143 574 143 574 574 574 c 1,2,3
 574 430 574 430 574 -1 c 1,4,5
 430 -1 430 -1 -1 -1 c 1,6,7
 -1 142 -1 142 -1 574 c 1,0,1
EndSplineSet
EndChar

StartChar: uni022B
Encoding: 555 555 502
Width: 574
Flags: W
LayerCount: 2
Fore
SplineSet
-1 574 m 1,0,1
 143 574 143 574 574 574 c 1,2,3
 574 430 574 430 574 -1 c 1,4,5
 430 -1 430 -1 -1 -1 c 1,6,7
 -1 142 -1 142 -1 574 c 1,0,1
EndSplineSet
EndChar

StartChar: uni022C
Encoding: 556 556 503
Width: 574
Flags: W
LayerCount: 2
Fore
SplineSet
-1 574 m 1,0,1
 143 574 143 574 574 574 c 1,2,3
 574 430 574 430 574 -1 c 1,4,5
 430 -1 430 -1 -1 -1 c 1,6,7
 -1 142 -1 142 -1 574 c 1,0,1
EndSplineSet
EndChar

StartChar: uni022D
Encoding: 557 557 504
Width: 574
Flags: W
LayerCount: 2
Fore
SplineSet
-1 574 m 1,0,1
 143 574 143 574 574 574 c 1,2,3
 574 430 574 430 574 -1 c 1,4,5
 430 -1 430 -1 -1 -1 c 1,6,7
 -1 142 -1 142 -1 574 c 1,0,1
EndSplineSet
EndChar

StartChar: uni022E
Encoding: 558 558 505
Width: 574
Flags: W
LayerCount: 2
Fore
SplineSet
-1 574 m 1,0,1
 143 574 143 574 574 574 c 1,2,3
 574 430 574 430 574 -1 c 1,4,5
 430 -1 430 -1 -1 -1 c 1,6,7
 -1 142 -1 142 -1 574 c 1,0,1
EndSplineSet
EndChar

StartChar: uni022F
Encoding: 559 559 506
Width: 574
Flags: W
LayerCount: 2
Fore
SplineSet
-1 574 m 1,0,1
 143 574 143 574 574 574 c 1,2,3
 574 430 574 430 574 -1 c 1,4,5
 430 -1 430 -1 -1 -1 c 1,6,7
 -1 142 -1 142 -1 574 c 1,0,1
EndSplineSet
EndChar

StartChar: uni0230
Encoding: 560 560 507
Width: 574
Flags: W
LayerCount: 2
Fore
SplineSet
-1 574 m 1,0,1
 143 574 143 574 574 574 c 1,2,3
 574 430 574 430 574 -1 c 1,4,5
 430 -1 430 -1 -1 -1 c 1,6,7
 -1 142 -1 142 -1 574 c 1,0,1
EndSplineSet
EndChar

StartChar: uni0231
Encoding: 561 561 508
Width: 574
Flags: W
LayerCount: 2
Fore
SplineSet
-1 574 m 1,0,1
 143 574 143 574 574 574 c 1,2,3
 574 430 574 430 574 -1 c 1,4,5
 430 -1 430 -1 -1 -1 c 1,6,7
 -1 142 -1 142 -1 574 c 1,0,1
EndSplineSet
EndChar

StartChar: uni0232
Encoding: 562 562 509
Width: 574
Flags: W
LayerCount: 2
Fore
SplineSet
-1 574 m 1,0,1
 143 574 143 574 574 574 c 1,2,3
 574 430 574 430 574 -1 c 1,4,5
 430 -1 430 -1 -1 -1 c 1,6,7
 -1 142 -1 142 -1 574 c 1,0,1
EndSplineSet
EndChar

StartChar: uni0233
Encoding: 563 563 510
Width: 574
Flags: W
LayerCount: 2
Fore
SplineSet
-1 574 m 1,0,1
 143 574 143 574 574 574 c 1,2,3
 574 430 574 430 574 -1 c 1,4,5
 430 -1 430 -1 -1 -1 c 1,6,7
 -1 142 -1 142 -1 574 c 1,0,1
EndSplineSet
EndChar

StartChar: uni0234
Encoding: 564 564 511
Width: 574
Flags: W
LayerCount: 2
Fore
SplineSet
-1 574 m 1,0,1
 143 574 143 574 574 574 c 1,2,3
 574 430 574 430 574 -1 c 1,4,5
 430 -1 430 -1 -1 -1 c 1,6,7
 -1 142 -1 142 -1 574 c 1,0,1
EndSplineSet
EndChar

StartChar: uni0235
Encoding: 565 565 512
Width: 574
Flags: W
LayerCount: 2
Fore
SplineSet
-1 574 m 1,0,1
 143 574 143 574 574 574 c 1,2,3
 574 430 574 430 574 -1 c 1,4,5
 430 -1 430 -1 -1 -1 c 1,6,7
 -1 142 -1 142 -1 574 c 1,0,1
EndSplineSet
EndChar

StartChar: uni0236
Encoding: 566 566 513
Width: 574
Flags: W
LayerCount: 2
Fore
SplineSet
-1 574 m 1,0,1
 143 574 143 574 574 574 c 1,2,3
 574 430 574 430 574 -1 c 1,4,5
 430 -1 430 -1 -1 -1 c 1,6,7
 -1 142 -1 142 -1 574 c 1,0,1
EndSplineSet
EndChar

StartChar: uni0237
Encoding: 567 567 514
Width: 574
Flags: W
LayerCount: 2
Fore
SplineSet
-1 574 m 1,0,1
 143 574 143 574 574 574 c 1,2,3
 574 430 574 430 574 -1 c 1,4,5
 430 -1 430 -1 -1 -1 c 1,6,7
 -1 142 -1 142 -1 574 c 1,0,1
EndSplineSet
EndChar

StartChar: uni0238
Encoding: 568 568 515
Width: 574
Flags: W
LayerCount: 2
Fore
SplineSet
-1 574 m 1,0,1
 143 574 143 574 574 574 c 1,2,3
 574 430 574 430 574 -1 c 1,4,5
 430 -1 430 -1 -1 -1 c 1,6,7
 -1 142 -1 142 -1 574 c 1,0,1
EndSplineSet
EndChar

StartChar: uni0239
Encoding: 569 569 516
Width: 574
Flags: W
LayerCount: 2
Fore
SplineSet
-1 574 m 1,0,1
 143 574 143 574 574 574 c 1,2,3
 574 430 574 430 574 -1 c 1,4,5
 430 -1 430 -1 -1 -1 c 1,6,7
 -1 142 -1 142 -1 574 c 1,0,1
EndSplineSet
EndChar

StartChar: uni023A
Encoding: 570 570 517
Width: 574
Flags: W
LayerCount: 2
Fore
SplineSet
-1 574 m 1,0,1
 143 574 143 574 574 574 c 1,2,3
 574 430 574 430 574 -1 c 1,4,5
 430 -1 430 -1 -1 -1 c 1,6,7
 -1 142 -1 142 -1 574 c 1,0,1
EndSplineSet
EndChar

StartChar: uni023B
Encoding: 571 571 518
Width: 574
Flags: W
LayerCount: 2
Fore
SplineSet
-1 574 m 1,0,1
 143 574 143 574 574 574 c 1,2,3
 574 430 574 430 574 -1 c 1,4,5
 430 -1 430 -1 -1 -1 c 1,6,7
 -1 142 -1 142 -1 574 c 1,0,1
EndSplineSet
EndChar

StartChar: uni023C
Encoding: 572 572 519
Width: 574
Flags: W
LayerCount: 2
Fore
SplineSet
-1 574 m 1,0,1
 143 574 143 574 574 574 c 1,2,3
 574 430 574 430 574 -1 c 1,4,5
 430 -1 430 -1 -1 -1 c 1,6,7
 -1 142 -1 142 -1 574 c 1,0,1
EndSplineSet
EndChar

StartChar: uni023D
Encoding: 573 573 520
Width: 574
Flags: W
LayerCount: 2
Fore
SplineSet
-1 574 m 1,0,1
 143 574 143 574 574 574 c 1,2,3
 574 430 574 430 574 -1 c 1,4,5
 430 -1 430 -1 -1 -1 c 1,6,7
 -1 142 -1 142 -1 574 c 1,0,1
EndSplineSet
EndChar

StartChar: uni023E
Encoding: 574 574 521
Width: 574
Flags: W
LayerCount: 2
Fore
SplineSet
-1 574 m 1,0,1
 143 574 143 574 574 574 c 1,2,3
 574 430 574 430 574 -1 c 1,4,5
 430 -1 430 -1 -1 -1 c 1,6,7
 -1 142 -1 142 -1 574 c 1,0,1
EndSplineSet
EndChar

StartChar: uni023F
Encoding: 575 575 522
Width: 574
Flags: W
LayerCount: 2
Fore
SplineSet
-1 574 m 1,0,1
 143 574 143 574 574 574 c 1,2,3
 574 430 574 430 574 -1 c 1,4,5
 430 -1 430 -1 -1 -1 c 1,6,7
 -1 142 -1 142 -1 574 c 1,0,1
EndSplineSet
EndChar

StartChar: uni0240
Encoding: 576 576 523
Width: 574
Flags: W
LayerCount: 2
Fore
SplineSet
-1 574 m 1,0,1
 143 574 143 574 574 574 c 1,2,3
 574 430 574 430 574 -1 c 1,4,5
 430 -1 430 -1 -1 -1 c 1,6,7
 -1 142 -1 142 -1 574 c 1,0,1
EndSplineSet
EndChar

StartChar: uni0241
Encoding: 577 577 524
Width: 574
Flags: W
LayerCount: 2
Fore
SplineSet
-1 574 m 1,0,1
 143 574 143 574 574 574 c 1,2,3
 574 430 574 430 574 -1 c 1,4,5
 430 -1 430 -1 -1 -1 c 1,6,7
 -1 142 -1 142 -1 574 c 1,0,1
EndSplineSet
EndChar

StartChar: uni0242
Encoding: 578 578 525
Width: 574
Flags: W
LayerCount: 2
Fore
SplineSet
-1 574 m 1,0,1
 143 574 143 574 574 574 c 1,2,3
 574 430 574 430 574 -1 c 1,4,5
 430 -1 430 -1 -1 -1 c 1,6,7
 -1 142 -1 142 -1 574 c 1,0,1
EndSplineSet
EndChar

StartChar: uni0243
Encoding: 579 579 526
Width: 574
Flags: W
LayerCount: 2
Fore
SplineSet
-1 574 m 1,0,1
 143 574 143 574 574 574 c 1,2,3
 574 430 574 430 574 -1 c 1,4,5
 430 -1 430 -1 -1 -1 c 1,6,7
 -1 142 -1 142 -1 574 c 1,0,1
EndSplineSet
EndChar

StartChar: uni0244
Encoding: 580 580 527
Width: 574
Flags: W
LayerCount: 2
Fore
SplineSet
-1 574 m 1,0,1
 143 574 143 574 574 574 c 1,2,3
 574 430 574 430 574 -1 c 1,4,5
 430 -1 430 -1 -1 -1 c 1,6,7
 -1 142 -1 142 -1 574 c 1,0,1
EndSplineSet
EndChar

StartChar: uni0245
Encoding: 581 581 528
Width: 574
Flags: W
LayerCount: 2
Fore
SplineSet
-1 574 m 1,0,1
 143 574 143 574 574 574 c 1,2,3
 574 430 574 430 574 -1 c 1,4,5
 430 -1 430 -1 -1 -1 c 1,6,7
 -1 142 -1 142 -1 574 c 1,0,1
EndSplineSet
EndChar

StartChar: uni0246
Encoding: 582 582 529
Width: 574
Flags: W
LayerCount: 2
Fore
SplineSet
-1 574 m 1,0,1
 143 574 143 574 574 574 c 1,2,3
 574 430 574 430 574 -1 c 1,4,5
 430 -1 430 -1 -1 -1 c 1,6,7
 -1 142 -1 142 -1 574 c 1,0,1
EndSplineSet
EndChar

StartChar: uni0247
Encoding: 583 583 530
Width: 574
Flags: W
LayerCount: 2
Fore
SplineSet
-1 574 m 1,0,1
 143 574 143 574 574 574 c 1,2,3
 574 430 574 430 574 -1 c 1,4,5
 430 -1 430 -1 -1 -1 c 1,6,7
 -1 142 -1 142 -1 574 c 1,0,1
EndSplineSet
EndChar

StartChar: uni0248
Encoding: 584 584 531
Width: 574
Flags: W
LayerCount: 2
Fore
SplineSet
-1 574 m 1,0,1
 143 574 143 574 574 574 c 1,2,3
 574 430 574 430 574 -1 c 1,4,5
 430 -1 430 -1 -1 -1 c 1,6,7
 -1 142 -1 142 -1 574 c 1,0,1
EndSplineSet
EndChar

StartChar: uni0249
Encoding: 585 585 532
Width: 574
Flags: W
LayerCount: 2
Fore
SplineSet
-1 574 m 1,0,1
 143 574 143 574 574 574 c 1,2,3
 574 430 574 430 574 -1 c 1,4,5
 430 -1 430 -1 -1 -1 c 1,6,7
 -1 142 -1 142 -1 574 c 1,0,1
EndSplineSet
EndChar

StartChar: uni024A
Encoding: 586 586 533
Width: 574
Flags: W
LayerCount: 2
Fore
SplineSet
-1 574 m 1,0,1
 143 574 143 574 574 574 c 1,2,3
 574 430 574 430 574 -1 c 1,4,5
 430 -1 430 -1 -1 -1 c 1,6,7
 -1 142 -1 142 -1 574 c 1,0,1
EndSplineSet
EndChar

StartChar: uni024B
Encoding: 587 587 534
Width: 574
Flags: W
LayerCount: 2
Fore
SplineSet
-1 574 m 1,0,1
 143 574 143 574 574 574 c 1,2,3
 574 430 574 430 574 -1 c 1,4,5
 430 -1 430 -1 -1 -1 c 1,6,7
 -1 142 -1 142 -1 574 c 1,0,1
EndSplineSet
EndChar

StartChar: uni024C
Encoding: 588 588 535
Width: 574
Flags: W
LayerCount: 2
Fore
SplineSet
-1 574 m 1,0,1
 143 574 143 574 574 574 c 1,2,3
 574 430 574 430 574 -1 c 1,4,5
 430 -1 430 -1 -1 -1 c 1,6,7
 -1 142 -1 142 -1 574 c 1,0,1
EndSplineSet
EndChar

StartChar: uni024D
Encoding: 589 589 536
Width: 574
Flags: W
LayerCount: 2
Fore
SplineSet
-1 574 m 1,0,1
 143 574 143 574 574 574 c 1,2,3
 574 430 574 430 574 -1 c 1,4,5
 430 -1 430 -1 -1 -1 c 1,6,7
 -1 142 -1 142 -1 574 c 1,0,1
EndSplineSet
EndChar

StartChar: uni024E
Encoding: 590 590 537
Width: 574
Flags: W
LayerCount: 2
Fore
SplineSet
-1 574 m 1,0,1
 143 574 143 574 574 574 c 1,2,3
 574 430 574 430 574 -1 c 1,4,5
 430 -1 430 -1 -1 -1 c 1,6,7
 -1 142 -1 142 -1 574 c 1,0,1
EndSplineSet
EndChar

StartChar: uni024F
Encoding: 591 591 538
Width: 574
Flags: W
LayerCount: 2
Fore
SplineSet
-1 574 m 1,0,1
 143 574 143 574 574 574 c 1,2,3
 574 430 574 430 574 -1 c 1,4,5
 430 -1 430 -1 -1 -1 c 1,6,7
 -1 142 -1 142 -1 574 c 1,0,1
EndSplineSet
EndChar

StartChar: uni0250
Encoding: 592 592 539
Width: 574
Flags: W
LayerCount: 2
Fore
SplineSet
-1 574 m 1,0,1
 143 574 143 574 574 574 c 1,2,3
 574 430 574 430 574 -1 c 1,4,5
 430 -1 430 -1 -1 -1 c 1,6,7
 -1 142 -1 142 -1 574 c 1,0,1
EndSplineSet
EndChar

StartChar: uni0251
Encoding: 593 593 540
Width: 574
Flags: W
LayerCount: 2
Fore
SplineSet
-1 574 m 1,0,1
 143 574 143 574 574 574 c 1,2,3
 574 430 574 430 574 -1 c 1,4,5
 430 -1 430 -1 -1 -1 c 1,6,7
 -1 142 -1 142 -1 574 c 1,0,1
EndSplineSet
EndChar

StartChar: uni0252
Encoding: 594 594 541
Width: 574
Flags: W
LayerCount: 2
Fore
SplineSet
-1 574 m 1,0,1
 143 574 143 574 574 574 c 1,2,3
 574 430 574 430 574 -1 c 1,4,5
 430 -1 430 -1 -1 -1 c 1,6,7
 -1 142 -1 142 -1 574 c 1,0,1
EndSplineSet
EndChar

StartChar: uni0253
Encoding: 595 595 542
Width: 574
Flags: W
LayerCount: 2
Fore
SplineSet
-1 574 m 1,0,1
 143 574 143 574 574 574 c 1,2,3
 574 430 574 430 574 -1 c 1,4,5
 430 -1 430 -1 -1 -1 c 1,6,7
 -1 142 -1 142 -1 574 c 1,0,1
EndSplineSet
EndChar

StartChar: uni0254
Encoding: 596 596 543
Width: 574
Flags: W
LayerCount: 2
Fore
SplineSet
-1 574 m 1,0,1
 143 574 143 574 574 574 c 1,2,3
 574 430 574 430 574 -1 c 1,4,5
 430 -1 430 -1 -1 -1 c 1,6,7
 -1 142 -1 142 -1 574 c 1,0,1
EndSplineSet
EndChar

StartChar: uni0255
Encoding: 597 597 544
Width: 574
Flags: W
LayerCount: 2
Fore
SplineSet
-1 574 m 1,0,1
 143 574 143 574 574 574 c 1,2,3
 574 430 574 430 574 -1 c 1,4,5
 430 -1 430 -1 -1 -1 c 1,6,7
 -1 142 -1 142 -1 574 c 1,0,1
EndSplineSet
EndChar

StartChar: uni0256
Encoding: 598 598 545
Width: 574
Flags: W
LayerCount: 2
Fore
SplineSet
-1 574 m 1,0,1
 143 574 143 574 574 574 c 1,2,3
 574 430 574 430 574 -1 c 1,4,5
 430 -1 430 -1 -1 -1 c 1,6,7
 -1 142 -1 142 -1 574 c 1,0,1
EndSplineSet
EndChar

StartChar: uni0257
Encoding: 599 599 546
Width: 574
Flags: W
LayerCount: 2
Fore
SplineSet
-1 574 m 1,0,1
 143 574 143 574 574 574 c 1,2,3
 574 430 574 430 574 -1 c 1,4,5
 430 -1 430 -1 -1 -1 c 1,6,7
 -1 142 -1 142 -1 574 c 1,0,1
EndSplineSet
EndChar

StartChar: uni0258
Encoding: 600 600 547
Width: 574
Flags: W
LayerCount: 2
Fore
SplineSet
-1 574 m 1,0,1
 143 574 143 574 574 574 c 1,2,3
 574 430 574 430 574 -1 c 1,4,5
 430 -1 430 -1 -1 -1 c 1,6,7
 -1 142 -1 142 -1 574 c 1,0,1
EndSplineSet
EndChar

StartChar: uni0259
Encoding: 601 601 548
Width: 574
Flags: W
LayerCount: 2
Fore
SplineSet
-1 574 m 1,0,1
 143 574 143 574 574 574 c 1,2,3
 574 430 574 430 574 -1 c 1,4,5
 430 -1 430 -1 -1 -1 c 1,6,7
 -1 142 -1 142 -1 574 c 1,0,1
EndSplineSet
EndChar

StartChar: uni025A
Encoding: 602 602 549
Width: 574
Flags: W
LayerCount: 2
Fore
SplineSet
-1 574 m 1,0,1
 143 574 143 574 574 574 c 1,2,3
 574 430 574 430 574 -1 c 1,4,5
 430 -1 430 -1 -1 -1 c 1,6,7
 -1 142 -1 142 -1 574 c 1,0,1
EndSplineSet
EndChar

StartChar: uni025B
Encoding: 603 603 550
Width: 574
Flags: W
LayerCount: 2
Fore
SplineSet
-1 574 m 1,0,1
 143 574 143 574 574 574 c 1,2,3
 574 430 574 430 574 -1 c 1,4,5
 430 -1 430 -1 -1 -1 c 1,6,7
 -1 142 -1 142 -1 574 c 1,0,1
EndSplineSet
EndChar

StartChar: uni025C
Encoding: 604 604 551
Width: 574
Flags: W
LayerCount: 2
Fore
SplineSet
-1 574 m 1,0,1
 143 574 143 574 574 574 c 1,2,3
 574 430 574 430 574 -1 c 1,4,5
 430 -1 430 -1 -1 -1 c 1,6,7
 -1 142 -1 142 -1 574 c 1,0,1
EndSplineSet
EndChar

StartChar: uni025D
Encoding: 605 605 552
Width: 574
Flags: W
LayerCount: 2
Fore
SplineSet
-1 574 m 1,0,1
 143 574 143 574 574 574 c 1,2,3
 574 430 574 430 574 -1 c 1,4,5
 430 -1 430 -1 -1 -1 c 1,6,7
 -1 142 -1 142 -1 574 c 1,0,1
EndSplineSet
EndChar

StartChar: uni025E
Encoding: 606 606 553
Width: 574
Flags: W
LayerCount: 2
Fore
SplineSet
-1 574 m 1,0,1
 143 574 143 574 574 574 c 1,2,3
 574 430 574 430 574 -1 c 1,4,5
 430 -1 430 -1 -1 -1 c 1,6,7
 -1 142 -1 142 -1 574 c 1,0,1
EndSplineSet
EndChar

StartChar: uni025F
Encoding: 607 607 554
Width: 574
Flags: W
LayerCount: 2
Fore
SplineSet
-1 574 m 1,0,1
 143 574 143 574 574 574 c 1,2,3
 574 430 574 430 574 -1 c 1,4,5
 430 -1 430 -1 -1 -1 c 1,6,7
 -1 142 -1 142 -1 574 c 1,0,1
EndSplineSet
EndChar

StartChar: uni0260
Encoding: 608 608 555
Width: 574
Flags: W
LayerCount: 2
Fore
SplineSet
-1 574 m 1,0,1
 143 574 143 574 574 574 c 1,2,3
 574 430 574 430 574 -1 c 1,4,5
 430 -1 430 -1 -1 -1 c 1,6,7
 -1 142 -1 142 -1 574 c 1,0,1
EndSplineSet
EndChar

StartChar: uni0261
Encoding: 609 609 556
Width: 574
Flags: W
LayerCount: 2
Fore
SplineSet
-1 574 m 1,0,1
 143 574 143 574 574 574 c 1,2,3
 574 430 574 430 574 -1 c 1,4,5
 430 -1 430 -1 -1 -1 c 1,6,7
 -1 142 -1 142 -1 574 c 1,0,1
EndSplineSet
EndChar

StartChar: uni0262
Encoding: 610 610 557
Width: 574
Flags: W
LayerCount: 2
Fore
SplineSet
-1 574 m 1,0,1
 143 574 143 574 574 574 c 1,2,3
 574 430 574 430 574 -1 c 1,4,5
 430 -1 430 -1 -1 -1 c 1,6,7
 -1 142 -1 142 -1 574 c 1,0,1
EndSplineSet
EndChar

StartChar: uni0263
Encoding: 611 611 558
Width: 574
Flags: W
LayerCount: 2
Fore
SplineSet
-1 574 m 1,0,1
 143 574 143 574 574 574 c 1,2,3
 574 430 574 430 574 -1 c 1,4,5
 430 -1 430 -1 -1 -1 c 1,6,7
 -1 142 -1 142 -1 574 c 1,0,1
EndSplineSet
EndChar

StartChar: uni0264
Encoding: 612 612 559
Width: 574
Flags: W
LayerCount: 2
Fore
SplineSet
-1 574 m 1,0,1
 143 574 143 574 574 574 c 1,2,3
 574 430 574 430 574 -1 c 1,4,5
 430 -1 430 -1 -1 -1 c 1,6,7
 -1 142 -1 142 -1 574 c 1,0,1
EndSplineSet
EndChar

StartChar: uni0265
Encoding: 613 613 560
Width: 574
Flags: W
LayerCount: 2
Fore
SplineSet
-1 574 m 1,0,1
 143 574 143 574 574 574 c 1,2,3
 574 430 574 430 574 -1 c 1,4,5
 430 -1 430 -1 -1 -1 c 1,6,7
 -1 142 -1 142 -1 574 c 1,0,1
EndSplineSet
EndChar

StartChar: uni0266
Encoding: 614 614 561
Width: 574
Flags: W
LayerCount: 2
Fore
SplineSet
-1 574 m 1,0,1
 143 574 143 574 574 574 c 1,2,3
 574 430 574 430 574 -1 c 1,4,5
 430 -1 430 -1 -1 -1 c 1,6,7
 -1 142 -1 142 -1 574 c 1,0,1
EndSplineSet
EndChar

StartChar: uni0267
Encoding: 615 615 562
Width: 574
Flags: W
LayerCount: 2
Fore
SplineSet
-1 574 m 1,0,1
 143 574 143 574 574 574 c 1,2,3
 574 430 574 430 574 -1 c 1,4,5
 430 -1 430 -1 -1 -1 c 1,6,7
 -1 142 -1 142 -1 574 c 1,0,1
EndSplineSet
EndChar

StartChar: uni0268
Encoding: 616 616 563
Width: 574
Flags: W
LayerCount: 2
Fore
SplineSet
-1 574 m 1,0,1
 143 574 143 574 574 574 c 1,2,3
 574 430 574 430 574 -1 c 1,4,5
 430 -1 430 -1 -1 -1 c 1,6,7
 -1 142 -1 142 -1 574 c 1,0,1
EndSplineSet
EndChar

StartChar: uni0269
Encoding: 617 617 564
Width: 574
Flags: W
LayerCount: 2
Fore
SplineSet
-1 574 m 1,0,1
 143 574 143 574 574 574 c 1,2,3
 574 430 574 430 574 -1 c 1,4,5
 430 -1 430 -1 -1 -1 c 1,6,7
 -1 142 -1 142 -1 574 c 1,0,1
EndSplineSet
EndChar

StartChar: uni026A
Encoding: 618 618 565
Width: 574
Flags: W
LayerCount: 2
Fore
SplineSet
-1 574 m 1,0,1
 143 574 143 574 574 574 c 1,2,3
 574 430 574 430 574 -1 c 1,4,5
 430 -1 430 -1 -1 -1 c 1,6,7
 -1 142 -1 142 -1 574 c 1,0,1
EndSplineSet
EndChar

StartChar: uni026B
Encoding: 619 619 566
Width: 574
Flags: W
LayerCount: 2
Fore
SplineSet
-1 574 m 1,0,1
 143 574 143 574 574 574 c 1,2,3
 574 430 574 430 574 -1 c 1,4,5
 430 -1 430 -1 -1 -1 c 1,6,7
 -1 142 -1 142 -1 574 c 1,0,1
EndSplineSet
EndChar

StartChar: uni026C
Encoding: 620 620 567
Width: 574
Flags: W
LayerCount: 2
Fore
SplineSet
-1 574 m 1,0,1
 143 574 143 574 574 574 c 1,2,3
 574 430 574 430 574 -1 c 1,4,5
 430 -1 430 -1 -1 -1 c 1,6,7
 -1 142 -1 142 -1 574 c 1,0,1
EndSplineSet
EndChar

StartChar: uni026D
Encoding: 621 621 568
Width: 574
Flags: W
LayerCount: 2
Fore
SplineSet
-1 574 m 1,0,1
 143 574 143 574 574 574 c 1,2,3
 574 430 574 430 574 -1 c 1,4,5
 430 -1 430 -1 -1 -1 c 1,6,7
 -1 142 -1 142 -1 574 c 1,0,1
EndSplineSet
EndChar

StartChar: uni026E
Encoding: 622 622 569
Width: 574
Flags: W
LayerCount: 2
Fore
SplineSet
-1 574 m 1,0,1
 143 574 143 574 574 574 c 1,2,3
 574 430 574 430 574 -1 c 1,4,5
 430 -1 430 -1 -1 -1 c 1,6,7
 -1 142 -1 142 -1 574 c 1,0,1
EndSplineSet
EndChar

StartChar: uni026F
Encoding: 623 623 570
Width: 574
Flags: W
LayerCount: 2
Fore
SplineSet
-1 574 m 1,0,1
 143 574 143 574 574 574 c 1,2,3
 574 430 574 430 574 -1 c 1,4,5
 430 -1 430 -1 -1 -1 c 1,6,7
 -1 142 -1 142 -1 574 c 1,0,1
EndSplineSet
EndChar

StartChar: uni0270
Encoding: 624 624 571
Width: 574
Flags: W
LayerCount: 2
Fore
SplineSet
-1 574 m 1,0,1
 143 574 143 574 574 574 c 1,2,3
 574 430 574 430 574 -1 c 1,4,5
 430 -1 430 -1 -1 -1 c 1,6,7
 -1 142 -1 142 -1 574 c 1,0,1
EndSplineSet
EndChar

StartChar: uni0271
Encoding: 625 625 572
Width: 574
Flags: W
LayerCount: 2
Fore
SplineSet
-1 574 m 1,0,1
 143 574 143 574 574 574 c 1,2,3
 574 430 574 430 574 -1 c 1,4,5
 430 -1 430 -1 -1 -1 c 1,6,7
 -1 142 -1 142 -1 574 c 1,0,1
EndSplineSet
EndChar

StartChar: uni0272
Encoding: 626 626 573
Width: 574
Flags: W
LayerCount: 2
Fore
SplineSet
-1 574 m 1,0,1
 143 574 143 574 574 574 c 1,2,3
 574 430 574 430 574 -1 c 1,4,5
 430 -1 430 -1 -1 -1 c 1,6,7
 -1 142 -1 142 -1 574 c 1,0,1
EndSplineSet
EndChar

StartChar: uni0273
Encoding: 627 627 574
Width: 574
Flags: W
LayerCount: 2
Fore
SplineSet
-1 574 m 1,0,1
 143 574 143 574 574 574 c 1,2,3
 574 430 574 430 574 -1 c 1,4,5
 430 -1 430 -1 -1 -1 c 1,6,7
 -1 142 -1 142 -1 574 c 1,0,1
EndSplineSet
EndChar

StartChar: uni0274
Encoding: 628 628 575
Width: 574
Flags: W
LayerCount: 2
Fore
SplineSet
-1 574 m 1,0,1
 143 574 143 574 574 574 c 1,2,3
 574 430 574 430 574 -1 c 1,4,5
 430 -1 430 -1 -1 -1 c 1,6,7
 -1 142 -1 142 -1 574 c 1,0,1
EndSplineSet
EndChar

StartChar: uni0275
Encoding: 629 629 576
Width: 574
Flags: W
LayerCount: 2
Fore
SplineSet
-1 574 m 1,0,1
 143 574 143 574 574 574 c 1,2,3
 574 430 574 430 574 -1 c 1,4,5
 430 -1 430 -1 -1 -1 c 1,6,7
 -1 142 -1 142 -1 574 c 1,0,1
EndSplineSet
EndChar

StartChar: uni0276
Encoding: 630 630 577
Width: 574
Flags: W
LayerCount: 2
Fore
SplineSet
-1 574 m 1,0,1
 143 574 143 574 574 574 c 1,2,3
 574 430 574 430 574 -1 c 1,4,5
 430 -1 430 -1 -1 -1 c 1,6,7
 -1 142 -1 142 -1 574 c 1,0,1
EndSplineSet
EndChar

StartChar: uni0277
Encoding: 631 631 578
Width: 574
Flags: W
LayerCount: 2
Fore
SplineSet
-1 574 m 1,0,1
 143 574 143 574 574 574 c 1,2,3
 574 430 574 430 574 -1 c 1,4,5
 430 -1 430 -1 -1 -1 c 1,6,7
 -1 142 -1 142 -1 574 c 1,0,1
EndSplineSet
EndChar

StartChar: uni0278
Encoding: 632 632 579
Width: 574
Flags: W
LayerCount: 2
Fore
SplineSet
-1 574 m 1,0,1
 143 574 143 574 574 574 c 1,2,3
 574 430 574 430 574 -1 c 1,4,5
 430 -1 430 -1 -1 -1 c 1,6,7
 -1 142 -1 142 -1 574 c 1,0,1
EndSplineSet
EndChar

StartChar: uni0279
Encoding: 633 633 580
Width: 574
Flags: W
LayerCount: 2
Fore
SplineSet
-1 574 m 1,0,1
 143 574 143 574 574 574 c 1,2,3
 574 430 574 430 574 -1 c 1,4,5
 430 -1 430 -1 -1 -1 c 1,6,7
 -1 142 -1 142 -1 574 c 1,0,1
EndSplineSet
EndChar

StartChar: uni027A
Encoding: 634 634 581
Width: 574
Flags: W
LayerCount: 2
Fore
SplineSet
-1 574 m 1,0,1
 143 574 143 574 574 574 c 1,2,3
 574 430 574 430 574 -1 c 1,4,5
 430 -1 430 -1 -1 -1 c 1,6,7
 -1 142 -1 142 -1 574 c 1,0,1
EndSplineSet
EndChar

StartChar: uni027B
Encoding: 635 635 582
Width: 574
Flags: W
LayerCount: 2
Fore
SplineSet
-1 574 m 1,0,1
 143 574 143 574 574 574 c 1,2,3
 574 430 574 430 574 -1 c 1,4,5
 430 -1 430 -1 -1 -1 c 1,6,7
 -1 142 -1 142 -1 574 c 1,0,1
EndSplineSet
EndChar

StartChar: uni027C
Encoding: 636 636 583
Width: 574
Flags: W
LayerCount: 2
Fore
SplineSet
-1 574 m 1,0,1
 143 574 143 574 574 574 c 1,2,3
 574 430 574 430 574 -1 c 1,4,5
 430 -1 430 -1 -1 -1 c 1,6,7
 -1 142 -1 142 -1 574 c 1,0,1
EndSplineSet
EndChar

StartChar: uni027D
Encoding: 637 637 584
Width: 574
Flags: W
LayerCount: 2
Fore
SplineSet
-1 574 m 1,0,1
 143 574 143 574 574 574 c 1,2,3
 574 430 574 430 574 -1 c 1,4,5
 430 -1 430 -1 -1 -1 c 1,6,7
 -1 142 -1 142 -1 574 c 1,0,1
EndSplineSet
EndChar

StartChar: uni027E
Encoding: 638 638 585
Width: 574
Flags: W
LayerCount: 2
Fore
SplineSet
-1 574 m 1,0,1
 143 574 143 574 574 574 c 1,2,3
 574 430 574 430 574 -1 c 1,4,5
 430 -1 430 -1 -1 -1 c 1,6,7
 -1 142 -1 142 -1 574 c 1,0,1
EndSplineSet
EndChar

StartChar: uni027F
Encoding: 639 639 586
Width: 574
Flags: W
LayerCount: 2
Fore
SplineSet
-1 574 m 1,0,1
 143 574 143 574 574 574 c 1,2,3
 574 430 574 430 574 -1 c 1,4,5
 430 -1 430 -1 -1 -1 c 1,6,7
 -1 142 -1 142 -1 574 c 1,0,1
EndSplineSet
EndChar

StartChar: uni0280
Encoding: 640 640 587
Width: 574
Flags: W
LayerCount: 2
Fore
SplineSet
-1 574 m 1,0,1
 143 574 143 574 574 574 c 1,2,3
 574 430 574 430 574 -1 c 1,4,5
 430 -1 430 -1 -1 -1 c 1,6,7
 -1 142 -1 142 -1 574 c 1,0,1
EndSplineSet
EndChar

StartChar: uni0281
Encoding: 641 641 588
Width: 574
Flags: W
LayerCount: 2
Fore
SplineSet
-1 574 m 1,0,1
 143 574 143 574 574 574 c 1,2,3
 574 430 574 430 574 -1 c 1,4,5
 430 -1 430 -1 -1 -1 c 1,6,7
 -1 142 -1 142 -1 574 c 1,0,1
EndSplineSet
EndChar

StartChar: uni0282
Encoding: 642 642 589
Width: 574
Flags: W
LayerCount: 2
Fore
SplineSet
-1 574 m 1,0,1
 143 574 143 574 574 574 c 1,2,3
 574 430 574 430 574 -1 c 1,4,5
 430 -1 430 -1 -1 -1 c 1,6,7
 -1 142 -1 142 -1 574 c 1,0,1
EndSplineSet
EndChar

StartChar: uni0283
Encoding: 643 643 590
Width: 574
Flags: W
LayerCount: 2
Fore
SplineSet
-1 574 m 1,0,1
 143 574 143 574 574 574 c 1,2,3
 574 430 574 430 574 -1 c 1,4,5
 430 -1 430 -1 -1 -1 c 1,6,7
 -1 142 -1 142 -1 574 c 1,0,1
EndSplineSet
EndChar

StartChar: uni0284
Encoding: 644 644 591
Width: 574
Flags: W
LayerCount: 2
Fore
SplineSet
-1 574 m 1,0,1
 143 574 143 574 574 574 c 1,2,3
 574 430 574 430 574 -1 c 1,4,5
 430 -1 430 -1 -1 -1 c 1,6,7
 -1 142 -1 142 -1 574 c 1,0,1
EndSplineSet
EndChar

StartChar: uni0285
Encoding: 645 645 592
Width: 574
Flags: W
LayerCount: 2
Fore
SplineSet
-1 574 m 1,0,1
 143 574 143 574 574 574 c 1,2,3
 574 430 574 430 574 -1 c 1,4,5
 430 -1 430 -1 -1 -1 c 1,6,7
 -1 142 -1 142 -1 574 c 1,0,1
EndSplineSet
EndChar

StartChar: uni0286
Encoding: 646 646 593
Width: 574
Flags: W
LayerCount: 2
Fore
SplineSet
-1 574 m 1,0,1
 143 574 143 574 574 574 c 1,2,3
 574 430 574 430 574 -1 c 1,4,5
 430 -1 430 -1 -1 -1 c 1,6,7
 -1 142 -1 142 -1 574 c 1,0,1
EndSplineSet
EndChar

StartChar: uni0287
Encoding: 647 647 594
Width: 574
Flags: W
LayerCount: 2
Fore
SplineSet
-1 574 m 1,0,1
 143 574 143 574 574 574 c 1,2,3
 574 430 574 430 574 -1 c 1,4,5
 430 -1 430 -1 -1 -1 c 1,6,7
 -1 142 -1 142 -1 574 c 1,0,1
EndSplineSet
EndChar

StartChar: uni0288
Encoding: 648 648 595
Width: 574
Flags: W
LayerCount: 2
Fore
SplineSet
-1 574 m 1,0,1
 143 574 143 574 574 574 c 1,2,3
 574 430 574 430 574 -1 c 1,4,5
 430 -1 430 -1 -1 -1 c 1,6,7
 -1 142 -1 142 -1 574 c 1,0,1
EndSplineSet
EndChar

StartChar: uni0289
Encoding: 649 649 596
Width: 574
Flags: W
LayerCount: 2
Fore
SplineSet
-1 574 m 1,0,1
 143 574 143 574 574 574 c 1,2,3
 574 430 574 430 574 -1 c 1,4,5
 430 -1 430 -1 -1 -1 c 1,6,7
 -1 142 -1 142 -1 574 c 1,0,1
EndSplineSet
EndChar

StartChar: uni028A
Encoding: 650 650 597
Width: 574
Flags: W
LayerCount: 2
Fore
SplineSet
-1 574 m 1,0,1
 143 574 143 574 574 574 c 1,2,3
 574 430 574 430 574 -1 c 1,4,5
 430 -1 430 -1 -1 -1 c 1,6,7
 -1 142 -1 142 -1 574 c 1,0,1
EndSplineSet
EndChar

StartChar: uni028B
Encoding: 651 651 598
Width: 574
Flags: W
LayerCount: 2
Fore
SplineSet
-1 574 m 1,0,1
 143 574 143 574 574 574 c 1,2,3
 574 430 574 430 574 -1 c 1,4,5
 430 -1 430 -1 -1 -1 c 1,6,7
 -1 142 -1 142 -1 574 c 1,0,1
EndSplineSet
EndChar

StartChar: uni028C
Encoding: 652 652 599
Width: 574
Flags: W
LayerCount: 2
Fore
SplineSet
-1 574 m 1,0,1
 143 574 143 574 574 574 c 1,2,3
 574 430 574 430 574 -1 c 1,4,5
 430 -1 430 -1 -1 -1 c 1,6,7
 -1 142 -1 142 -1 574 c 1,0,1
EndSplineSet
EndChar

StartChar: uni028D
Encoding: 653 653 600
Width: 574
Flags: W
LayerCount: 2
Fore
SplineSet
-1 574 m 1,0,1
 143 574 143 574 574 574 c 1,2,3
 574 430 574 430 574 -1 c 1,4,5
 430 -1 430 -1 -1 -1 c 1,6,7
 -1 142 -1 142 -1 574 c 1,0,1
EndSplineSet
EndChar

StartChar: uni028E
Encoding: 654 654 601
Width: 574
Flags: W
LayerCount: 2
Fore
SplineSet
-1 574 m 1,0,1
 143 574 143 574 574 574 c 1,2,3
 574 430 574 430 574 -1 c 1,4,5
 430 -1 430 -1 -1 -1 c 1,6,7
 -1 142 -1 142 -1 574 c 1,0,1
EndSplineSet
EndChar

StartChar: uni028F
Encoding: 655 655 602
Width: 574
Flags: W
LayerCount: 2
Fore
SplineSet
-1 574 m 1,0,1
 143 574 143 574 574 574 c 1,2,3
 574 430 574 430 574 -1 c 1,4,5
 430 -1 430 -1 -1 -1 c 1,6,7
 -1 142 -1 142 -1 574 c 1,0,1
EndSplineSet
EndChar

StartChar: uni0290
Encoding: 656 656 603
Width: 574
Flags: W
LayerCount: 2
Fore
SplineSet
-1 574 m 1,0,1
 143 574 143 574 574 574 c 1,2,3
 574 430 574 430 574 -1 c 1,4,5
 430 -1 430 -1 -1 -1 c 1,6,7
 -1 142 -1 142 -1 574 c 1,0,1
EndSplineSet
EndChar

StartChar: uni0291
Encoding: 657 657 604
Width: 574
Flags: W
LayerCount: 2
Fore
SplineSet
-1 574 m 1,0,1
 143 574 143 574 574 574 c 1,2,3
 574 430 574 430 574 -1 c 1,4,5
 430 -1 430 -1 -1 -1 c 1,6,7
 -1 142 -1 142 -1 574 c 1,0,1
EndSplineSet
EndChar

StartChar: uni0292
Encoding: 658 658 605
Width: 574
Flags: W
LayerCount: 2
Fore
SplineSet
-1 574 m 1,0,1
 143 574 143 574 574 574 c 1,2,3
 574 430 574 430 574 -1 c 1,4,5
 430 -1 430 -1 -1 -1 c 1,6,7
 -1 142 -1 142 -1 574 c 1,0,1
EndSplineSet
EndChar

StartChar: uni0293
Encoding: 659 659 606
Width: 574
Flags: W
LayerCount: 2
Fore
SplineSet
-1 574 m 1,0,1
 143 574 143 574 574 574 c 1,2,3
 574 430 574 430 574 -1 c 1,4,5
 430 -1 430 -1 -1 -1 c 1,6,7
 -1 142 -1 142 -1 574 c 1,0,1
EndSplineSet
EndChar

StartChar: uni0294
Encoding: 660 660 607
Width: 574
Flags: W
LayerCount: 2
Fore
SplineSet
-1 574 m 1,0,1
 143 574 143 574 574 574 c 1,2,3
 574 430 574 430 574 -1 c 1,4,5
 430 -1 430 -1 -1 -1 c 1,6,7
 -1 142 -1 142 -1 574 c 1,0,1
EndSplineSet
EndChar

StartChar: uni0295
Encoding: 661 661 608
Width: 574
Flags: W
LayerCount: 2
Fore
SplineSet
-1 574 m 1,0,1
 143 574 143 574 574 574 c 1,2,3
 574 430 574 430 574 -1 c 1,4,5
 430 -1 430 -1 -1 -1 c 1,6,7
 -1 142 -1 142 -1 574 c 1,0,1
EndSplineSet
EndChar

StartChar: uni0296
Encoding: 662 662 609
Width: 574
Flags: W
LayerCount: 2
Fore
SplineSet
-1 574 m 1,0,1
 143 574 143 574 574 574 c 1,2,3
 574 430 574 430 574 -1 c 1,4,5
 430 -1 430 -1 -1 -1 c 1,6,7
 -1 142 -1 142 -1 574 c 1,0,1
EndSplineSet
EndChar

StartChar: uni0297
Encoding: 663 663 610
Width: 574
Flags: W
LayerCount: 2
Fore
SplineSet
-1 574 m 1,0,1
 143 574 143 574 574 574 c 1,2,3
 574 430 574 430 574 -1 c 1,4,5
 430 -1 430 -1 -1 -1 c 1,6,7
 -1 142 -1 142 -1 574 c 1,0,1
EndSplineSet
EndChar

StartChar: uni0298
Encoding: 664 664 611
Width: 574
Flags: W
LayerCount: 2
Fore
SplineSet
-1 574 m 1,0,1
 143 574 143 574 574 574 c 1,2,3
 574 430 574 430 574 -1 c 1,4,5
 430 -1 430 -1 -1 -1 c 1,6,7
 -1 142 -1 142 -1 574 c 1,0,1
EndSplineSet
EndChar

StartChar: uni0299
Encoding: 665 665 612
Width: 574
Flags: W
LayerCount: 2
Fore
SplineSet
-1 574 m 1,0,1
 143 574 143 574 574 574 c 1,2,3
 574 430 574 430 574 -1 c 1,4,5
 430 -1 430 -1 -1 -1 c 1,6,7
 -1 142 -1 142 -1 574 c 1,0,1
EndSplineSet
EndChar

StartChar: uni029A
Encoding: 666 666 613
Width: 574
Flags: W
LayerCount: 2
Fore
SplineSet
-1 574 m 1,0,1
 143 574 143 574 574 574 c 1,2,3
 574 430 574 430 574 -1 c 1,4,5
 430 -1 430 -1 -1 -1 c 1,6,7
 -1 142 -1 142 -1 574 c 1,0,1
EndSplineSet
EndChar

StartChar: uni029B
Encoding: 667 667 614
Width: 574
Flags: W
LayerCount: 2
Fore
SplineSet
-1 574 m 1,0,1
 143 574 143 574 574 574 c 1,2,3
 574 430 574 430 574 -1 c 1,4,5
 430 -1 430 -1 -1 -1 c 1,6,7
 -1 142 -1 142 -1 574 c 1,0,1
EndSplineSet
EndChar

StartChar: uni029C
Encoding: 668 668 615
Width: 574
Flags: W
LayerCount: 2
Fore
SplineSet
-1 574 m 1,0,1
 143 574 143 574 574 574 c 1,2,3
 574 430 574 430 574 -1 c 1,4,5
 430 -1 430 -1 -1 -1 c 1,6,7
 -1 142 -1 142 -1 574 c 1,0,1
EndSplineSet
EndChar

StartChar: uni029D
Encoding: 669 669 616
Width: 574
Flags: W
LayerCount: 2
Fore
SplineSet
-1 574 m 1,0,1
 143 574 143 574 574 574 c 1,2,3
 574 430 574 430 574 -1 c 1,4,5
 430 -1 430 -1 -1 -1 c 1,6,7
 -1 142 -1 142 -1 574 c 1,0,1
EndSplineSet
EndChar

StartChar: uni029E
Encoding: 670 670 617
Width: 574
Flags: W
LayerCount: 2
Fore
SplineSet
-1 574 m 1,0,1
 143 574 143 574 574 574 c 1,2,3
 574 430 574 430 574 -1 c 1,4,5
 430 -1 430 -1 -1 -1 c 1,6,7
 -1 142 -1 142 -1 574 c 1,0,1
EndSplineSet
EndChar

StartChar: uni029F
Encoding: 671 671 618
Width: 574
Flags: W
LayerCount: 2
Fore
SplineSet
-1 574 m 1,0,1
 143 574 143 574 574 574 c 1,2,3
 574 430 574 430 574 -1 c 1,4,5
 430 -1 430 -1 -1 -1 c 1,6,7
 -1 142 -1 142 -1 574 c 1,0,1
EndSplineSet
EndChar

StartChar: uni02A0
Encoding: 672 672 619
Width: 574
Flags: W
LayerCount: 2
Fore
SplineSet
-1 574 m 1,0,1
 143 574 143 574 574 574 c 1,2,3
 574 430 574 430 574 -1 c 1,4,5
 430 -1 430 -1 -1 -1 c 1,6,7
 -1 142 -1 142 -1 574 c 1,0,1
EndSplineSet
EndChar

StartChar: uni02A1
Encoding: 673 673 620
Width: 574
Flags: W
LayerCount: 2
Fore
SplineSet
-1 574 m 1,0,1
 143 574 143 574 574 574 c 1,2,3
 574 430 574 430 574 -1 c 1,4,5
 430 -1 430 -1 -1 -1 c 1,6,7
 -1 142 -1 142 -1 574 c 1,0,1
EndSplineSet
EndChar

StartChar: uni02A2
Encoding: 674 674 621
Width: 574
Flags: W
LayerCount: 2
Fore
SplineSet
-1 574 m 1,0,1
 143 574 143 574 574 574 c 1,2,3
 574 430 574 430 574 -1 c 1,4,5
 430 -1 430 -1 -1 -1 c 1,6,7
 -1 142 -1 142 -1 574 c 1,0,1
EndSplineSet
EndChar

StartChar: uni02A3
Encoding: 675 675 622
Width: 574
Flags: W
LayerCount: 2
Fore
SplineSet
-1 574 m 1,0,1
 143 574 143 574 574 574 c 1,2,3
 574 430 574 430 574 -1 c 1,4,5
 430 -1 430 -1 -1 -1 c 1,6,7
 -1 142 -1 142 -1 574 c 1,0,1
EndSplineSet
EndChar

StartChar: uni02A4
Encoding: 676 676 623
Width: 574
Flags: W
LayerCount: 2
Fore
SplineSet
-1 574 m 1,0,1
 143 574 143 574 574 574 c 1,2,3
 574 430 574 430 574 -1 c 1,4,5
 430 -1 430 -1 -1 -1 c 1,6,7
 -1 142 -1 142 -1 574 c 1,0,1
EndSplineSet
EndChar

StartChar: uni02A5
Encoding: 677 677 624
Width: 574
Flags: W
LayerCount: 2
Fore
SplineSet
-1 574 m 1,0,1
 143 574 143 574 574 574 c 1,2,3
 574 430 574 430 574 -1 c 1,4,5
 430 -1 430 -1 -1 -1 c 1,6,7
 -1 142 -1 142 -1 574 c 1,0,1
EndSplineSet
EndChar

StartChar: uni02A6
Encoding: 678 678 625
Width: 574
Flags: W
LayerCount: 2
Fore
SplineSet
-1 574 m 1,0,1
 143 574 143 574 574 574 c 1,2,3
 574 430 574 430 574 -1 c 1,4,5
 430 -1 430 -1 -1 -1 c 1,6,7
 -1 142 -1 142 -1 574 c 1,0,1
EndSplineSet
EndChar

StartChar: uni02A7
Encoding: 679 679 626
Width: 574
Flags: W
LayerCount: 2
Fore
SplineSet
-1 574 m 1,0,1
 143 574 143 574 574 574 c 1,2,3
 574 430 574 430 574 -1 c 1,4,5
 430 -1 430 -1 -1 -1 c 1,6,7
 -1 142 -1 142 -1 574 c 1,0,1
EndSplineSet
EndChar

StartChar: uni02A8
Encoding: 680 680 627
Width: 574
Flags: W
LayerCount: 2
Fore
SplineSet
-1 574 m 1,0,1
 143 574 143 574 574 574 c 1,2,3
 574 430 574 430 574 -1 c 1,4,5
 430 -1 430 -1 -1 -1 c 1,6,7
 -1 142 -1 142 -1 574 c 1,0,1
EndSplineSet
EndChar

StartChar: uni02A9
Encoding: 681 681 628
Width: 574
Flags: W
LayerCount: 2
Fore
SplineSet
-1 574 m 1,0,1
 143 574 143 574 574 574 c 1,2,3
 574 430 574 430 574 -1 c 1,4,5
 430 -1 430 -1 -1 -1 c 1,6,7
 -1 142 -1 142 -1 574 c 1,0,1
EndSplineSet
EndChar

StartChar: uni02AA
Encoding: 682 682 629
Width: 574
Flags: W
LayerCount: 2
Fore
SplineSet
-1 574 m 1,0,1
 143 574 143 574 574 574 c 1,2,3
 574 430 574 430 574 -1 c 1,4,5
 430 -1 430 -1 -1 -1 c 1,6,7
 -1 142 -1 142 -1 574 c 1,0,1
EndSplineSet
EndChar

StartChar: uni02AB
Encoding: 683 683 630
Width: 574
Flags: W
LayerCount: 2
Fore
SplineSet
-1 574 m 1,0,1
 143 574 143 574 574 574 c 1,2,3
 574 430 574 430 574 -1 c 1,4,5
 430 -1 430 -1 -1 -1 c 1,6,7
 -1 142 -1 142 -1 574 c 1,0,1
EndSplineSet
EndChar

StartChar: uni02AC
Encoding: 684 684 631
Width: 574
Flags: W
LayerCount: 2
Fore
SplineSet
-1 574 m 1,0,1
 143 574 143 574 574 574 c 1,2,3
 574 430 574 430 574 -1 c 1,4,5
 430 -1 430 -1 -1 -1 c 1,6,7
 -1 142 -1 142 -1 574 c 1,0,1
EndSplineSet
EndChar

StartChar: uni02AD
Encoding: 685 685 632
Width: 574
Flags: W
LayerCount: 2
Fore
SplineSet
-1 574 m 1,0,1
 143 574 143 574 574 574 c 1,2,3
 574 430 574 430 574 -1 c 1,4,5
 430 -1 430 -1 -1 -1 c 1,6,7
 -1 142 -1 142 -1 574 c 1,0,1
EndSplineSet
EndChar

StartChar: uni02AE
Encoding: 686 686 633
Width: 574
Flags: W
LayerCount: 2
Fore
SplineSet
-1 574 m 1,0,1
 143 574 143 574 574 574 c 1,2,3
 574 430 574 430 574 -1 c 1,4,5
 430 -1 430 -1 -1 -1 c 1,6,7
 -1 142 -1 142 -1 574 c 1,0,1
EndSplineSet
EndChar

StartChar: uni02AF
Encoding: 687 687 634
Width: 574
Flags: W
LayerCount: 2
Fore
SplineSet
-1 574 m 1,0,1
 143 574 143 574 574 574 c 1,2,3
 574 430 574 430 574 -1 c 1,4,5
 430 -1 430 -1 -1 -1 c 1,6,7
 -1 142 -1 142 -1 574 c 1,0,1
EndSplineSet
EndChar

StartChar: uni02B0
Encoding: 688 688 635
Width: 574
Flags: W
LayerCount: 2
Fore
SplineSet
-1 574 m 1,0,1
 143 574 143 574 574 574 c 1,2,3
 574 430 574 430 574 -1 c 1,4,5
 430 -1 430 -1 -1 -1 c 1,6,7
 -1 142 -1 142 -1 574 c 1,0,1
EndSplineSet
EndChar

StartChar: uni02B1
Encoding: 689 689 636
Width: 574
Flags: W
LayerCount: 2
Fore
SplineSet
-1 574 m 1,0,1
 143 574 143 574 574 574 c 1,2,3
 574 430 574 430 574 -1 c 1,4,5
 430 -1 430 -1 -1 -1 c 1,6,7
 -1 142 -1 142 -1 574 c 1,0,1
EndSplineSet
EndChar

StartChar: uni02B2
Encoding: 690 690 637
Width: 574
Flags: W
LayerCount: 2
Fore
SplineSet
-1 574 m 1,0,1
 143 574 143 574 574 574 c 1,2,3
 574 430 574 430 574 -1 c 1,4,5
 430 -1 430 -1 -1 -1 c 1,6,7
 -1 142 -1 142 -1 574 c 1,0,1
EndSplineSet
EndChar

StartChar: uni02B3
Encoding: 691 691 638
Width: 574
Flags: W
LayerCount: 2
Fore
SplineSet
-1 574 m 1,0,1
 143 574 143 574 574 574 c 1,2,3
 574 430 574 430 574 -1 c 1,4,5
 430 -1 430 -1 -1 -1 c 1,6,7
 -1 142 -1 142 -1 574 c 1,0,1
EndSplineSet
EndChar

StartChar: uni02B4
Encoding: 692 692 639
Width: 574
Flags: W
LayerCount: 2
Fore
SplineSet
-1 574 m 1,0,1
 143 574 143 574 574 574 c 1,2,3
 574 430 574 430 574 -1 c 1,4,5
 430 -1 430 -1 -1 -1 c 1,6,7
 -1 142 -1 142 -1 574 c 1,0,1
EndSplineSet
EndChar

StartChar: uni02B5
Encoding: 693 693 640
Width: 574
Flags: W
LayerCount: 2
Fore
SplineSet
-1 574 m 1,0,1
 143 574 143 574 574 574 c 1,2,3
 574 430 574 430 574 -1 c 1,4,5
 430 -1 430 -1 -1 -1 c 1,6,7
 -1 142 -1 142 -1 574 c 1,0,1
EndSplineSet
EndChar

StartChar: uni02B6
Encoding: 694 694 641
Width: 574
Flags: W
LayerCount: 2
Fore
SplineSet
-1 574 m 1,0,1
 143 574 143 574 574 574 c 1,2,3
 574 430 574 430 574 -1 c 1,4,5
 430 -1 430 -1 -1 -1 c 1,6,7
 -1 142 -1 142 -1 574 c 1,0,1
EndSplineSet
EndChar

StartChar: uni02B7
Encoding: 695 695 642
Width: 574
Flags: W
LayerCount: 2
Fore
SplineSet
-1 574 m 1,0,1
 143 574 143 574 574 574 c 1,2,3
 574 430 574 430 574 -1 c 1,4,5
 430 -1 430 -1 -1 -1 c 1,6,7
 -1 142 -1 142 -1 574 c 1,0,1
EndSplineSet
EndChar

StartChar: uni02B8
Encoding: 696 696 643
Width: 574
Flags: W
LayerCount: 2
Fore
SplineSet
-1 574 m 1,0,1
 143 574 143 574 574 574 c 1,2,3
 574 430 574 430 574 -1 c 1,4,5
 430 -1 430 -1 -1 -1 c 1,6,7
 -1 142 -1 142 -1 574 c 1,0,1
EndSplineSet
EndChar

StartChar: uni02B9
Encoding: 697 697 644
Width: 574
Flags: W
LayerCount: 2
Fore
SplineSet
-1 574 m 1,0,1
 143 574 143 574 574 574 c 1,2,3
 574 430 574 430 574 -1 c 1,4,5
 430 -1 430 -1 -1 -1 c 1,6,7
 -1 142 -1 142 -1 574 c 1,0,1
EndSplineSet
EndChar

StartChar: uni02BA
Encoding: 698 698 645
Width: 574
Flags: W
LayerCount: 2
Fore
SplineSet
-1 574 m 1,0,1
 143 574 143 574 574 574 c 1,2,3
 574 430 574 430 574 -1 c 1,4,5
 430 -1 430 -1 -1 -1 c 1,6,7
 -1 142 -1 142 -1 574 c 1,0,1
EndSplineSet
EndChar

StartChar: uni02BB
Encoding: 699 699 646
Width: 574
Flags: W
LayerCount: 2
Fore
SplineSet
-1 574 m 1,0,1
 143 574 143 574 574 574 c 1,2,3
 574 430 574 430 574 -1 c 1,4,5
 430 -1 430 -1 -1 -1 c 1,6,7
 -1 142 -1 142 -1 574 c 1,0,1
EndSplineSet
EndChar

StartChar: uni02BC
Encoding: 700 700 647
Width: 574
Flags: W
LayerCount: 2
Fore
SplineSet
-1 574 m 1,0,1
 143 574 143 574 574 574 c 1,2,3
 574 430 574 430 574 -1 c 1,4,5
 430 -1 430 -1 -1 -1 c 1,6,7
 -1 142 -1 142 -1 574 c 1,0,1
EndSplineSet
EndChar

StartChar: uni02BD
Encoding: 701 701 648
Width: 574
Flags: W
LayerCount: 2
Fore
SplineSet
-1 574 m 1,0,1
 143 574 143 574 574 574 c 1,2,3
 574 430 574 430 574 -1 c 1,4,5
 430 -1 430 -1 -1 -1 c 1,6,7
 -1 142 -1 142 -1 574 c 1,0,1
EndSplineSet
EndChar

StartChar: uni02BE
Encoding: 702 702 649
Width: 574
Flags: W
LayerCount: 2
Fore
SplineSet
-1 574 m 1,0,1
 143 574 143 574 574 574 c 1,2,3
 574 430 574 430 574 -1 c 1,4,5
 430 -1 430 -1 -1 -1 c 1,6,7
 -1 142 -1 142 -1 574 c 1,0,1
EndSplineSet
EndChar

StartChar: uni02BF
Encoding: 703 703 650
Width: 574
Flags: W
LayerCount: 2
Fore
SplineSet
-1 574 m 1,0,1
 143 574 143 574 574 574 c 1,2,3
 574 430 574 430 574 -1 c 1,4,5
 430 -1 430 -1 -1 -1 c 1,6,7
 -1 142 -1 142 -1 574 c 1,0,1
EndSplineSet
EndChar

StartChar: uni02C0
Encoding: 704 704 651
Width: 574
Flags: W
LayerCount: 2
Fore
SplineSet
-1 574 m 1,0,1
 143 574 143 574 574 574 c 1,2,3
 574 430 574 430 574 -1 c 1,4,5
 430 -1 430 -1 -1 -1 c 1,6,7
 -1 142 -1 142 -1 574 c 1,0,1
EndSplineSet
EndChar

StartChar: uni02C1
Encoding: 705 705 652
Width: 574
Flags: W
LayerCount: 2
Fore
SplineSet
-1 574 m 1,0,1
 143 574 143 574 574 574 c 1,2,3
 574 430 574 430 574 -1 c 1,4,5
 430 -1 430 -1 -1 -1 c 1,6,7
 -1 142 -1 142 -1 574 c 1,0,1
EndSplineSet
EndChar

StartChar: uni02C2
Encoding: 706 706 653
Width: 574
Flags: W
LayerCount: 2
Fore
SplineSet
-1 574 m 1,0,1
 143 574 143 574 574 574 c 1,2,3
 574 430 574 430 574 -1 c 1,4,5
 430 -1 430 -1 -1 -1 c 1,6,7
 -1 142 -1 142 -1 574 c 1,0,1
EndSplineSet
EndChar

StartChar: uni02C3
Encoding: 707 707 654
Width: 574
Flags: W
LayerCount: 2
Fore
SplineSet
-1 574 m 1,0,1
 143 574 143 574 574 574 c 1,2,3
 574 430 574 430 574 -1 c 1,4,5
 430 -1 430 -1 -1 -1 c 1,6,7
 -1 142 -1 142 -1 574 c 1,0,1
EndSplineSet
EndChar

StartChar: uni02C4
Encoding: 708 708 655
Width: 574
Flags: W
LayerCount: 2
Fore
SplineSet
-1 574 m 1,0,1
 143 574 143 574 574 574 c 1,2,3
 574 430 574 430 574 -1 c 1,4,5
 430 -1 430 -1 -1 -1 c 1,6,7
 -1 142 -1 142 -1 574 c 1,0,1
EndSplineSet
EndChar

StartChar: uni02C5
Encoding: 709 709 656
Width: 574
Flags: W
LayerCount: 2
Fore
SplineSet
-1 574 m 1,0,1
 143 574 143 574 574 574 c 1,2,3
 574 430 574 430 574 -1 c 1,4,5
 430 -1 430 -1 -1 -1 c 1,6,7
 -1 142 -1 142 -1 574 c 1,0,1
EndSplineSet
EndChar

StartChar: circumflex
Encoding: 710 710 657
Width: 574
Flags: W
LayerCount: 2
Fore
SplineSet
-1 574 m 1,0,1
 143 574 143 574 574 574 c 1,2,3
 574 430 574 430 574 -1 c 1,4,5
 430 -1 430 -1 -1 -1 c 1,6,7
 -1 142 -1 142 -1 574 c 1,0,1
EndSplineSet
EndChar

StartChar: caron
Encoding: 711 711 658
Width: 574
Flags: W
LayerCount: 2
Fore
SplineSet
-1 574 m 1,0,1
 143 574 143 574 574 574 c 1,2,3
 574 430 574 430 574 -1 c 1,4,5
 430 -1 430 -1 -1 -1 c 1,6,7
 -1 142 -1 142 -1 574 c 1,0,1
EndSplineSet
EndChar

StartChar: uni02C8
Encoding: 712 712 659
Width: 574
Flags: W
LayerCount: 2
Fore
SplineSet
-1 574 m 1,0,1
 143 574 143 574 574 574 c 1,2,3
 574 430 574 430 574 -1 c 1,4,5
 430 -1 430 -1 -1 -1 c 1,6,7
 -1 142 -1 142 -1 574 c 1,0,1
EndSplineSet
EndChar

StartChar: uni02C9
Encoding: 713 713 660
Width: 574
Flags: W
LayerCount: 2
Fore
SplineSet
-1 574 m 1,0,1
 143 574 143 574 574 574 c 1,2,3
 574 430 574 430 574 -1 c 1,4,5
 430 -1 430 -1 -1 -1 c 1,6,7
 -1 142 -1 142 -1 574 c 1,0,1
EndSplineSet
EndChar

StartChar: uni02CA
Encoding: 714 714 661
Width: 574
Flags: W
LayerCount: 2
Fore
SplineSet
-1 574 m 1,0,1
 143 574 143 574 574 574 c 1,2,3
 574 430 574 430 574 -1 c 1,4,5
 430 -1 430 -1 -1 -1 c 1,6,7
 -1 142 -1 142 -1 574 c 1,0,1
EndSplineSet
EndChar

StartChar: uni02CB
Encoding: 715 715 662
Width: 574
Flags: W
LayerCount: 2
Fore
SplineSet
-1 574 m 1,0,1
 143 574 143 574 574 574 c 1,2,3
 574 430 574 430 574 -1 c 1,4,5
 430 -1 430 -1 -1 -1 c 1,6,7
 -1 142 -1 142 -1 574 c 1,0,1
EndSplineSet
EndChar

StartChar: uni02CC
Encoding: 716 716 663
Width: 574
Flags: W
LayerCount: 2
Fore
SplineSet
-1 574 m 1,0,1
 143 574 143 574 574 574 c 1,2,3
 574 430 574 430 574 -1 c 1,4,5
 430 -1 430 -1 -1 -1 c 1,6,7
 -1 142 -1 142 -1 574 c 1,0,1
EndSplineSet
EndChar

StartChar: uni02CD
Encoding: 717 717 664
Width: 574
Flags: W
LayerCount: 2
Fore
SplineSet
-1 574 m 1,0,1
 143 574 143 574 574 574 c 1,2,3
 574 430 574 430 574 -1 c 1,4,5
 430 -1 430 -1 -1 -1 c 1,6,7
 -1 142 -1 142 -1 574 c 1,0,1
EndSplineSet
EndChar

StartChar: uni02CE
Encoding: 718 718 665
Width: 574
Flags: W
LayerCount: 2
Fore
SplineSet
-1 574 m 1,0,1
 143 574 143 574 574 574 c 1,2,3
 574 430 574 430 574 -1 c 1,4,5
 430 -1 430 -1 -1 -1 c 1,6,7
 -1 142 -1 142 -1 574 c 1,0,1
EndSplineSet
EndChar

StartChar: uni02CF
Encoding: 719 719 666
Width: 574
Flags: W
LayerCount: 2
Fore
SplineSet
-1 574 m 1,0,1
 143 574 143 574 574 574 c 1,2,3
 574 430 574 430 574 -1 c 1,4,5
 430 -1 430 -1 -1 -1 c 1,6,7
 -1 142 -1 142 -1 574 c 1,0,1
EndSplineSet
EndChar

StartChar: uni02D0
Encoding: 720 720 667
Width: 574
Flags: W
LayerCount: 2
Fore
SplineSet
-1 574 m 1,0,1
 143 574 143 574 574 574 c 1,2,3
 574 430 574 430 574 -1 c 1,4,5
 430 -1 430 -1 -1 -1 c 1,6,7
 -1 142 -1 142 -1 574 c 1,0,1
EndSplineSet
EndChar

StartChar: uni02D1
Encoding: 721 721 668
Width: 574
Flags: W
LayerCount: 2
Fore
SplineSet
-1 574 m 1,0,1
 143 574 143 574 574 574 c 1,2,3
 574 430 574 430 574 -1 c 1,4,5
 430 -1 430 -1 -1 -1 c 1,6,7
 -1 142 -1 142 -1 574 c 1,0,1
EndSplineSet
EndChar

StartChar: uni02D2
Encoding: 722 722 669
Width: 574
Flags: W
LayerCount: 2
Fore
SplineSet
-1 574 m 1,0,1
 143 574 143 574 574 574 c 1,2,3
 574 430 574 430 574 -1 c 1,4,5
 430 -1 430 -1 -1 -1 c 1,6,7
 -1 142 -1 142 -1 574 c 1,0,1
EndSplineSet
EndChar

StartChar: uni02D3
Encoding: 723 723 670
Width: 574
Flags: W
LayerCount: 2
Fore
SplineSet
-1 574 m 1,0,1
 143 574 143 574 574 574 c 1,2,3
 574 430 574 430 574 -1 c 1,4,5
 430 -1 430 -1 -1 -1 c 1,6,7
 -1 142 -1 142 -1 574 c 1,0,1
EndSplineSet
EndChar

StartChar: uni02D4
Encoding: 724 724 671
Width: 574
Flags: W
LayerCount: 2
Fore
SplineSet
-1 574 m 1,0,1
 143 574 143 574 574 574 c 1,2,3
 574 430 574 430 574 -1 c 1,4,5
 430 -1 430 -1 -1 -1 c 1,6,7
 -1 142 -1 142 -1 574 c 1,0,1
EndSplineSet
EndChar

StartChar: uni02D5
Encoding: 725 725 672
Width: 574
Flags: W
LayerCount: 2
Fore
SplineSet
-1 574 m 1,0,1
 143 574 143 574 574 574 c 1,2,3
 574 430 574 430 574 -1 c 1,4,5
 430 -1 430 -1 -1 -1 c 1,6,7
 -1 142 -1 142 -1 574 c 1,0,1
EndSplineSet
EndChar

StartChar: uni02D6
Encoding: 726 726 673
Width: 574
Flags: W
LayerCount: 2
Fore
SplineSet
-1 574 m 1,0,1
 143 574 143 574 574 574 c 1,2,3
 574 430 574 430 574 -1 c 1,4,5
 430 -1 430 -1 -1 -1 c 1,6,7
 -1 142 -1 142 -1 574 c 1,0,1
EndSplineSet
EndChar

StartChar: uni02D7
Encoding: 727 727 674
Width: 574
Flags: W
LayerCount: 2
Fore
SplineSet
-1 574 m 1,0,1
 143 574 143 574 574 574 c 1,2,3
 574 430 574 430 574 -1 c 1,4,5
 430 -1 430 -1 -1 -1 c 1,6,7
 -1 142 -1 142 -1 574 c 1,0,1
EndSplineSet
EndChar

StartChar: breve
Encoding: 728 728 675
Width: 574
Flags: W
LayerCount: 2
Fore
SplineSet
-1 574 m 1,0,1
 143 574 143 574 574 574 c 1,2,3
 574 430 574 430 574 -1 c 1,4,5
 430 -1 430 -1 -1 -1 c 1,6,7
 -1 142 -1 142 -1 574 c 1,0,1
EndSplineSet
EndChar

StartChar: dotaccent
Encoding: 729 729 676
Width: 574
Flags: W
LayerCount: 2
Fore
SplineSet
-1 574 m 1,0,1
 143 574 143 574 574 574 c 1,2,3
 574 430 574 430 574 -1 c 1,4,5
 430 -1 430 -1 -1 -1 c 1,6,7
 -1 142 -1 142 -1 574 c 1,0,1
EndSplineSet
EndChar

StartChar: ring
Encoding: 730 730 677
Width: 574
Flags: W
LayerCount: 2
Fore
SplineSet
-1 574 m 1,0,1
 143 574 143 574 574 574 c 1,2,3
 574 430 574 430 574 -1 c 1,4,5
 430 -1 430 -1 -1 -1 c 1,6,7
 -1 142 -1 142 -1 574 c 1,0,1
EndSplineSet
EndChar

StartChar: ogonek
Encoding: 731 731 678
Width: 574
Flags: W
LayerCount: 2
Fore
SplineSet
-1 574 m 1,0,1
 143 574 143 574 574 574 c 1,2,3
 574 430 574 430 574 -1 c 1,4,5
 430 -1 430 -1 -1 -1 c 1,6,7
 -1 142 -1 142 -1 574 c 1,0,1
EndSplineSet
EndChar

StartChar: tilde
Encoding: 732 732 679
Width: 574
Flags: W
LayerCount: 2
Fore
SplineSet
-1 574 m 1,0,1
 143 574 143 574 574 574 c 1,2,3
 574 430 574 430 574 -1 c 1,4,5
 430 -1 430 -1 -1 -1 c 1,6,7
 -1 142 -1 142 -1 574 c 1,0,1
EndSplineSet
EndChar

StartChar: hungarumlaut
Encoding: 733 733 680
Width: 574
Flags: W
LayerCount: 2
Fore
SplineSet
-1 574 m 1,0,1
 143 574 143 574 574 574 c 1,2,3
 574 430 574 430 574 -1 c 1,4,5
 430 -1 430 -1 -1 -1 c 1,6,7
 -1 142 -1 142 -1 574 c 1,0,1
EndSplineSet
EndChar

StartChar: uni02DE
Encoding: 734 734 681
Width: 574
Flags: W
LayerCount: 2
Fore
SplineSet
-1 574 m 1,0,1
 143 574 143 574 574 574 c 1,2,3
 574 430 574 430 574 -1 c 1,4,5
 430 -1 430 -1 -1 -1 c 1,6,7
 -1 142 -1 142 -1 574 c 1,0,1
EndSplineSet
EndChar

StartChar: uni02DF
Encoding: 735 735 682
Width: 574
Flags: W
LayerCount: 2
Fore
SplineSet
-1 574 m 1,0,1
 143 574 143 574 574 574 c 1,2,3
 574 430 574 430 574 -1 c 1,4,5
 430 -1 430 -1 -1 -1 c 1,6,7
 -1 142 -1 142 -1 574 c 1,0,1
EndSplineSet
EndChar

StartChar: uni02E0
Encoding: 736 736 683
Width: 574
Flags: W
LayerCount: 2
Fore
SplineSet
-1 574 m 1,0,1
 143 574 143 574 574 574 c 1,2,3
 574 430 574 430 574 -1 c 1,4,5
 430 -1 430 -1 -1 -1 c 1,6,7
 -1 142 -1 142 -1 574 c 1,0,1
EndSplineSet
EndChar

StartChar: uni02E1
Encoding: 737 737 684
Width: 574
Flags: W
LayerCount: 2
Fore
SplineSet
-1 574 m 1,0,1
 143 574 143 574 574 574 c 1,2,3
 574 430 574 430 574 -1 c 1,4,5
 430 -1 430 -1 -1 -1 c 1,6,7
 -1 142 -1 142 -1 574 c 1,0,1
EndSplineSet
EndChar

StartChar: uni02E2
Encoding: 738 738 685
Width: 574
Flags: W
LayerCount: 2
Fore
SplineSet
-1 574 m 1,0,1
 143 574 143 574 574 574 c 1,2,3
 574 430 574 430 574 -1 c 1,4,5
 430 -1 430 -1 -1 -1 c 1,6,7
 -1 142 -1 142 -1 574 c 1,0,1
EndSplineSet
EndChar

StartChar: uni02E3
Encoding: 739 739 686
Width: 574
Flags: W
LayerCount: 2
Fore
SplineSet
-1 574 m 1,0,1
 143 574 143 574 574 574 c 1,2,3
 574 430 574 430 574 -1 c 1,4,5
 430 -1 430 -1 -1 -1 c 1,6,7
 -1 142 -1 142 -1 574 c 1,0,1
EndSplineSet
EndChar

StartChar: uni02E4
Encoding: 740 740 687
Width: 574
Flags: W
LayerCount: 2
Fore
SplineSet
-1 574 m 1,0,1
 143 574 143 574 574 574 c 1,2,3
 574 430 574 430 574 -1 c 1,4,5
 430 -1 430 -1 -1 -1 c 1,6,7
 -1 142 -1 142 -1 574 c 1,0,1
EndSplineSet
EndChar

StartChar: uni02E5
Encoding: 741 741 688
Width: 574
Flags: W
LayerCount: 2
Fore
SplineSet
-1 574 m 1,0,1
 143 574 143 574 574 574 c 1,2,3
 574 430 574 430 574 -1 c 1,4,5
 430 -1 430 -1 -1 -1 c 1,6,7
 -1 142 -1 142 -1 574 c 1,0,1
EndSplineSet
EndChar

StartChar: uni02E6
Encoding: 742 742 689
Width: 574
Flags: W
LayerCount: 2
Fore
SplineSet
-1 574 m 1,0,1
 143 574 143 574 574 574 c 1,2,3
 574 430 574 430 574 -1 c 1,4,5
 430 -1 430 -1 -1 -1 c 1,6,7
 -1 142 -1 142 -1 574 c 1,0,1
EndSplineSet
EndChar

StartChar: uni02E7
Encoding: 743 743 690
Width: 574
Flags: W
LayerCount: 2
Fore
SplineSet
-1 574 m 1,0,1
 143 574 143 574 574 574 c 1,2,3
 574 430 574 430 574 -1 c 1,4,5
 430 -1 430 -1 -1 -1 c 1,6,7
 -1 142 -1 142 -1 574 c 1,0,1
EndSplineSet
EndChar

StartChar: uni02E8
Encoding: 744 744 691
Width: 574
Flags: W
LayerCount: 2
Fore
SplineSet
-1 574 m 1,0,1
 143 574 143 574 574 574 c 1,2,3
 574 430 574 430 574 -1 c 1,4,5
 430 -1 430 -1 -1 -1 c 1,6,7
 -1 142 -1 142 -1 574 c 1,0,1
EndSplineSet
EndChar

StartChar: uni02E9
Encoding: 745 745 692
Width: 574
Flags: W
LayerCount: 2
Fore
SplineSet
-1 574 m 1,0,1
 143 574 143 574 574 574 c 1,2,3
 574 430 574 430 574 -1 c 1,4,5
 430 -1 430 -1 -1 -1 c 1,6,7
 -1 142 -1 142 -1 574 c 1,0,1
EndSplineSet
EndChar

StartChar: uni02EA
Encoding: 746 746 693
Width: 574
Flags: W
LayerCount: 2
Fore
SplineSet
-1 574 m 1,0,1
 143 574 143 574 574 574 c 1,2,3
 574 430 574 430 574 -1 c 1,4,5
 430 -1 430 -1 -1 -1 c 1,6,7
 -1 142 -1 142 -1 574 c 1,0,1
EndSplineSet
EndChar

StartChar: uni02EB
Encoding: 747 747 694
Width: 574
Flags: W
LayerCount: 2
Fore
SplineSet
-1 574 m 1,0,1
 143 574 143 574 574 574 c 1,2,3
 574 430 574 430 574 -1 c 1,4,5
 430 -1 430 -1 -1 -1 c 1,6,7
 -1 142 -1 142 -1 574 c 1,0,1
EndSplineSet
EndChar

StartChar: uni02EC
Encoding: 748 748 695
Width: 574
Flags: W
LayerCount: 2
Fore
SplineSet
-1 574 m 1,0,1
 143 574 143 574 574 574 c 1,2,3
 574 430 574 430 574 -1 c 1,4,5
 430 -1 430 -1 -1 -1 c 1,6,7
 -1 142 -1 142 -1 574 c 1,0,1
EndSplineSet
EndChar

StartChar: uni02ED
Encoding: 749 749 696
Width: 574
Flags: W
LayerCount: 2
Fore
SplineSet
-1 574 m 1,0,1
 143 574 143 574 574 574 c 1,2,3
 574 430 574 430 574 -1 c 1,4,5
 430 -1 430 -1 -1 -1 c 1,6,7
 -1 142 -1 142 -1 574 c 1,0,1
EndSplineSet
EndChar

StartChar: uni02EE
Encoding: 750 750 697
Width: 574
Flags: W
LayerCount: 2
Fore
SplineSet
-1 574 m 1,0,1
 143 574 143 574 574 574 c 1,2,3
 574 430 574 430 574 -1 c 1,4,5
 430 -1 430 -1 -1 -1 c 1,6,7
 -1 142 -1 142 -1 574 c 1,0,1
EndSplineSet
EndChar

StartChar: uni02EF
Encoding: 751 751 698
Width: 574
Flags: W
LayerCount: 2
Fore
SplineSet
-1 574 m 1,0,1
 143 574 143 574 574 574 c 1,2,3
 574 430 574 430 574 -1 c 1,4,5
 430 -1 430 -1 -1 -1 c 1,6,7
 -1 142 -1 142 -1 574 c 1,0,1
EndSplineSet
EndChar

StartChar: uni02F0
Encoding: 752 752 699
Width: 574
Flags: W
LayerCount: 2
Fore
SplineSet
-1 574 m 1,0,1
 143 574 143 574 574 574 c 1,2,3
 574 430 574 430 574 -1 c 1,4,5
 430 -1 430 -1 -1 -1 c 1,6,7
 -1 142 -1 142 -1 574 c 1,0,1
EndSplineSet
EndChar

StartChar: uni02F1
Encoding: 753 753 700
Width: 574
Flags: W
LayerCount: 2
Fore
SplineSet
-1 574 m 1,0,1
 143 574 143 574 574 574 c 1,2,3
 574 430 574 430 574 -1 c 1,4,5
 430 -1 430 -1 -1 -1 c 1,6,7
 -1 142 -1 142 -1 574 c 1,0,1
EndSplineSet
EndChar

StartChar: uni02F2
Encoding: 754 754 701
Width: 574
Flags: W
LayerCount: 2
Fore
SplineSet
-1 574 m 1,0,1
 143 574 143 574 574 574 c 1,2,3
 574 430 574 430 574 -1 c 1,4,5
 430 -1 430 -1 -1 -1 c 1,6,7
 -1 142 -1 142 -1 574 c 1,0,1
EndSplineSet
EndChar

StartChar: uni02F3
Encoding: 755 755 702
Width: 574
Flags: W
LayerCount: 2
Fore
SplineSet
-1 574 m 1,0,1
 143 574 143 574 574 574 c 1,2,3
 574 430 574 430 574 -1 c 1,4,5
 430 -1 430 -1 -1 -1 c 1,6,7
 -1 142 -1 142 -1 574 c 1,0,1
EndSplineSet
EndChar

StartChar: uni02F4
Encoding: 756 756 703
Width: 574
Flags: W
LayerCount: 2
Fore
SplineSet
-1 574 m 1,0,1
 143 574 143 574 574 574 c 1,2,3
 574 430 574 430 574 -1 c 1,4,5
 430 -1 430 -1 -1 -1 c 1,6,7
 -1 142 -1 142 -1 574 c 1,0,1
EndSplineSet
EndChar

StartChar: uni02F5
Encoding: 757 757 704
Width: 574
Flags: W
LayerCount: 2
Fore
SplineSet
-1 574 m 1,0,1
 143 574 143 574 574 574 c 1,2,3
 574 430 574 430 574 -1 c 1,4,5
 430 -1 430 -1 -1 -1 c 1,6,7
 -1 142 -1 142 -1 574 c 1,0,1
EndSplineSet
EndChar

StartChar: uni02F6
Encoding: 758 758 705
Width: 574
Flags: W
LayerCount: 2
Fore
SplineSet
-1 574 m 1,0,1
 143 574 143 574 574 574 c 1,2,3
 574 430 574 430 574 -1 c 1,4,5
 430 -1 430 -1 -1 -1 c 1,6,7
 -1 142 -1 142 -1 574 c 1,0,1
EndSplineSet
EndChar

StartChar: uni02F7
Encoding: 759 759 706
Width: 574
Flags: W
LayerCount: 2
Fore
SplineSet
-1 574 m 1,0,1
 143 574 143 574 574 574 c 1,2,3
 574 430 574 430 574 -1 c 1,4,5
 430 -1 430 -1 -1 -1 c 1,6,7
 -1 142 -1 142 -1 574 c 1,0,1
EndSplineSet
EndChar

StartChar: uni02F8
Encoding: 760 760 707
Width: 574
Flags: W
LayerCount: 2
Fore
SplineSet
-1 574 m 1,0,1
 143 574 143 574 574 574 c 1,2,3
 574 430 574 430 574 -1 c 1,4,5
 430 -1 430 -1 -1 -1 c 1,6,7
 -1 142 -1 142 -1 574 c 1,0,1
EndSplineSet
EndChar

StartChar: uni02F9
Encoding: 761 761 708
Width: 574
Flags: W
LayerCount: 2
Fore
SplineSet
-1 574 m 1,0,1
 143 574 143 574 574 574 c 1,2,3
 574 430 574 430 574 -1 c 1,4,5
 430 -1 430 -1 -1 -1 c 1,6,7
 -1 142 -1 142 -1 574 c 1,0,1
EndSplineSet
EndChar

StartChar: uni02FA
Encoding: 762 762 709
Width: 574
Flags: W
LayerCount: 2
Fore
SplineSet
-1 574 m 1,0,1
 143 574 143 574 574 574 c 1,2,3
 574 430 574 430 574 -1 c 1,4,5
 430 -1 430 -1 -1 -1 c 1,6,7
 -1 142 -1 142 -1 574 c 1,0,1
EndSplineSet
EndChar

StartChar: uni02FB
Encoding: 763 763 710
Width: 574
Flags: W
LayerCount: 2
Fore
SplineSet
-1 574 m 1,0,1
 143 574 143 574 574 574 c 1,2,3
 574 430 574 430 574 -1 c 1,4,5
 430 -1 430 -1 -1 -1 c 1,6,7
 -1 142 -1 142 -1 574 c 1,0,1
EndSplineSet
EndChar

StartChar: uni02FC
Encoding: 764 764 711
Width: 574
Flags: W
LayerCount: 2
Fore
SplineSet
-1 574 m 1,0,1
 143 574 143 574 574 574 c 1,2,3
 574 430 574 430 574 -1 c 1,4,5
 430 -1 430 -1 -1 -1 c 1,6,7
 -1 142 -1 142 -1 574 c 1,0,1
EndSplineSet
EndChar

StartChar: uni02FD
Encoding: 765 765 712
Width: 574
Flags: W
LayerCount: 2
Fore
SplineSet
-1 574 m 1,0,1
 143 574 143 574 574 574 c 1,2,3
 574 430 574 430 574 -1 c 1,4,5
 430 -1 430 -1 -1 -1 c 1,6,7
 -1 142 -1 142 -1 574 c 1,0,1
EndSplineSet
EndChar

StartChar: uni02FE
Encoding: 766 766 713
Width: 574
Flags: W
LayerCount: 2
Fore
SplineSet
-1 574 m 1,0,1
 143 574 143 574 574 574 c 1,2,3
 574 430 574 430 574 -1 c 1,4,5
 430 -1 430 -1 -1 -1 c 1,6,7
 -1 142 -1 142 -1 574 c 1,0,1
EndSplineSet
EndChar

StartChar: uni02FF
Encoding: 767 767 714
Width: 574
Flags: W
LayerCount: 2
Fore
SplineSet
-1 574 m 1,0,1
 143 574 143 574 574 574 c 1,2,3
 574 430 574 430 574 -1 c 1,4,5
 430 -1 430 -1 -1 -1 c 1,6,7
 -1 142 -1 142 -1 574 c 1,0,1
EndSplineSet
EndChar

StartChar: uni0410
Encoding: 1040 1040 715
Width: 574
Flags: W
LayerCount: 2
Fore
SplineSet
-1 574 m 1,0,1
 143 574 143 574 574 574 c 1,2,3
 574 430 574 430 574 -1 c 1,4,5
 430 -1 430 -1 -1 -1 c 1,6,7
 -1 142 -1 142 -1 574 c 1,0,1
EndSplineSet
EndChar

StartChar: uni0411
Encoding: 1041 1041 716
Width: 574
Flags: W
LayerCount: 2
Fore
SplineSet
-1 574 m 1,0,1
 143 574 143 574 574 574 c 1,2,3
 574 430 574 430 574 -1 c 1,4,5
 430 -1 430 -1 -1 -1 c 1,6,7
 -1 142 -1 142 -1 574 c 1,0,1
EndSplineSet
EndChar

StartChar: uni0412
Encoding: 1042 1042 717
Width: 574
Flags: W
LayerCount: 2
Fore
SplineSet
-1 574 m 1,0,1
 143 574 143 574 574 574 c 1,2,3
 574 430 574 430 574 -1 c 1,4,5
 430 -1 430 -1 -1 -1 c 1,6,7
 -1 142 -1 142 -1 574 c 1,0,1
EndSplineSet
EndChar

StartChar: uni0413
Encoding: 1043 1043 718
Width: 574
Flags: W
LayerCount: 2
Fore
SplineSet
-1 574 m 1,0,1
 143 574 143 574 574 574 c 1,2,3
 574 430 574 430 574 -1 c 1,4,5
 430 -1 430 -1 -1 -1 c 1,6,7
 -1 142 -1 142 -1 574 c 1,0,1
EndSplineSet
EndChar

StartChar: uni0414
Encoding: 1044 1044 719
Width: 574
Flags: W
LayerCount: 2
Fore
SplineSet
-1 574 m 1,0,1
 143 574 143 574 574 574 c 1,2,3
 574 430 574 430 574 -1 c 1,4,5
 430 -1 430 -1 -1 -1 c 1,6,7
 -1 142 -1 142 -1 574 c 1,0,1
EndSplineSet
EndChar

StartChar: uni0415
Encoding: 1045 1045 720
Width: 574
Flags: W
LayerCount: 2
Fore
SplineSet
-1 574 m 1,0,1
 143 574 143 574 574 574 c 1,2,3
 574 430 574 430 574 -1 c 1,4,5
 430 -1 430 -1 -1 -1 c 1,6,7
 -1 142 -1 142 -1 574 c 1,0,1
EndSplineSet
EndChar

StartChar: uni0416
Encoding: 1046 1046 721
Width: 574
Flags: W
LayerCount: 2
Fore
SplineSet
-1 574 m 1,0,1
 143 574 143 574 574 574 c 1,2,3
 574 430 574 430 574 -1 c 1,4,5
 430 -1 430 -1 -1 -1 c 1,6,7
 -1 142 -1 142 -1 574 c 1,0,1
EndSplineSet
EndChar

StartChar: uni0417
Encoding: 1047 1047 722
Width: 574
Flags: W
LayerCount: 2
Fore
SplineSet
-1 574 m 1,0,1
 143 574 143 574 574 574 c 1,2,3
 574 430 574 430 574 -1 c 1,4,5
 430 -1 430 -1 -1 -1 c 1,6,7
 -1 142 -1 142 -1 574 c 1,0,1
EndSplineSet
EndChar

StartChar: uni0418
Encoding: 1048 1048 723
Width: 574
Flags: W
LayerCount: 2
Fore
SplineSet
-1 574 m 1,0,1
 143 574 143 574 574 574 c 1,2,3
 574 430 574 430 574 -1 c 1,4,5
 430 -1 430 -1 -1 -1 c 1,6,7
 -1 142 -1 142 -1 574 c 1,0,1
EndSplineSet
EndChar

StartChar: uni0419
Encoding: 1049 1049 724
Width: 574
Flags: W
LayerCount: 2
Fore
SplineSet
-1 574 m 1,0,1
 143 574 143 574 574 574 c 1,2,3
 574 430 574 430 574 -1 c 1,4,5
 430 -1 430 -1 -1 -1 c 1,6,7
 -1 142 -1 142 -1 574 c 1,0,1
EndSplineSet
EndChar

StartChar: uni041A
Encoding: 1050 1050 725
Width: 574
Flags: W
LayerCount: 2
Fore
SplineSet
-1 574 m 1,0,1
 143 574 143 574 574 574 c 1,2,3
 574 430 574 430 574 -1 c 1,4,5
 430 -1 430 -1 -1 -1 c 1,6,7
 -1 142 -1 142 -1 574 c 1,0,1
EndSplineSet
EndChar

StartChar: uni041B
Encoding: 1051 1051 726
Width: 574
Flags: W
LayerCount: 2
Fore
SplineSet
-1 574 m 1,0,1
 143 574 143 574 574 574 c 1,2,3
 574 430 574 430 574 -1 c 1,4,5
 430 -1 430 -1 -1 -1 c 1,6,7
 -1 142 -1 142 -1 574 c 1,0,1
EndSplineSet
EndChar

StartChar: uni041C
Encoding: 1052 1052 727
Width: 574
Flags: W
LayerCount: 2
Fore
SplineSet
-1 574 m 1,0,1
 143 574 143 574 574 574 c 1,2,3
 574 430 574 430 574 -1 c 1,4,5
 430 -1 430 -1 -1 -1 c 1,6,7
 -1 142 -1 142 -1 574 c 1,0,1
EndSplineSet
EndChar

StartChar: uni041D
Encoding: 1053 1053 728
Width: 574
Flags: W
LayerCount: 2
Fore
SplineSet
-1 574 m 1,0,1
 143 574 143 574 574 574 c 1,2,3
 574 430 574 430 574 -1 c 1,4,5
 430 -1 430 -1 -1 -1 c 1,6,7
 -1 142 -1 142 -1 574 c 1,0,1
EndSplineSet
EndChar

StartChar: uni041E
Encoding: 1054 1054 729
Width: 574
Flags: W
LayerCount: 2
Fore
SplineSet
-1 574 m 1,0,1
 143 574 143 574 574 574 c 1,2,3
 574 430 574 430 574 -1 c 1,4,5
 430 -1 430 -1 -1 -1 c 1,6,7
 -1 142 -1 142 -1 574 c 1,0,1
EndSplineSet
EndChar

StartChar: uni041F
Encoding: 1055 1055 730
Width: 574
Flags: W
LayerCount: 2
Fore
SplineSet
-1 574 m 1,0,1
 143 574 143 574 574 574 c 1,2,3
 574 430 574 430 574 -1 c 1,4,5
 430 -1 430 -1 -1 -1 c 1,6,7
 -1 142 -1 142 -1 574 c 1,0,1
EndSplineSet
EndChar

StartChar: uni0420
Encoding: 1056 1056 731
Width: 574
Flags: W
LayerCount: 2
Fore
SplineSet
-1 574 m 1,0,1
 143 574 143 574 574 574 c 1,2,3
 574 430 574 430 574 -1 c 1,4,5
 430 -1 430 -1 -1 -1 c 1,6,7
 -1 142 -1 142 -1 574 c 1,0,1
EndSplineSet
EndChar

StartChar: uni0421
Encoding: 1057 1057 732
Width: 574
Flags: W
LayerCount: 2
Fore
SplineSet
-1 574 m 1,0,1
 143 574 143 574 574 574 c 1,2,3
 574 430 574 430 574 -1 c 1,4,5
 430 -1 430 -1 -1 -1 c 1,6,7
 -1 142 -1 142 -1 574 c 1,0,1
EndSplineSet
EndChar

StartChar: uni0422
Encoding: 1058 1058 733
Width: 574
Flags: W
LayerCount: 2
Fore
SplineSet
-1 574 m 1,0,1
 143 574 143 574 574 574 c 1,2,3
 574 430 574 430 574 -1 c 1,4,5
 430 -1 430 -1 -1 -1 c 1,6,7
 -1 142 -1 142 -1 574 c 1,0,1
EndSplineSet
EndChar

StartChar: uni0423
Encoding: 1059 1059 734
Width: 574
Flags: W
LayerCount: 2
Fore
SplineSet
-1 574 m 1,0,1
 143 574 143 574 574 574 c 1,2,3
 574 430 574 430 574 -1 c 1,4,5
 430 -1 430 -1 -1 -1 c 1,6,7
 -1 142 -1 142 -1 574 c 1,0,1
EndSplineSet
EndChar

StartChar: uni0424
Encoding: 1060 1060 735
Width: 574
Flags: W
LayerCount: 2
Fore
SplineSet
-1 574 m 1,0,1
 143 574 143 574 574 574 c 1,2,3
 574 430 574 430 574 -1 c 1,4,5
 430 -1 430 -1 -1 -1 c 1,6,7
 -1 142 -1 142 -1 574 c 1,0,1
EndSplineSet
EndChar

StartChar: uni0425
Encoding: 1061 1061 736
Width: 574
Flags: W
LayerCount: 2
Fore
SplineSet
-1 574 m 1,0,1
 143 574 143 574 574 574 c 1,2,3
 574 430 574 430 574 -1 c 1,4,5
 430 -1 430 -1 -1 -1 c 1,6,7
 -1 142 -1 142 -1 574 c 1,0,1
EndSplineSet
EndChar

StartChar: uni0426
Encoding: 1062 1062 737
Width: 574
Flags: W
LayerCount: 2
Fore
SplineSet
-1 574 m 1,0,1
 143 574 143 574 574 574 c 1,2,3
 574 430 574 430 574 -1 c 1,4,5
 430 -1 430 -1 -1 -1 c 1,6,7
 -1 142 -1 142 -1 574 c 1,0,1
EndSplineSet
EndChar

StartChar: uni0427
Encoding: 1063 1063 738
Width: 574
Flags: W
LayerCount: 2
Fore
SplineSet
-1 574 m 1,0,1
 143 574 143 574 574 574 c 1,2,3
 574 430 574 430 574 -1 c 1,4,5
 430 -1 430 -1 -1 -1 c 1,6,7
 -1 142 -1 142 -1 574 c 1,0,1
EndSplineSet
EndChar

StartChar: uni0428
Encoding: 1064 1064 739
Width: 574
Flags: W
LayerCount: 2
Fore
SplineSet
-1 574 m 1,0,1
 143 574 143 574 574 574 c 1,2,3
 574 430 574 430 574 -1 c 1,4,5
 430 -1 430 -1 -1 -1 c 1,6,7
 -1 142 -1 142 -1 574 c 1,0,1
EndSplineSet
EndChar

StartChar: uni0429
Encoding: 1065 1065 740
Width: 574
Flags: W
LayerCount: 2
Fore
SplineSet
-1 574 m 1,0,1
 143 574 143 574 574 574 c 1,2,3
 574 430 574 430 574 -1 c 1,4,5
 430 -1 430 -1 -1 -1 c 1,6,7
 -1 142 -1 142 -1 574 c 1,0,1
EndSplineSet
EndChar

StartChar: uni042A
Encoding: 1066 1066 741
Width: 574
Flags: W
LayerCount: 2
Fore
SplineSet
-1 574 m 1,0,1
 143 574 143 574 574 574 c 1,2,3
 574 430 574 430 574 -1 c 1,4,5
 430 -1 430 -1 -1 -1 c 1,6,7
 -1 142 -1 142 -1 574 c 1,0,1
EndSplineSet
EndChar

StartChar: uni042B
Encoding: 1067 1067 742
Width: 574
Flags: W
LayerCount: 2
Fore
SplineSet
-1 574 m 1,0,1
 143 574 143 574 574 574 c 1,2,3
 574 430 574 430 574 -1 c 1,4,5
 430 -1 430 -1 -1 -1 c 1,6,7
 -1 142 -1 142 -1 574 c 1,0,1
EndSplineSet
EndChar

StartChar: uni042C
Encoding: 1068 1068 743
Width: 574
Flags: W
LayerCount: 2
Fore
SplineSet
-1 574 m 1,0,1
 143 574 143 574 574 574 c 1,2,3
 574 430 574 430 574 -1 c 1,4,5
 430 -1 430 -1 -1 -1 c 1,6,7
 -1 142 -1 142 -1 574 c 1,0,1
EndSplineSet
EndChar

StartChar: uni042D
Encoding: 1069 1069 744
Width: 574
Flags: W
LayerCount: 2
Fore
SplineSet
-1 574 m 1,0,1
 143 574 143 574 574 574 c 1,2,3
 574 430 574 430 574 -1 c 1,4,5
 430 -1 430 -1 -1 -1 c 1,6,7
 -1 142 -1 142 -1 574 c 1,0,1
EndSplineSet
EndChar

StartChar: uni042E
Encoding: 1070 1070 745
Width: 574
Flags: W
LayerCount: 2
Fore
SplineSet
-1 574 m 1,0,1
 143 574 143 574 574 574 c 1,2,3
 574 430 574 430 574 -1 c 1,4,5
 430 -1 430 -1 -1 -1 c 1,6,7
 -1 142 -1 142 -1 574 c 1,0,1
EndSplineSet
EndChar

StartChar: uni042F
Encoding: 1071 1071 746
Width: 574
Flags: W
LayerCount: 2
Fore
SplineSet
-1 574 m 1,0,1
 143 574 143 574 574 574 c 1,2,3
 574 430 574 430 574 -1 c 1,4,5
 430 -1 430 -1 -1 -1 c 1,6,7
 -1 142 -1 142 -1 574 c 1,0,1
EndSplineSet
EndChar

StartChar: uni0430
Encoding: 1072 1072 747
Width: 574
Flags: W
LayerCount: 2
Fore
SplineSet
-1 574 m 1,0,1
 143 574 143 574 574 574 c 1,2,3
 574 430 574 430 574 -1 c 1,4,5
 430 -1 430 -1 -1 -1 c 1,6,7
 -1 142 -1 142 -1 574 c 1,0,1
EndSplineSet
EndChar

StartChar: uni0431
Encoding: 1073 1073 748
Width: 574
Flags: W
LayerCount: 2
Fore
SplineSet
-1 574 m 1,0,1
 143 574 143 574 574 574 c 1,2,3
 574 430 574 430 574 -1 c 1,4,5
 430 -1 430 -1 -1 -1 c 1,6,7
 -1 142 -1 142 -1 574 c 1,0,1
EndSplineSet
EndChar

StartChar: uni0432
Encoding: 1074 1074 749
Width: 574
Flags: W
LayerCount: 2
Fore
SplineSet
-1 574 m 1,0,1
 143 574 143 574 574 574 c 1,2,3
 574 430 574 430 574 -1 c 1,4,5
 430 -1 430 -1 -1 -1 c 1,6,7
 -1 142 -1 142 -1 574 c 1,0,1
EndSplineSet
EndChar

StartChar: uni0433
Encoding: 1075 1075 750
Width: 574
Flags: W
LayerCount: 2
Fore
SplineSet
-1 574 m 1,0,1
 143 574 143 574 574 574 c 1,2,3
 574 430 574 430 574 -1 c 1,4,5
 430 -1 430 -1 -1 -1 c 1,6,7
 -1 142 -1 142 -1 574 c 1,0,1
EndSplineSet
EndChar

StartChar: uni0434
Encoding: 1076 1076 751
Width: 574
Flags: W
LayerCount: 2
Fore
SplineSet
-1 574 m 1,0,1
 143 574 143 574 574 574 c 1,2,3
 574 430 574 430 574 -1 c 1,4,5
 430 -1 430 -1 -1 -1 c 1,6,7
 -1 142 -1 142 -1 574 c 1,0,1
EndSplineSet
EndChar

StartChar: uni0435
Encoding: 1077 1077 752
Width: 574
Flags: W
LayerCount: 2
Fore
SplineSet
-1 574 m 1,0,1
 143 574 143 574 574 574 c 1,2,3
 574 430 574 430 574 -1 c 1,4,5
 430 -1 430 -1 -1 -1 c 1,6,7
 -1 142 -1 142 -1 574 c 1,0,1
EndSplineSet
EndChar

StartChar: uni0436
Encoding: 1078 1078 753
Width: 574
Flags: W
LayerCount: 2
Fore
SplineSet
-1 574 m 1,0,1
 143 574 143 574 574 574 c 1,2,3
 574 430 574 430 574 -1 c 1,4,5
 430 -1 430 -1 -1 -1 c 1,6,7
 -1 142 -1 142 -1 574 c 1,0,1
EndSplineSet
EndChar

StartChar: uni0437
Encoding: 1079 1079 754
Width: 574
Flags: W
LayerCount: 2
Fore
SplineSet
-1 574 m 1,0,1
 143 574 143 574 574 574 c 1,2,3
 574 430 574 430 574 -1 c 1,4,5
 430 -1 430 -1 -1 -1 c 1,6,7
 -1 142 -1 142 -1 574 c 1,0,1
EndSplineSet
EndChar

StartChar: uni0438
Encoding: 1080 1080 755
Width: 574
Flags: W
LayerCount: 2
Fore
SplineSet
-1 574 m 1,0,1
 143 574 143 574 574 574 c 1,2,3
 574 430 574 430 574 -1 c 1,4,5
 430 -1 430 -1 -1 -1 c 1,6,7
 -1 142 -1 142 -1 574 c 1,0,1
EndSplineSet
EndChar

StartChar: uni0439
Encoding: 1081 1081 756
Width: 574
Flags: W
LayerCount: 2
Fore
SplineSet
-1 574 m 1,0,1
 143 574 143 574 574 574 c 1,2,3
 574 430 574 430 574 -1 c 1,4,5
 430 -1 430 -1 -1 -1 c 1,6,7
 -1 142 -1 142 -1 574 c 1,0,1
EndSplineSet
EndChar

StartChar: uni043A
Encoding: 1082 1082 757
Width: 574
Flags: W
LayerCount: 2
Fore
SplineSet
-1 574 m 1,0,1
 143 574 143 574 574 574 c 1,2,3
 574 430 574 430 574 -1 c 1,4,5
 430 -1 430 -1 -1 -1 c 1,6,7
 -1 142 -1 142 -1 574 c 1,0,1
EndSplineSet
EndChar

StartChar: uni043B
Encoding: 1083 1083 758
Width: 574
Flags: W
LayerCount: 2
Fore
SplineSet
-1 574 m 1,0,1
 143 574 143 574 574 574 c 1,2,3
 574 430 574 430 574 -1 c 1,4,5
 430 -1 430 -1 -1 -1 c 1,6,7
 -1 142 -1 142 -1 574 c 1,0,1
EndSplineSet
EndChar

StartChar: uni043C
Encoding: 1084 1084 759
Width: 574
Flags: W
LayerCount: 2
Fore
SplineSet
-1 574 m 1,0,1
 143 574 143 574 574 574 c 1,2,3
 574 430 574 430 574 -1 c 1,4,5
 430 -1 430 -1 -1 -1 c 1,6,7
 -1 142 -1 142 -1 574 c 1,0,1
EndSplineSet
EndChar

StartChar: uni043D
Encoding: 1085 1085 760
Width: 574
Flags: W
LayerCount: 2
Fore
SplineSet
-1 574 m 1,0,1
 143 574 143 574 574 574 c 1,2,3
 574 430 574 430 574 -1 c 1,4,5
 430 -1 430 -1 -1 -1 c 1,6,7
 -1 142 -1 142 -1 574 c 1,0,1
EndSplineSet
EndChar

StartChar: uni043E
Encoding: 1086 1086 761
Width: 574
Flags: W
LayerCount: 2
Fore
SplineSet
-1 574 m 1,0,1
 143 574 143 574 574 574 c 1,2,3
 574 430 574 430 574 -1 c 1,4,5
 430 -1 430 -1 -1 -1 c 1,6,7
 -1 142 -1 142 -1 574 c 1,0,1
EndSplineSet
EndChar

StartChar: uni043F
Encoding: 1087 1087 762
Width: 574
Flags: W
LayerCount: 2
Fore
SplineSet
-1 574 m 1,0,1
 143 574 143 574 574 574 c 1,2,3
 574 430 574 430 574 -1 c 1,4,5
 430 -1 430 -1 -1 -1 c 1,6,7
 -1 142 -1 142 -1 574 c 1,0,1
EndSplineSet
EndChar

StartChar: uni0440
Encoding: 1088 1088 763
Width: 574
Flags: W
LayerCount: 2
Fore
SplineSet
-1 574 m 1,0,1
 143 574 143 574 574 574 c 1,2,3
 574 430 574 430 574 -1 c 1,4,5
 430 -1 430 -1 -1 -1 c 1,6,7
 -1 142 -1 142 -1 574 c 1,0,1
EndSplineSet
EndChar

StartChar: uni0441
Encoding: 1089 1089 764
Width: 574
Flags: W
LayerCount: 2
Fore
SplineSet
-1 574 m 1,0,1
 143 574 143 574 574 574 c 1,2,3
 574 430 574 430 574 -1 c 1,4,5
 430 -1 430 -1 -1 -1 c 1,6,7
 -1 142 -1 142 -1 574 c 1,0,1
EndSplineSet
EndChar

StartChar: uni0442
Encoding: 1090 1090 765
Width: 574
Flags: W
LayerCount: 2
Fore
SplineSet
-1 574 m 1,0,1
 143 574 143 574 574 574 c 1,2,3
 574 430 574 430 574 -1 c 1,4,5
 430 -1 430 -1 -1 -1 c 1,6,7
 -1 142 -1 142 -1 574 c 1,0,1
EndSplineSet
EndChar

StartChar: uni0443
Encoding: 1091 1091 766
Width: 574
Flags: W
LayerCount: 2
Fore
SplineSet
-1 574 m 1,0,1
 143 574 143 574 574 574 c 1,2,3
 574 430 574 430 574 -1 c 1,4,5
 430 -1 430 -1 -1 -1 c 1,6,7
 -1 142 -1 142 -1 574 c 1,0,1
EndSplineSet
EndChar

StartChar: uni0444
Encoding: 1092 1092 767
Width: 574
Flags: W
LayerCount: 2
Fore
SplineSet
-1 574 m 1,0,1
 143 574 143 574 574 574 c 1,2,3
 574 430 574 430 574 -1 c 1,4,5
 430 -1 430 -1 -1 -1 c 1,6,7
 -1 142 -1 142 -1 574 c 1,0,1
EndSplineSet
EndChar

StartChar: uni0445
Encoding: 1093 1093 768
Width: 574
Flags: W
LayerCount: 2
Fore
SplineSet
-1 574 m 1,0,1
 143 574 143 574 574 574 c 1,2,3
 574 430 574 430 574 -1 c 1,4,5
 430 -1 430 -1 -1 -1 c 1,6,7
 -1 142 -1 142 -1 574 c 1,0,1
EndSplineSet
EndChar

StartChar: uni0446
Encoding: 1094 1094 769
Width: 574
Flags: W
LayerCount: 2
Fore
SplineSet
-1 574 m 1,0,1
 143 574 143 574 574 574 c 1,2,3
 574 430 574 430 574 -1 c 1,4,5
 430 -1 430 -1 -1 -1 c 1,6,7
 -1 142 -1 142 -1 574 c 1,0,1
EndSplineSet
EndChar

StartChar: uni0447
Encoding: 1095 1095 770
Width: 574
Flags: W
LayerCount: 2
Fore
SplineSet
-1 574 m 1,0,1
 143 574 143 574 574 574 c 1,2,3
 574 430 574 430 574 -1 c 1,4,5
 430 -1 430 -1 -1 -1 c 1,6,7
 -1 142 -1 142 -1 574 c 1,0,1
EndSplineSet
EndChar

StartChar: uni0448
Encoding: 1096 1096 771
Width: 574
Flags: W
LayerCount: 2
Fore
SplineSet
-1 574 m 1,0,1
 143 574 143 574 574 574 c 1,2,3
 574 430 574 430 574 -1 c 1,4,5
 430 -1 430 -1 -1 -1 c 1,6,7
 -1 142 -1 142 -1 574 c 1,0,1
EndSplineSet
EndChar

StartChar: uni0449
Encoding: 1097 1097 772
Width: 574
Flags: W
LayerCount: 2
Fore
SplineSet
-1 574 m 1,0,1
 143 574 143 574 574 574 c 1,2,3
 574 430 574 430 574 -1 c 1,4,5
 430 -1 430 -1 -1 -1 c 1,6,7
 -1 142 -1 142 -1 574 c 1,0,1
EndSplineSet
EndChar

StartChar: uni044A
Encoding: 1098 1098 773
Width: 574
Flags: W
LayerCount: 2
Fore
SplineSet
-1 574 m 1,0,1
 143 574 143 574 574 574 c 1,2,3
 574 430 574 430 574 -1 c 1,4,5
 430 -1 430 -1 -1 -1 c 1,6,7
 -1 142 -1 142 -1 574 c 1,0,1
EndSplineSet
EndChar

StartChar: uni044B
Encoding: 1099 1099 774
Width: 574
Flags: W
LayerCount: 2
Fore
SplineSet
-1 574 m 1,0,1
 143 574 143 574 574 574 c 1,2,3
 574 430 574 430 574 -1 c 1,4,5
 430 -1 430 -1 -1 -1 c 1,6,7
 -1 142 -1 142 -1 574 c 1,0,1
EndSplineSet
EndChar

StartChar: uni044C
Encoding: 1100 1100 775
Width: 574
Flags: W
LayerCount: 2
Fore
SplineSet
-1 574 m 1,0,1
 143 574 143 574 574 574 c 1,2,3
 574 430 574 430 574 -1 c 1,4,5
 430 -1 430 -1 -1 -1 c 1,6,7
 -1 142 -1 142 -1 574 c 1,0,1
EndSplineSet
EndChar

StartChar: uni044D
Encoding: 1101 1101 776
Width: 574
Flags: W
LayerCount: 2
Fore
SplineSet
-1 574 m 1,0,1
 143 574 143 574 574 574 c 1,2,3
 574 430 574 430 574 -1 c 1,4,5
 430 -1 430 -1 -1 -1 c 1,6,7
 -1 142 -1 142 -1 574 c 1,0,1
EndSplineSet
EndChar

StartChar: uni044E
Encoding: 1102 1102 777
Width: 574
Flags: W
LayerCount: 2
Fore
SplineSet
-1 574 m 1,0,1
 143 574 143 574 574 574 c 1,2,3
 574 430 574 430 574 -1 c 1,4,5
 430 -1 430 -1 -1 -1 c 1,6,7
 -1 142 -1 142 -1 574 c 1,0,1
EndSplineSet
EndChar

StartChar: uni044F
Encoding: 1103 1103 778
Width: 574
Flags: W
LayerCount: 2
Fore
SplineSet
-1 574 m 1,0,1
 143 574 143 574 574 574 c 1,2,3
 574 430 574 430 574 -1 c 1,4,5
 430 -1 430 -1 -1 -1 c 1,6,7
 -1 142 -1 142 -1 574 c 1,0,1
EndSplineSet
EndChar

StartChar: uni045E
Encoding: 1118 1118 779
Width: 574
Flags: W
LayerCount: 2
Fore
SplineSet
-1 574 m 1,0,1
 143 574 143 574 574 574 c 1,2,3
 574 430 574 430 574 -1 c 1,4,5
 430 -1 430 -1 -1 -1 c 1,6,7
 -1 142 -1 142 -1 574 c 1,0,1
EndSplineSet
EndChar

StartChar: uni0459
Encoding: 1113 1113 780
Width: 574
Flags: W
LayerCount: 2
Fore
SplineSet
-1 574 m 1,0,1
 143 574 143 574 574 574 c 1,2,3
 574 430 574 430 574 -1 c 1,4,5
 430 -1 430 -1 -1 -1 c 1,6,7
 -1 142 -1 142 -1 574 c 1,0,1
EndSplineSet
EndChar

StartChar: uni045A
Encoding: 1114 1114 781
Width: 574
Flags: W
LayerCount: 2
Fore
SplineSet
-1 574 m 1,0,1
 143 574 143 574 574 574 c 1,2,3
 574 430 574 430 574 -1 c 1,4,5
 430 -1 430 -1 -1 -1 c 1,6,7
 -1 142 -1 142 -1 574 c 1,0,1
EndSplineSet
EndChar

StartChar: uni045C
Encoding: 1116 1116 782
Width: 574
Flags: W
LayerCount: 2
Fore
SplineSet
-1 574 m 1,0,1
 143 574 143 574 574 574 c 1,2,3
 574 430 574 430 574 -1 c 1,4,5
 430 -1 430 -1 -1 -1 c 1,6,7
 -1 142 -1 142 -1 574 c 1,0,1
EndSplineSet
EndChar

StartChar: uni045D
Encoding: 1117 1117 783
Width: 574
Flags: W
LayerCount: 2
Fore
SplineSet
-1 574 m 1,0,1
 143 574 143 574 574 574 c 1,2,3
 574 430 574 430 574 -1 c 1,4,5
 430 -1 430 -1 -1 -1 c 1,6,7
 -1 142 -1 142 -1 574 c 1,0,1
EndSplineSet
EndChar

StartChar: uni0478
Encoding: 1144 1144 784
Width: 574
Flags: W
LayerCount: 2
Fore
SplineSet
-1 574 m 1,0,1
 143 574 143 574 574 574 c 1,2,3
 574 430 574 430 574 -1 c 1,4,5
 430 -1 430 -1 -1 -1 c 1,6,7
 -1 142 -1 142 -1 574 c 1,0,1
EndSplineSet
EndChar

StartChar: uni0479
Encoding: 1145 1145 785
Width: 574
Flags: W
LayerCount: 2
Fore
SplineSet
-1 574 m 1,0,1
 143 574 143 574 574 574 c 1,2,3
 574 430 574 430 574 -1 c 1,4,5
 430 -1 430 -1 -1 -1 c 1,6,7
 -1 142 -1 142 -1 574 c 1,0,1
EndSplineSet
EndChar

StartChar: uni04C1
Encoding: 1217 1217 786
Width: 574
Flags: W
LayerCount: 2
Fore
SplineSet
-1 574 m 1,0,1
 143 574 143 574 574 574 c 1,2,3
 574 430 574 430 574 -1 c 1,4,5
 430 -1 430 -1 -1 -1 c 1,6,7
 -1 142 -1 142 -1 574 c 1,0,1
EndSplineSet
EndChar

